<svg xmlns="http://www.w3.org/2000/svg" width="120" height="120" viewBox="0 0 120 120">
  <g id="avatar" transform="translate(0.083 -0.049)">
    <circle id="Ellipse_4" data-name="Ellipse 4" cx="60" cy="60" r="60" transform="translate(-0.083 0.049)" fill="#eceff1"/>
    <path id="Path_24" data-name="Path 24" d="M152.329,144a22.246,22.246,0,0,0-9.23-4.263l-16.43-3.3a3.705,3.705,0,0,1-2.967-3.671V129a45.018,45.018,0,0,0,3.094-5.514,30.274,30.274,0,0,1,2.637-4.623c3.327-3.341,6.541-7.1,7.537-11.935.929-4.54.015-6.923-1.056-8.841,0-4.787-.15-10.781-1.281-15.142-.135-5.9-1.206-9.223-3.9-12.13-1.9-2.06-4.705-2.54-6.96-2.922a12.162,12.162,0,0,1-2.555-.6A26.44,26.44,0,0,0,108.56,64c-9.867.4-22,6.683-26.058,17.876-1.259,3.409-1.131,9.006-1.026,13.5l-.1,2.7c-.966,1.888-1.918,4.285-.981,8.841.989,4.847,4.2,8.608,7.59,11.995a32.887,32.887,0,0,1,2.63,4.6,46.564,46.564,0,0,0,3.117,5.492v3.769a3.723,3.723,0,0,1-2.982,3.671l-16.445,3.3a22.3,22.3,0,0,0-9.2,4.256,3.755,3.755,0,0,0-.442,5.454,59.647,59.647,0,0,0,88.107,0,3.753,3.753,0,0,0-.442-5.454Z" transform="translate(-48.688 -49.016)" fill="#455a64"/>
  </g>
</svg>
