<svg xmlns="http://www.w3.org/2000/svg" xmlns:xlink="http://www.w3.org/1999/xlink" width="30" height="30" viewBox="0 0 30 30">
  <defs>
    <clipPath id="clip-path">
      <path id="Path_367" data-name="Path 367" d="M0-682.665H30v30H0Z" transform="translate(0 682.665)"/>
    </clipPath>
  </defs>
  <g id="behavior" transform="translate(0 -0.002)">
    <g id="Group_147" data-name="Group 147" transform="translate(0 0.002)" clip-path="url(#clip-path)">
      <path id="Path_359" data-name="Path 359" d="M-56.958,0q-.074.449-.1.9A6.7,6.7,0,0,1-57.7,2.942c-.127.544.452,1.1.683,1.641a.793.793,0,0,1-.039.7,6.355,6.355,0,0,1-1.789,1.975c-.417.321-.735.607-.733,1.107,0,.583.366.963,1.149,1.2,1.5.461-.313,1.637-.313,1.637a.5.5,0,0,0,.159.689,4.435,4.435,0,0,1,.7.672c-.741.534-.338,1.124-.338,1.124a2.168,2.168,0,0,1,.683.289.431.431,0,0,1,.138.534,1.785,1.785,0,0,0-.276,1.481,2.355,2.355,0,0,0,2.157,1.688,16.723,16.723,0,0,0,3.423-.31c2.533-.343,3.657,1.82,4.379,3.6a1.18,1.18,0,0,0,1.388.7l8.735-2.251a1.182,1.182,0,0,0,.812-1.556c-.136-.366-.275-.763-.4-1.174" transform="translate(61.34 7.854)" fill="none" stroke="#3bbbac" stroke-linecap="round" stroke-linejoin="round" stroke-miterlimit="10" stroke-width="1"/>
      <path id="Path_360" data-name="Path 360" d="M-407.021-481.213a3,3,0,0,1,.426-2.657c3.521-3.187,4.142-4.96,4.142-9.093,0-7.493-7.36-10.369-13.353-10.369-4.335,0-8.351,1.846-9.924,5.448" transform="translate(430.688 503.772)" fill="none" stroke="#3bbbac" stroke-linecap="round" stroke-linejoin="round" stroke-miterlimit="10" stroke-width="1"/>
      <path id="Path_361" data-name="Path 361" d="M0-26.407a1.7,1.7,0,0,0,.8.353,1.7,1.7,0,0,0,.6-.012,2.253,2.253,0,0,0,1.389.793,2.262,2.262,0,0,0,2.588-1.881,2.27,2.27,0,0,0,.025-.467" transform="translate(17.558 43.736)" fill="none" stroke="#3bbbac" stroke-linecap="round" stroke-linejoin="round" stroke-miterlimit="10" stroke-width="1"/>
      <path id="Path_362" data-name="Path 362" d="M-63.384-1.249l1.142,3.717a.42.42,0,0,1-.467.538l-1.433-.227a.941.941,0,0,1-.725-.575L-66.3-1.307" transform="translate(80.588 17.433)" fill="none" stroke="#3bbbac" stroke-linecap="round" stroke-linejoin="round" stroke-miterlimit="10" stroke-width="1"/>
      <path id="Path_363" data-name="Path 363" d="M-172.12,0a3.39,3.39,0,0,0-1.539,1.093,2.566,2.566,0,0,0-.822-.278,2.568,2.568,0,0,0-2.928,2.075A3.03,3.03,0,0,0-179.866,5.4a3.015,3.015,0,0,0,.33,1.918A2.634,2.634,0,0,0-180,8.442a2.646,2.646,0,0,0,2.2,3.027,2.64,2.64,0,0,0,2.272-.73" transform="translate(186.645 3.152)" fill="none" stroke="#3bbbac" stroke-linecap="round" stroke-linejoin="round" stroke-miterlimit="10" stroke-width="1"/>
      <path id="Path_364" data-name="Path 364" d="M-62.709-267.149a3.377,3.377,0,0,0,1.817.9,3.393,3.393,0,0,0,3.882-2.821,3.381,3.381,0,0,0-.544-2.436,2.845,2.845,0,0,0,.97-1.728,2.857,2.857,0,0,0-2.375-3.268l-.022,0a2.857,2.857,0,0,0-2.321-2.115,2.851,2.851,0,0,0-2.337.68,3.368,3.368,0,0,0-1.954-1.49" transform="translate(82.151 282.525)" fill="none" stroke="#3bbbac" stroke-linecap="round" stroke-linejoin="round" stroke-miterlimit="10" stroke-width="1"/>
      <path id="Path_365" data-name="Path 365" d="M-13.209,0a1.359,1.359,0,0,0-.605,1.063,1.361,1.361,0,0,0,1.048,1.4,2.147,2.147,0,0,0,1.8,2.29,2.141,2.141,0,0,0,.84-.033,1.681,1.681,0,0,0,1.081.648A1.684,1.684,0,0,0-7.566,4.87a2.368,2.368,0,0,0,.95.372A2.377,2.377,0,0,0-4,3.674" transform="translate(23.87 10.944)" fill="none" stroke="#3bbbac" stroke-linecap="round" stroke-linejoin="round" stroke-miterlimit="10" stroke-width="1"/>
      <path id="Path_366" data-name="Path 366" d="M-123.261-122.178l-1.12,1.119a.631.631,0,0,1-.892,0l-3.073-3.068a1.974,1.974,0,0,1-.58-1.446,2.221,2.221,0,0,1,2.221-2.221,2.21,2.21,0,0,1,1.878,1.043,2.211,2.211,0,0,1,1.878-1.043,2.263,2.263,0,0,1,2.221,2.268,2.209,2.209,0,0,1-.575,1.394l-.009.01-.492.491" transform="translate(141.206 134.644)" fill="none" stroke="#3bbbac" stroke-linecap="round" stroke-linejoin="round" stroke-miterlimit="10" stroke-width="1"/>
    </g>
  </g>
</svg>
