<svg id="svgexport-7_8_" data-name="svgexport-7 (8)" xmlns="http://www.w3.org/2000/svg" width="64" height="64" viewBox="0 0 64 64">
  <g id="Group_4190" data-name="Group 4190" transform="translate(0 0)">
    <path id="Path_5912" data-name="Path 5912" d="M207.971,422a7.5,7.5,0,0,1-2.305,3.75H218.25a7.5,7.5,0,0,1-2.306-3.75Z" transform="translate(-179.958 -369.25)" fill="#febe50"/>
    <path id="Path_5913" data-name="Path 5913" d="M150.624,482h-22.75a5.635,5.635,0,0,0-5.3,3.75h33.357A5.635,5.635,0,0,0,150.624,482Z" transform="translate(-107.249 -421.75)" fill="#febe50"/>
    <path id="Path_5914" data-name="Path 5914" d="M211,363.875A1.877,1.877,0,0,0,209.125,362h-11.25a1.875,1.875,0,0,0,0,3.75h11.25A1.877,1.877,0,0,0,211,363.875Z" transform="translate(-171.5 -316.75)" fill="#febe50"/>
    <path id="Path_5915" data-name="Path 5915" d="M56.5,0a7.513,7.513,0,0,0-7.263,5.625H14.763A7.5,7.5,0,0,0,0,7.5v2A16.9,16.9,0,0,0,11,25.328l-.921-4.619A13.179,13.179,0,0,1,3.75,9.5v-2a3.75,3.75,0,0,1,7.266-1.3l.231,1.156c0,.049,0,.1,0,.148h.026L11.6,9.133l3.728,18.7a17,17,0,0,0,33.342,0L52.4,9.133,52.724,7.5h.026c0-.049,0-.1,0-.148l.23-1.156A3.75,3.75,0,0,1,60.25,7.5v2a13.179,13.179,0,0,1-6.334,11.209L53,25.328A16.9,16.9,0,0,0,64,9.5v-2A7.509,7.509,0,0,0,56.5,0Z" transform="translate(0 0)" fill="#febe50"/>
  </g>
</svg>
