<svg width="28" height="28" viewBox="0 0 28 28" fill="none" xmlns="http://www.w3.org/2000/svg">
    <path d="M25.423 0H13.12a2.577 2.577 0 0 0-2.577 2.577v6.06l2.008.998 1.004-2.007a2.46 2.46 0 1 1 4.402 2.201l-1.789 3.578c.048.475.005.955-.128 1.413h1.181l-3.114 8.565a.82.82 0 1 0 1.541.56l3.319-9.125h.575l3.352 9.128a.82.82 0 0 0 1.54-.565L21.29 14.82h4.133A2.578 2.578 0 0 0 28 12.243V2.577A2.578 2.578 0 0 0 25.423 0zm-1.758 11.306h-3.68a.82.82 0 0 1 0-1.64h3.68a.82.82 0 1 1 0 1.64zm0-3.076h-3.68a.82.82 0 1 1 0-1.64h3.68a.82.82 0 1 1 0 1.64zm0-3.075h-8.786a.82.82 0 1 1 0-1.64h8.786a.82.82 0 1 1 0 1.64z" fill="#fff"/>
    <path d="M14.433 14.469c.148-.435.147-.889.022-1.303l2.036-4.07a.82.82 0 0 0-1.467-.735l-1.737 3.473L9.403 9.9C8.22 9.314 7.377 8.787 5.939 8.787h-.725c1.12 0 2.12-.516 2.775-1.323a3.573 3.573 0 1 0-2.776 1.323 5.24 5.24 0 0 0-3.685 1.526A5.172 5.172 0 0 0 0 14v2.636c0 1.135.737 2.1 1.757 2.444v4.585c0 .453.367.82.82.82H7.85a.82.82 0 0 0 .82-.82v-9.217l2.627 1.314c.58.29 1.257.315 1.86.07a2.241 2.241 0 0 0 1.274-1.354l.003-.01z" fill="#fff"/>
</svg>
