<svg width="24" height="24" viewBox="0 0 24 24" fill="none" xmlns="http://www.w3.org/2000/svg">
    <g clip-path="url(#8g1on5ef1a)" fill="#989898">
        <path d="M.702 18.328h18.376a.704.704 0 0 0 .45-.162c.177-.148 4.203-3.612 4.449-11.088H4.24C3.997 13.864.29 17.054.251 17.086a.705.705 0 0 0 .451 1.242zM23.297 2.86H19.78v-.703a.696.696 0 0 0-.703-.703.696.696 0 0 0-.703.703v.703h-3.563v-.703a.696.696 0 0 0-.703-.703.696.696 0 0 0-.703.703v.703H9.89v-.703a.696.696 0 0 0-.703-.703.696.696 0 0 0-.703.703v.703H4.968a.696.696 0 0 0-.703.703v2.11H24v-2.11a.696.696 0 0 0-.703-.703z"/>
        <path d="M20.431 19.244a2.116 2.116 0 0 1-1.353.49H4.265v2.11c0 .389.314.703.703.703h18.329a.703.703 0 0 0 .703-.703v-7.882c-1.356 3.326-3.247 5.013-3.569 5.282z"/>
    </g>
    <defs>
        <clipPath id="8g1on5ef1a">
            <path fill="#fff" d="M0 0h24v24H0z"/>
        </clipPath>
    </defs>
</svg>
