<svg width="28" height="28" viewBox="0 0 28 28" fill="none" xmlns="http://www.w3.org/2000/svg">
    <path d="m18.419 11.113.437.787 4.9-2.713c.306.263.7.438 1.181.438.963 0 1.75-.787 1.75-1.75s-.787-1.75-1.75-1.75c-.962 0-1.75.787-1.75 1.75 0 .219.044.394.088.569l-4.856 2.668zM24.937 7c.482 0 .875.394.875.875a.878.878 0 0 1-.875.875.878.878 0 0 1-.875-.875c0-.481.394-.875.875-.875zM9.582 16.887l-.437-.787-4.9 2.712a1.867 1.867 0 0 0-1.181-.437c-.963 0-1.75.788-1.75 1.75s.787 1.75 1.75 1.75c.962 0 1.75-.788 1.75-1.75 0-.219-.044-.394-.088-.569l4.856-2.669zM3.063 21a.878.878 0 0 1-.876-.875c0-.481.394-.875.876-.875.48 0 .874.394.874.875a.878.878 0 0 1-.874.875zm21-4.813h.875v.875h-.875v-.875zm0-1.75h.875v.876h-.875v-.876zm0-1.75h.875v.876h-.875v-.876zm0-1.75h.875v.876h-.875v-.876zM21.689 6.812l-.758-.437.438-.758.758.438-.438.757zM20.16 5.93l-.758-.438.438-.758.757.438-.437.757zM18.669 5.069l-.758-.437.436-.758.759.437-.437.758zM17.138 4.186l-.758-.437.437-.758.758.437-.437.758zM10.87 4.19l-.437-.758.758-.437.437.758-.757.437zM9.67 3.89l.437.759-.758.437-.437-.758.757-.437zM7.847 5.951l-.438-.757.757-.438.438.757-.757.438zM6.323 6.813l-.438-.758.758-.437.438.758-.758.437zM3.063 10.938h.874v.874h-.874v-.874zm0 1.75h.874v.874h-.874v-.874zm0 1.75h.874v.874h-.874v-.874zm0 1.75h.874v.875h-.874v-.875zM6.322 21.177l.758.437-.438.758-.757-.437.437-.758zM7.823 22.042l.758.438-.438.758-.758-.438.438-.758zM9.364 22.93l.758.436-.437.759-.758-.437.437-.758zM10.867 23.803l.758.438-.437.758-.758-.438.437-.758zM17.145 23.807l.438.758-.758.437-.438-.758.758-.437zM18.648 22.916l.438.758-.757.438-.439-.758.758-.438zM20.178 22.063l.439.757-.758.438-.438-.757.758-.439zM21.69 21.178l.438.758-.758.438-.438-.758.758-.438zM14 0c-.963 0-1.75.787-1.75 1.75 0 .831.569 1.487 1.313 1.706V8.75h.874V3.456c.744-.175 1.313-.875 1.313-1.706C15.75.787 14.963 0 14 0zm0 2.625a.878.878 0 0 1-.875-.875c0-.481.394-.875.875-.875s.875.394.875.875a.878.878 0 0 1-.875.875zm-10.938 7c.438 0 .875-.175 1.182-.438L9.187 11.9l.438-.787-4.856-2.67c.043-.174.087-.35.087-.568 0-.963-.787-1.75-1.75-1.75-.962 0-1.75.787-1.75 1.75s.744 1.75 1.706 1.75zm0-2.625c.482 0 .875.394.875.875a.878.878 0 0 1-.875.875.878.878 0 0 1-.875-.875c0-.481.394-.875.875-.875zm21.876 11.375c-.438 0-.875.175-1.182.438L18.812 16.1l-.437.787 4.9 2.67c-.044.174-.087.35-.087.568 0 .962.787 1.75 1.75 1.75.962 0 1.75-.788 1.75-1.75s-.788-1.75-1.75-1.75zm0 2.625a.878.878 0 0 1-.875-.875c0-.481.393-.875.875-.875.48 0 .875.394.875.875a.878.878 0 0 1-.875.875zm-10.5 3.544V19.25h-.876v5.294c-.743.175-1.312.875-1.312 1.706 0 .962.787 1.75 1.75 1.75s1.75-.788 1.75-1.75c0-.831-.569-1.488-1.313-1.706zM14 27.125a.878.878 0 0 1-.875-.875c0-.481.394-.875.875-.875s.875.394.875.875a.878.878 0 0 1-.875.875z" fill="#fff"/>
    <path d="M14 22.313a8.312 8.312 0 1 0 0-16.625 8.312 8.312 0 0 0 0 16.625z" fill="#fff"/>
    <path d="M14 8.313A5.676 5.676 0 0 0 8.312 14 5.676 5.676 0 0 0 14 19.688 5.676 5.676 0 0 0 19.688 14 5.676 5.676 0 0 0 14 8.312zm2.144 6.824c.044-.35.044-.743.044-1.137s0-.787-.044-1.137c1.75.262 2.669.83 2.669 1.137 0 .35-.92.875-2.67 1.137zM14 18.813c-.35 0-.875-.918-1.137-2.668.35.044.743.044 1.137.044s.787 0 1.137-.044c-.262 1.75-.787 2.669-1.137 2.669zm0-3.5c-.438 0-.875 0-1.269-.043-.043-.394-.043-.832-.043-1.269 0-.438 0-.875.043-1.269.394-.043.832-.043 1.269-.043.438 0 .875 0 1.269.043.043.394.043.832.043 1.269 0 .438 0 .875-.043 1.269-.394.043-.832.043-1.269.043zM9.187 14c0-.35.92-.875 2.67-1.137-.044.35-.044.743-.044 1.137s0 .787.043 1.137c-1.75-.262-2.668-.787-2.668-1.137zM14 9.187c.35 0 .875.92 1.137 2.67-.35-.044-.743-.044-1.137-.044s-.787 0-1.137.043c.262-1.75.787-2.668 1.137-2.668zm4.637 3.5c-.656-.35-1.575-.568-2.58-.743-.132-1.007-.394-1.925-.744-2.582a4.883 4.883 0 0 1 3.324 3.325zm-5.95-3.324c-.35.656-.568 1.575-.743 2.58-1.007.132-1.925.395-2.582.745a4.883 4.883 0 0 1 3.325-3.325zm-3.324 5.95c.656.35 1.575.568 2.58.743.132 1.006.395 1.925.745 2.581a4.883 4.883 0 0 1-3.325-3.325zm5.95 3.324c.35-.656.568-1.575.743-2.58 1.006-.132 1.925-.394 2.581-.744a4.884 4.884 0 0 1-3.325 3.324z" fill="#3BBBAC"/>
</svg>
