<svg xmlns="http://www.w3.org/2000/svg" width="161.928" height="157.8" viewBox="0 0 161.928 157.8">
  <g id="_404-error-in-document" data-name="404-error-in-document" transform="translate(-1329.452 -609)">
    <path id="Path_348" data-name="Path 348" d="M1466.521,863.812a1.332,1.332,0,1,1,1.332-1.332A1.333,1.333,0,0,1,1466.521,863.812Zm0-1.952a.62.62,0,1,0,.62.62A.621.621,0,0,0,1466.521,861.86Zm-25.35,39.688a.305.305,0,0,0-.418-.107l-1.015.6-.6-1.014a.306.306,0,1,0-.526.311l.6,1.014-1.014.6a.306.306,0,0,0,.311.526l1.014-.6.6,1.015a.306.306,0,0,0,.323.144.291.291,0,0,0,.1-.037.306.306,0,0,0,.108-.419l-.6-1.014,1.014-.6A.307.307,0,0,0,1441.171,901.548Zm2.572,6.717a1.332,1.332,0,1,1,1.332-1.332A1.333,1.333,0,0,1,1443.743,908.265Zm0-1.952a.62.62,0,1,0,.62.62A.621.621,0,0,0,1443.743,906.313Zm41.66,44.136a.306.306,0,0,0-.141.409l.516,1.059-1.06.516a.306.306,0,0,0,.268.55l1.059-.516.516,1.059a.306.306,0,0,0,.55-.268l-.516-1.059,1.06-.516a.306.306,0,0,0,.17-.31.31.31,0,0,0-.029-.1.306.306,0,0,0-.409-.141l-1.059.516-.516-1.059A.306.306,0,0,0,1485.4,950.45Zm-27.687,26.145a1.332,1.332,0,1,1,1.332-1.332A1.333,1.333,0,0,1,1457.716,976.595Zm0-1.952a.62.62,0,1,0,.62.62A.621.621,0,0,0,1457.716,974.643Zm-128.048-8.523a.305.305,0,0,0-.024.432l.787.877-.877.787a.306.306,0,1,0,.408.455l.877-.787.787.877a.306.306,0,1,0,.455-.408l-.787-.877.877-.787a.306.306,0,0,0,.078-.345.3.3,0,0,0-.055-.087.305.305,0,0,0-.432-.023l-.877.787-.787-.877A.3.3,0,0,0,1329.668,966.12ZM1355.6,987.8a1.332,1.332,0,1,1,1.332-1.331A1.333,1.333,0,0,1,1355.6,987.8Zm0-1.952a.62.62,0,1,0,.62.62A.621.621,0,0,0,1355.6,985.846Zm-24.11-100.479a.306.306,0,0,0-.014.432l.806.859-.859.806a.306.306,0,0,0,.418.446l.859-.806.806.859a.306.306,0,0,0,.446-.418l-.806-.859.859-.806a.306.306,0,0,0,.07-.346.3.3,0,0,0-.057-.086.306.306,0,0,0-.432-.014l-.859.806-.806-.859A.3.3,0,0,0,1331.488,885.367Zm8.905,9.3a1.332,1.332,0,1,1,1.332-1.332A1.333,1.333,0,0,1,1340.393,894.665Zm0-1.952a.62.62,0,1,0,.62.62A.621.621,0,0,0,1340.393,892.713Zm148.957,3.836a.305.305,0,0,0-.2.119.3.3,0,0,0-.057.227l.168,1.166-1.166.168a.306.306,0,0,0,.087.605l1.166-.168.168,1.166a.306.306,0,0,0,.547.139.3.3,0,0,0,.057-.227l-.168-1.166,1.167-.168a.307.307,0,0,0,.257-.243.319.319,0,0,0,0-.1.306.306,0,0,0-.346-.259l-1.166.168-.168-1.166A.305.305,0,0,0,1489.35,896.55Zm-94.678-53.881a.305.305,0,0,0-.336.272l-.125,1.172-1.172-.125a.306.306,0,1,0-.065.608l1.172.125-.125,1.172a.306.306,0,1,0,.608.065l.125-1.172,1.172.125a.306.306,0,0,0,.308-.173.286.286,0,0,0,.028-.1.306.306,0,0,0-.272-.336l-1.172-.125.125-1.172A.307.307,0,0,0,1394.672,842.669Z" transform="translate(0 -220.998)" fill="#3bbbac"/>
    <g id="Group_145" data-name="Group 145" transform="translate(1345.983 609)">
      <path id="Path_349" data-name="Path 349" d="M2877.331,609a5.532,5.532,0,0,0-5.532,5.532v51.107a7.261,7.261,0,0,1-7.261,7.261H2828.48V615.859a6.859,6.859,0,0,1,6.86-6.859Z" transform="translate(-2763.737 -609)" fill="#f2f2f2"/>
      <path id="Path_350" data-name="Path 350" d="M3173.885,1153.962H3155.56v-30.789a5.532,5.532,0,1,1,11.064,0V1146.7A7.261,7.261,0,0,0,3173.885,1153.962Z" transform="translate(-3073.083 -1090.063)" fill="#dedede"/>
      <path id="Path_351" data-name="Path 351" d="M1993.174,1117.64a5.532,5.532,0,0,0-5.532,5.532v103a6.86,6.86,0,0,1-6.859,6.859h-53.234a6.859,6.859,0,0,1-6.859-6.859V1124.5a6.859,6.859,0,0,1,6.859-6.859Z" transform="translate(-1905.166 -1090.063)" fill="#f2f2f2"/>
      <path id="Path_352" data-name="Path 352" d="M1709.977,3052.985h-68.758a6.859,6.859,0,0,1-6.859-6.859v-4.206h68.758v4.206A6.859,6.859,0,0,0,1709.977,3052.985Z" transform="translate(-1634.36 -2910.012)" fill="#dedede"/>
      <line id="Line_13" data-name="Line 13" x2="23.265" transform="translate(64.743 27.778)" fill="none" stroke="#dedede" stroke-miterlimit="10" stroke-width="5"/>
    </g>
    <g id="Group_146" data-name="Group 146" transform="translate(1415.042 694.288)">
      <path id="Path_354" data-name="Path 354" d="M3351.071,2625.041h0a2.609,2.609,0,0,1-3.689,0l-15.839-15.839-2.012-2.013a13,13,0,0,0,3.689-3.689l17.852,17.852A2.609,2.609,0,0,1,3351.071,2625.041Z" transform="translate(-3306.68 -2580.65)" fill="#9c9c9c"/>
      <path id="Path_355" data-name="Path 355" d="M3348.019,2618.3l4.127,4.127a13.01,13.01,0,0,1-3.689,3.689h0l-2.115-2.115-2.013-2.013A13.008,13.008,0,0,0,3348.019,2618.3Z" transform="translate(-3320.678 -2594.648)" fill="#5e5e5e"/>
      <path id="Path_356" data-name="Path 356" d="M2939.544,2197.116a15.734,15.734,0,0,0-31.454.678,15.981,15.981,0,0,0,.1,1.78,15.62,15.62,0,0,0,1.506,5.151h0a15.791,15.791,0,0,0,4.8,5.74q.494.364,1.017.691a15.744,15.744,0,0,0,17.44-.544h0a15.8,15.8,0,0,0,3.689-3.688h0a15.656,15.656,0,0,0,2.917-9.128C2939.558,2197.568,2939.553,2197.341,2939.544,2197.116Zm-15.719,13.613a12.921,12.921,0,0,1-12.935-12.935,12.941,12.941,0,0,1,14.622-12.825,12.937,12.937,0,0,1,11.248,12.826c0,.2,0,.393-.014.587a12.861,12.861,0,0,1-2.117,6.528,13.024,13.024,0,0,1-3.689,3.689q-.539.355-1.115.658a12.884,12.884,0,0,1-6,1.472Z" transform="translate(-2908.09 -2182.06)" fill="#b8b8b8"/>
      <path id="Path_357" data-name="Path 357" d="M2996.568,2281.756a1.208,1.208,0,0,1-1.208-1.208,11.218,11.218,0,0,1,11.218-11.218,1.208,1.208,0,0,1,0,2.416,8.8,8.8,0,0,0-8.8,8.8A1.208,1.208,0,0,1,2996.568,2281.756Z" transform="translate(-2990.628 -2264.598)" fill="#fff"/>
    </g>
  </g>
</svg>
