<svg width="28" height="28" viewBox="0 0 28 28" fill="none" xmlns="http://www.w3.org/2000/svg">
    <g clip-path="url(#lqqjl5ntsa)" fill="#fff">
        <path d="M24.34 7.225a3.609 3.609 0 0 0 3.605-3.613A3.609 3.609 0 0 0 24.34 0a3.609 3.609 0 0 0-3.604 3.612 3.609 3.609 0 0 0 3.604 3.613zM19.654 20.254h2.32v2.324h-2.32v-2.324zm-4.22-12.64a2.45 2.45 0 0 1 3.259 0l.646.575V6.137c0-3.38-2.743-6.129-6.115-6.129-2.954 0-5.425 2.11-5.993 4.904.928 1.414 2.556 4.176 3.252 7.104l4.95-4.401z"/>
        <path d="M27.181 26.349h-1.13v-7.807l.532.474a.814.814 0 0 0 1.156-.07.822.822 0 0 0-.069-1.158l-2.4-2.133v-4.252a.82.82 0 1 0-1.638 0v2.796l-6.026-5.357a.817.817 0 0 0-1.086 0L6.456 17.788c-.338.301-.37.82-.07 1.159.301.338.819.37 1.157.069l.533-.474v7.806H5.433V22.77a3.24 3.24 0 0 0 1.005-.524v-1.447a2.456 2.456 0 0 1-1.276-.762 2.468 2.468 0 0 1 .207-3.475l3.696-3.285c-.622-3.977-3.649-8.123-3.792-8.317a.818.818 0 0 0-1.317 0c-.16.217-3.903 5.345-3.903 9.674 0 2.113.42 4.112 1.184 5.63.673 1.338 1.563 2.202 2.559 2.506v3.58H.819a.82.82 0 0 0-.819.82c0 .453.367.82.819.831H27.18a.836.836 0 0 0 .82-.83.82.82 0 0 0-.82-.821zm-9.164-6.915a.82.82 0 0 1 .819-.82h3.956a.82.82 0 0 1 .819.82v3.964a.82.82 0 0 1-.819.821h-3.956a.82.82 0 0 1-.819-.82v-3.965zm-4.483 6.915v-6.095h-1.638v6.095H10.26v-6.915a.82.82 0 0 1 .819-.82h3.274a.82.82 0 0 1 .82.82v6.915h-1.638z"/>
    </g>
    <defs>
        <clipPath id="lqqjl5ntsa">
            <path fill="#fff" d="M0 0h28v28H0z"/>
        </clipPath>
    </defs>
</svg>
