<svg width="28" height="28" viewBox="0 0 28 28" fill="none" xmlns="http://www.w3.org/2000/svg">
    <path d="m6.08 21.027 2.947 5.204a1.342 1.342 0 0 0 1.696.572l1.776-.756a1.347 1.347 0 0 0 .64-1.9l-2.84-5.012c2.213-1.012 4.368-1.542 6.688-.876l.036.076c.384.804 1.266 1.09 2.004.76a1.507 1.507 0 0 0 .744-2l-1.616-3.544a2.692 2.692 0 0 0 .432-2.916 2.691 2.691 0 0 0-2.484-1.584H16.1l-1.616-3.544a1.51 1.51 0 0 0-2.004-.744c-.709.328-1.114 1.175-.72 2.052l.016.032v.004c-.683 1.484-1.784 2.623-3.196 3.496 0 0-.004 0-.008.004-1.12.74-1.53.818-5.652 2.728a2.84 2.84 0 0 0-1.404 3.756l1.212 2.64a2.835 2.835 0 0 0 3.352 1.552zM17.87 10.959c.268.584.22 1.244-.092 1.772l-1.304-2.86a1.896 1.896 0 0 1 1.396 1.088zm-5.676-3.192 4.372 9.576c-2.02-.412-3.788 0-5.408.568l-2.932-6.428c1.484-.852 2.952-1.92 3.968-3.716zM9.567 19.47l2.876 5.072a.54.54 0 0 1-.26.768l-1.776.756a.543.543 0 0 1-.684-.232l-2.896-5.112 2.74-1.252zm8.156-12.612 1.664-.744 2.312.504a.9.9 0 0 0 1.072-.688l.608-2.792a.906.906 0 0 0-.688-1.072l-4.396-.956a.9.9 0 0 0-1.076.684l-.608 2.792a.907.907 0 0 0 .692 1.076l.336.072-.196.9a.199.199 0 0 0 .28.224zm1.4-4.116a.723.723 0 0 1 1.028.184c.012.016.02.036.028.052a.72.72 0 0 1 1.068.196c.204.34.068.78-.26 1l-1.036.684a.216.216 0 0 1-.296-.06l-.684-1.036c-.216-.328-.168-.788.152-1.02zm1.752 13.472.296.104-.28.796a.185.185 0 0 0 .228.236l1.6-.492 2.052.72a.83.83 0 0 0 1.056-.508l.864-2.476a.827.827 0 0 0-.504-1.052l-3.9-1.364a.826.826 0 0 0-1.056.504l-.868 2.472a.833.833 0 0 0 .512 1.06zm1.748-.904.424-1.208c.064-.18.3-.216.416-.064l.68.916c.1.136.032.332-.132.372l-1.104.292a.236.236 0 0 1-.284-.308zm.628-4.244 1.028-.752 1.656.004a.63.63 0 0 0 .628-.628l.008-1.996a.633.633 0 0 0-.628-.632L22.8 7.055a.63.63 0 0 0-.636.628l-.004 1.996c0 .348.28.632.632.632h.24l-.004.644c0 .123.145.178.224.112zm.44-2.852h1.516c.22 0 .4.18.4.4 0 .22-.18.4-.4.4h-1.516c-.224 0-.4-.18-.4-.4 0-.22.176-.4.4-.4z" fill="#fff"/>
</svg>
