<svg width="32" height="32" viewBox="0 0 32 32" fill="none" xmlns="http://www.w3.org/2000/svg">
<g clip-path="url(#clip0_106_415)">
<path d="M14.1705 12.0337C13.5696 11.3933 12.7161 10.9927 11.7687 10.9927H0V30.173H12.8986C14.0137 30.173 14.9089 30.953 15.0625 32V19.2552L11.7948 20.2052L14.1705 12.0337ZM3.512 15.0631H8.58981V16.938H3.512V15.0631ZM3.512 18.8132H8.58981V20.6881H3.512V18.8132ZM11.9337 22.5632V24.4382H3.512V22.5632H11.9337ZM16.9375 18.7101V32C17.0199 31.5632 17.2317 31.1349 17.5546 30.8125C17.9678 30.4 18.5114 30.173 19.0874 30.173H32V10.9927H27.1676L20.4802 17.6801L16.9375 18.7101ZM27.6592 0.743742L26.5376 1.8653L30.1347 5.46231L31.2563 4.34081C32.2479 3.34912 32.2479 1.73549 31.2563 0.743742C30.2646 -0.247883 28.6509 -0.247945 27.6592 0.743742ZM23.8425 4.55974L25.2087 3.19355L28.8052 6.79012L27.439 8.15631L23.8425 4.55974ZM17.0181 11.3832L22.5162 5.88506L26.1127 9.48162L20.6146 14.9797L17.0181 11.3832Z" fill="#3BBBAC"/>
<path d="M15.8244 12.8373L14.4561 17.5439L19.1627 16.1756L15.8244 12.8373Z" fill="#3BBBAC"/>
</g>
<defs>
<clipPath id="clip0_106_415">
<rect width="32" height="32" fill="white"/>
</clipPath>
</defs>
</svg>
