<svg width="24" height="24" viewBox="0 0 24 24" fill="none" xmlns="http://www.w3.org/2000/svg">
    <g clip-path="url(#6tvrvqzzxa)">
        <path d="M18.247 15.877c-.785-.775-1.763-.775-2.542 0-.595.589-1.189 1.178-1.773 1.777-.16.165-.295.2-.49.09-.384-.21-.794-.38-1.163-.609-1.723-1.084-3.167-2.477-4.445-4.045-.635-.78-1.199-1.613-1.593-2.552-.08-.19-.065-.315.09-.47.594-.574 1.173-1.163 1.757-1.753.815-.819.815-1.778-.005-2.602-.464-.47-.928-.929-1.393-1.398-.48-.48-.954-.964-1.438-1.438-.784-.764-1.763-.764-2.542.005-.6.589-1.174 1.193-1.783 1.773-.565.534-.85 1.188-.91 1.952-.094 1.244.21 2.417.64 3.561.88 2.367 2.218 4.47 3.84 6.398 2.193 2.607 4.81 4.67 7.871 6.158 1.379.669 2.807 1.183 4.36 1.268 1.07.06 1.998-.21 2.742-1.044.51-.57 1.084-1.088 1.623-1.633.8-.809.804-1.788.01-2.587a768.058 768.058 0 0 0-2.856-2.852zm-.954-3.98 1.843-.316a8.237 8.237 0 0 0-2.303-4.444 8.192 8.192 0 0 0-4.694-2.343l-.26 1.853a6.356 6.356 0 0 1 3.636 1.813 6.355 6.355 0 0 1 1.778 3.436zm2.881-8.012A13.589 13.589 0 0 0 12.384 0l-.26 1.853a11.782 11.782 0 0 1 6.732 3.356 11.773 11.773 0 0 1 3.301 6.367L24 11.262a13.688 13.688 0 0 0-3.826-7.377z" fill="#989898"/>
    </g>
    <defs>
        <clipPath id="6tvrvqzzxa">
            <path fill="#fff" d="M0 0h24v24H0z"/>
        </clipPath>
    </defs>
</svg>
