<svg xmlns="http://www.w3.org/2000/svg" width="102" height="101.292" viewBox="0 0 102 101.292">
  <g id="error" transform="translate(-6 -6.697)">
    <path id="Path_106" data-name="Path 106" d="M97.576,100.845a25.792,25.792,0,0,1,16.322,4.186c3.566,2.377,6.336,5.8,9.9,8.182,2.823,1.893,6.075,3.089,8.839,5.067a19.31,19.31,0,0,1,7.1,20.59c-.953,3.24-2.758,6.169-3.823,9.374-1.159,3.486-1.422,7.242-2.774,10.659a21.718,21.718,0,0,1-8.835,10.139,37.514,37.514,0,0,1-12.758,4.712c-13.411,2.632-27.887.377-39.392-7-5.814-3.727-10.969-8.929-13.187-15.471s-.951-14.517,4.235-19.08a18.793,18.793,0,0,0,2.878-2.662,14,14,0,0,0,1.832-4.92c3.4-12.866,16.4-22.848,29.668-23.776Z" transform="translate(-41.327 -74.886)" fill="rgba(255,145,146,0.16)"/>
    <path id="Path_107" data-name="Path 107" d="M18.2,186.783a6.775,6.775,0,0,0,6.769,6.769H46.083a6.775,6.775,0,0,0,6.769-6.769,6.7,6.7,0,0,0-1.385-4.1,6.827,6.827,0,0,0-3.5-2.4l-.428-.124.022-.445.006-.11c0-.055.008-.108.008-.155a5.294,5.294,0,0,0-6.967-5.031l-.388.129-.243-.328a8.739,8.739,0,0,0-7.091-3.59,8.832,8.832,0,0,0-8.821,8.821c0,.012,0,.024,0,.037,0,.033,0,.065,0,.1l.008.467-.459.092a6.789,6.789,0,0,0-5.418,6.636Z" transform="translate(-9.711 -130.491)" fill="#fafcff"/>
    <path id="Path_108" data-name="Path 108" d="M43.732,171.454a9.407,9.407,0,0,0-3.454-2.776,7.837,7.837,0,0,0-7.719-6.736,7.991,7.991,0,0,0-1.124.082,11.439,11.439,0,0,0-3.082-2.344,11.3,11.3,0,0,0-16.412,8.739,9.259,9.259,0,0,0,3.317,17.9H36.372a9.269,9.269,0,0,0,9.258-9.258A9.159,9.159,0,0,0,43.732,171.454Zm-7.36,12.379H15.258a6.769,6.769,0,0,1-1.348-13.4l.459-.092-.008-.467c0-.033,0-.067,0-.1,0-.012,0-.024,0-.037a8.832,8.832,0,0,1,8.821-8.821,8.742,8.742,0,0,1,7.091,3.59l.243.328.388-.129a5.294,5.294,0,0,1,6.967,5.031c0,.047,0,.1-.008.155l-.006.11-.022.445.428.124a6.827,6.827,0,0,1,3.5,2.4,6.7,6.7,0,0,1,1.385,4.1A6.779,6.779,0,0,1,36.372,183.832Z" transform="translate(0 -120.772)" fill="#d4d4e6"/>
    <path id="Path_109" data-name="Path 109" d="M358.591,125.733a6.777,6.777,0,0,1-6.769,6.769H330.709a6.775,6.775,0,0,1-6.769-6.769,6.7,6.7,0,0,1,1.385-4.1,6.827,6.827,0,0,1,3.5-2.4l.428-.124-.022-.445-.006-.11c0-.055-.008-.108-.008-.155a5.294,5.294,0,0,1,6.967-5.031l.388.129.243-.328a8.739,8.739,0,0,1,7.091-3.59,8.832,8.832,0,0,1,8.821,8.821c0,.012,0,.024,0,.037,0,.033,0,.065,0,.1l-.008.467.459.092a6.792,6.792,0,0,1,5.418,6.636Z" transform="translate(-253.08 -81.895)" fill="#fafcff"/>
    <path id="Path_110" data-name="Path 110" d="M111.622,116.022a9.269,9.269,0,0,0,9.258,9.258h21.114a9.258,9.258,0,0,0,3.317-17.9A11.3,11.3,0,0,0,128.9,98.639a11.439,11.439,0,0,0-3.082,2.344,7.7,7.7,0,0,0-1.124-.082,7.837,7.837,0,0,0-7.719,6.736,9.387,9.387,0,0,0-3.454,2.776,9.158,9.158,0,0,0-1.9,5.608Zm2.489,0a6.7,6.7,0,0,1,1.385-4.1,6.827,6.827,0,0,1,3.5-2.4l.428-.124-.022-.445-.006-.11c0-.055-.008-.108-.008-.155a5.294,5.294,0,0,1,6.967-5.031l.388.129.243-.328A8.813,8.813,0,0,1,142.9,108.69c0,.012,0,.024,0,.037,0,.033,0,.065,0,.1l-.008.467.459.092a6.769,6.769,0,0,1-1.348,13.4H120.881a6.773,6.773,0,0,1-6.771-6.767ZM72.58,156.481l-.322-1.7a.424.424,0,0,0-.445-.343l-.9.061a4.981,4.981,0,0,0-.6-.912l.416-.8a.426.426,0,0,0-.137-.545l-1.432-.975a.423.423,0,0,0-.557.071l-.6.681a4.89,4.89,0,0,0-1.067-.222l-.273-.863a.424.424,0,0,0-.481-.288l-1.7.322a.424.424,0,0,0-.343.445l.061.9a4.982,4.982,0,0,0-.912.6l-.8-.416a.426.426,0,0,0-.545.137l-.977,1.432a.423.423,0,0,0,.071.557l.681.6a4.891,4.891,0,0,0-.222,1.067l-.863.273a.424.424,0,0,0-.288.481l.322,1.7a.424.424,0,0,0,.445.343l.9-.061a4.982,4.982,0,0,0,.6.912l-.416.8a.426.426,0,0,0,.137.545l1.432.977a.423.423,0,0,0,.557-.071l.6-.681a4.891,4.891,0,0,0,1.067.222l.273.863a.422.422,0,0,0,.481.288l1.7-.322a.424.424,0,0,0,.343-.445l-.059-.9a4.981,4.981,0,0,0,.912-.6l.8.416a.426.426,0,0,0,.545-.137l.977-1.432a.423.423,0,0,0-.071-.557l-.681-.6a4.891,4.891,0,0,0,.222-1.067l.863-.273A.425.425,0,0,0,72.58,156.481Zm-5.771,2.12a1.859,1.859,0,1,1,1.481-2.173A1.861,1.861,0,0,1,66.809,158.6Zm76.875-8.688-.322-1.7a.424.424,0,0,0-.445-.343l-.9.061a4.982,4.982,0,0,0-.6-.912l.416-.8a.426.426,0,0,0-.137-.545l-1.432-.975a.423.423,0,0,0-.557.071l-.6.681a4.889,4.889,0,0,0-1.067-.222l-.273-.863a.424.424,0,0,0-.481-.288l-1.7.322a.424.424,0,0,0-.343.445l.061.9a4.981,4.981,0,0,0-.912.6l-.8-.416a.426.426,0,0,0-.545.137l-.977,1.432a.423.423,0,0,0,.071.557l.681.6a4.889,4.889,0,0,0-.222,1.067l-.863.273a.424.424,0,0,0-.288.481l.322,1.7a.424.424,0,0,0,.445.343l.9-.061a4.982,4.982,0,0,0,.6.912l-.416.8a.426.426,0,0,0,.137.545l1.432.977a.423.423,0,0,0,.557-.071l.6-.681a4.89,4.89,0,0,0,1.067.222l.273.863a.422.422,0,0,0,.481.288l1.7-.322a.424.424,0,0,0,.343-.445l-.059-.9a4.983,4.983,0,0,0,.912-.6l.8.416a.426.426,0,0,0,.545-.137l.977-1.432a.423.423,0,0,0-.071-.557l-.681-.6a4.89,4.89,0,0,0,.222-1.067l.863-.273A.426.426,0,0,0,143.684,149.912Zm-5.771,2.12a1.859,1.859,0,1,1,1.481-2.173A1.861,1.861,0,0,1,137.913,152.032Z" transform="translate(-43.251 -72.184)" fill="#d4d4e6"/>
    <circle id="Ellipse_24" data-name="Ellipse 24" cx="3.339" cy="3.339" r="3.339" transform="matrix(0.707, -0.707, 0.707, 0.707, 18.486, 103.266)" fill="#d4d4e6"/>
    <circle id="Ellipse_25" data-name="Ellipse 25" cx="4.357" cy="4.357" r="4.357" transform="matrix(0.707, -0.707, 0.707, 0.707, 69.492, 12.859)" fill="#d4d4e6"/>
    <path id="Path_111" data-name="Path 111" d="M83.507,74.726a7.108,7.108,0,0,1-6.232-6.23.432.432,0,0,0-.857,0,7.108,7.108,0,0,1-6.232,6.23.433.433,0,0,0,0,.859,7.11,7.11,0,0,1,6.232,6.232.432.432,0,0,0,.857,0,7.112,7.112,0,0,1,6.232-6.232A.433.433,0,0,0,83.507,74.726Z" transform="translate(-50.791 -48.891)" fill="#ff9192"/>
    <path id="Path_112" data-name="Path 112" d="M441.647,395.056a7.108,7.108,0,0,1-6.232-6.23.432.432,0,0,0-.857,0,7.108,7.108,0,0,1-6.232,6.23.433.433,0,0,0,0,.859,7.11,7.11,0,0,1,6.232,6.232.432.432,0,0,0,.857,0,7.112,7.112,0,0,1,6.232-6.232A.433.433,0,0,0,441.647,395.056Z" transform="translate(-335.87 -303.874)" fill="#ff9192"/>
    <path id="Path_113" data-name="Path 113" d="M145.158,199.772a29.483,29.483,0,1,1,20.849-8.635A29.289,29.289,0,0,1,145.158,199.772Z" transform="translate(-87.311 -106.76)" fill="#ff9192"/>
    <path id="Path_114" data-name="Path 114" d="M157.408,156.21a26.321,26.321,0,1,0,18.627,7.7A26.262,26.262,0,0,0,157.408,156.21Z" transform="translate(-99.562 -119.013)" fill="#ffabab"/>
    <path id="Path_115" data-name="Path 115" d="M174.39,260.921a26.379,26.379,0,0,0,35-.01l-6.206-30.971-11.293,9.525L180.6,229.94Z" transform="translate(-134.038 -177.702)" fill="#ff9797"/>
    <path id="Path_116" data-name="Path 116" d="M203.058,249.087a4.066,4.066,0,0,1-2.876-6.942l5.541-5.541-5.541-5.541a4.068,4.068,0,0,1,5.753-5.753l5.541,5.541,5.541-5.541a4.068,4.068,0,0,1,5.753,5.753l-5.543,5.541,5.543,5.541a4.068,4.068,0,0,1-5.753,5.753l-5.541-5.541-5.541,5.541A4.056,4.056,0,0,1,203.058,249.087Z" transform="translate(-153.62 -173.071)" fill="#ff9192"/>
    <path id="Path_117" data-name="Path 117" d="M209.768,232.55a2.347,2.347,0,0,0-1.661,4.007l6.149,6.149a.857.857,0,0,1,0,1.216l-6.149,6.149a2.348,2.348,0,1,0,3.319,3.321l6.149-6.151a.885.885,0,0,1,1.216,0l6.149,6.151a2.348,2.348,0,0,0,3.321-3.319l-6.151-6.149a.857.857,0,0,1,0-1.216l6.151-6.149a2.348,2.348,0,0,0-3.321-3.321l-6.149,6.149a.858.858,0,0,1-1.216,0l-6.149-6.149A2.334,2.334,0,0,0,209.768,232.55Z" transform="translate(-160.33 -179.779)" fill="#eef6ff"/>
  </g>
</svg>
