<svg width="260" height="260" viewBox="0 0 260 260" fill="none" xmlns="http://www.w3.org/2000/svg">
<path d="M135.66 50.3474C133.579 50.3474 131.949 46.6471 131.949 41.9234C131.949 37.1998 133.579 33.5005 135.66 33.5005C135.859 33.5005 136.021 33.6617 136.021 33.8614C136.021 34.061 135.859 34.2222 135.66 34.2222C134.216 34.2222 132.67 37.3173 132.67 41.9245C132.67 46.5317 134.215 49.6267 135.66 49.6267C135.859 49.6267 136.021 49.7879 136.021 49.9876C136.021 50.1873 135.858 50.3474 135.66 50.3474ZM114.774 50.3474C112.693 50.3474 111.064 46.6471 111.064 41.9234C111.064 37.1998 112.693 33.5005 114.774 33.5005C114.974 33.5005 115.135 33.6617 115.135 33.8614C115.135 34.061 114.974 34.2222 114.774 34.2222C113.331 34.2222 111.784 37.3173 111.784 41.9245C111.784 46.5317 113.33 49.6267 114.774 49.6267C114.974 49.6267 115.135 49.7879 115.135 49.9876C115.135 50.1873 114.974 50.3474 114.774 50.3474ZM93.8891 50.3474C91.8081 50.3474 90.1784 46.6471 90.1784 41.9234C90.1784 37.1998 91.8081 33.5005 93.8891 33.5005C94.0888 33.5005 94.25 33.6617 94.25 33.8614C94.25 34.061 94.0888 34.2222 93.8891 34.2222C92.4456 34.2222 90.8991 37.3173 90.8991 41.9245C90.8991 46.5317 92.4446 49.6267 93.8891 49.6267C94.0888 49.6267 94.25 49.7879 94.25 49.9876C94.25 50.1873 94.0888 50.3474 93.8891 50.3474ZM73.0049 50.3474C70.9238 50.3474 69.2942 46.6471 69.2942 41.9234C69.2942 37.1998 70.9238 33.5005 73.0049 33.5005C73.2046 33.5005 73.3658 33.6617 73.3658 33.8614C73.3658 34.061 73.2046 34.2222 73.0049 34.2222C71.5614 34.2222 70.0149 37.3173 70.0149 41.9245C70.0149 46.5317 71.5603 49.6267 73.0049 49.6267C73.2046 49.6267 73.3658 49.7879 73.3658 49.9876C73.3658 50.1873 73.2035 50.3474 73.0049 50.3474ZM52.1196 50.3474C50.0386 50.3474 48.4089 46.6471 48.4089 41.9234C48.4089 37.1998 50.0386 33.5005 52.1196 33.5005C52.3193 33.5005 52.4805 33.6617 52.4805 33.8614C52.4805 34.061 52.3193 34.2222 52.1196 34.2222C50.6761 34.2222 49.1296 37.3173 49.1296 41.9245C49.1296 46.5317 50.675 49.6267 52.1196 49.6267C52.3193 49.6267 52.4805 49.7879 52.4805 49.9876C52.4805 50.1873 52.3193 50.3474 52.1196 50.3474Z" fill="black"/>
<path d="M139.651 42.0451H48.1416C41.289 42.0451 35.7334 47.6008 35.7334 54.4534V134.454C35.7334 141.307 41.289 146.863 48.1416 146.863H139.651C146.504 146.863 152.059 141.307 152.059 134.454V54.4534C152.06 47.5998 146.505 42.0451 139.651 42.0451Z" fill="white"/>
<path d="M139.651 147.222H48.1416C41.1008 147.222 35.3725 141.494 35.3725 134.453V54.4534C35.3725 47.4126 41.1008 41.6842 48.1416 41.6842H139.651C146.692 41.6842 152.42 47.4126 152.42 54.4534V134.454C152.42 141.494 146.692 147.222 139.651 147.222ZM48.1416 42.405C41.4981 42.405 36.0942 47.8098 36.0942 54.4523V134.453C36.0942 141.097 41.4991 146.501 48.1416 146.501H139.651C146.295 146.501 151.699 141.096 151.699 134.453V54.4534C151.699 47.8098 146.294 42.406 139.651 42.406H48.1416V42.405Z" fill="black"/>
<path d="M152.059 57.1605H35.7333C35.5337 57.1605 35.3725 56.9993 35.3725 56.7996C35.3725 56.5999 35.5337 56.4387 35.7333 56.4387H152.059C152.259 56.4387 152.42 56.5999 152.42 56.7996C152.42 56.9993 152.259 57.1605 152.059 57.1605ZM135.66 50.3474C135.46 50.3474 135.299 50.1862 135.299 49.9866C135.299 49.7869 135.46 49.6257 135.66 49.6257C137.103 49.6257 138.65 46.5306 138.65 41.9234C138.65 37.3162 137.104 34.2212 135.66 34.2212C135.46 34.2212 135.299 34.06 135.299 33.8603C135.299 33.6606 135.46 33.4994 135.66 33.4994C137.741 33.4994 139.37 37.1998 139.37 41.9224C139.369 46.6471 137.74 50.3474 135.66 50.3474Z" fill="black"/>
<path d="M135.435 51.8981C136.502 51.8981 137.366 51.0334 137.366 49.9668C137.366 48.9002 136.502 48.0355 135.435 48.0355C134.368 48.0355 133.504 48.9002 133.504 49.9668C133.504 51.0334 134.368 51.8981 135.435 51.8981Z" fill="black"/>
<path d="M114.774 50.3474C114.575 50.3474 114.414 50.1862 114.414 49.9866C114.414 49.7869 114.575 49.6257 114.774 49.6257C116.218 49.6257 117.764 46.5306 117.764 41.9234C117.764 37.3162 116.219 34.2212 114.774 34.2212C114.575 34.2212 114.414 34.06 114.414 33.8603C114.414 33.6606 114.575 33.4994 114.774 33.4994C116.855 33.4994 118.485 37.1998 118.485 41.9224C118.485 46.6471 116.855 50.3474 114.774 50.3474Z" fill="black"/>
<path d="M114.55 51.8981C115.616 51.8981 116.481 51.0334 116.481 49.9668C116.481 48.9002 115.616 48.0355 114.55 48.0355C113.483 48.0355 112.618 48.9002 112.618 49.9668C112.618 51.0334 113.483 51.8981 114.55 51.8981Z" fill="black"/>
<path d="M93.8891 50.3474C93.6894 50.3474 93.5282 50.1862 93.5282 49.9866C93.5282 49.7869 93.6894 49.6257 93.8891 49.6257C95.3326 49.6257 96.8791 46.5306 96.8791 41.9234C96.8791 37.3162 95.3337 34.2212 93.8891 34.2212C93.6894 34.2212 93.5282 34.06 93.5282 33.8603C93.5282 33.6606 93.6894 33.4994 93.8891 33.4994C95.9702 33.4994 97.5998 37.1998 97.5998 41.9224C97.5998 46.6471 95.9702 50.3474 93.8891 50.3474Z" fill="black"/>
<path d="M93.6655 51.8981C94.7322 51.8981 95.5968 51.0334 95.5968 49.9668C95.5968 48.9002 94.7322 48.0355 93.6655 48.0355C92.5989 48.0355 91.7343 48.9002 91.7343 49.9668C91.7343 51.0334 92.5989 51.8981 93.6655 51.8981Z" fill="black"/>
<path d="M73.0049 50.3474C72.8052 50.3474 72.644 50.1862 72.644 49.9866C72.644 49.7869 72.8052 49.6257 73.0049 49.6257C74.4484 49.6257 75.9949 46.5306 75.9949 41.9234C75.9949 37.3162 74.4494 34.2212 73.0049 34.2212C72.8052 34.2212 72.644 34.06 72.644 33.8603C72.644 33.6606 72.8052 33.4994 73.0049 33.4994C75.0859 33.4994 76.7156 37.1998 76.7156 41.9224C76.7156 46.6471 75.0849 50.3474 73.0049 50.3474Z" fill="black"/>
<path d="M72.7802 51.8981C73.8469 51.8981 74.7115 51.0334 74.7115 49.9668C74.7115 48.9002 73.8469 48.0355 72.7802 48.0355C71.7136 48.0355 70.849 48.9002 70.849 49.9668C70.849 51.0334 71.7136 51.8981 72.7802 51.8981Z" fill="black"/>
<path d="M52.1196 50.3474C51.9199 50.3474 51.7587 50.1862 51.7587 49.9866C51.7587 49.7869 51.9199 49.6257 52.1196 49.6257C53.5631 49.6257 55.1086 46.5306 55.1086 41.9234C55.1086 37.3162 53.5631 34.2212 52.1196 34.2212C51.9199 34.2212 51.7587 34.06 51.7587 33.8603C51.7587 33.6606 51.9199 33.4994 52.1196 33.4994C54.2006 33.4994 55.8303 37.1998 55.8303 41.9224C55.8303 46.6471 54.2006 50.3474 52.1196 50.3474Z" fill="black"/>
<path d="M51.895 51.8981C52.9616 51.8981 53.8262 51.0334 53.8262 49.9668C53.8262 48.9002 52.9616 48.0355 51.895 48.0355C50.8283 48.0355 49.9637 48.9002 49.9637 49.9668C49.9637 51.0334 50.8283 51.8981 51.895 51.8981Z" fill="black"/>
<path d="M53.325 134.097C53.2251 134.097 53.1451 134.015 53.1451 133.917V70.9239C53.1451 70.824 53.2262 70.7439 53.325 70.7439C53.4248 70.7439 53.5049 70.8251 53.5049 70.9239V133.917C53.5059 134.015 53.4248 134.097 53.325 134.097ZM69.5542 134.097C69.4543 134.097 69.3742 134.015 69.3742 133.917V70.9239C69.3742 70.824 69.4554 70.7439 69.5542 70.7439C69.653 70.7439 69.7341 70.8251 69.7341 70.9239V133.917C69.7341 134.015 69.653 134.097 69.5542 134.097ZM85.7823 134.097C85.6825 134.097 85.6024 134.015 85.6024 133.917V70.9239C85.6024 70.824 85.6835 70.7439 85.7823 70.7439C85.8811 70.7439 85.9622 70.8251 85.9622 70.9239V133.917C85.9622 134.015 85.8822 134.097 85.7823 134.097ZM102.01 134.097C101.911 134.097 101.831 134.015 101.831 133.917V70.9239C101.831 70.824 101.912 70.7439 102.01 70.7439C102.109 70.7439 102.19 70.8251 102.19 70.9239V133.917C102.191 134.015 102.11 134.097 102.01 134.097ZM118.24 134.097C118.14 134.097 118.06 134.015 118.06 133.917V70.9239C118.06 70.824 118.141 70.7439 118.24 70.7439C118.338 70.7439 118.42 70.8251 118.42 70.9239V133.917C118.42 134.015 118.338 134.097 118.24 134.097ZM134.468 134.097C134.368 134.097 134.288 134.015 134.288 133.917V70.9239C134.288 70.824 134.369 70.7439 134.468 70.7439C134.567 70.7439 134.648 70.8251 134.648 70.9239V133.917C134.648 134.015 134.568 134.097 134.468 134.097Z" fill="black"/>
<path d="M143.615 121.465H44.1792C44.0793 121.465 43.9993 121.384 43.9993 121.285C43.9993 121.186 44.0804 121.105 44.1792 121.105H143.615C143.714 121.105 143.795 121.186 143.795 121.285C143.795 121.384 143.713 121.465 143.615 121.465ZM143.615 83.7346H44.1792C44.0793 83.7346 43.9993 83.6534 43.9993 83.5546C43.9993 83.4558 44.0804 83.3747 44.1792 83.3747H143.615C143.714 83.3747 143.795 83.4558 143.795 83.5546C143.795 83.6534 143.713 83.7346 143.615 83.7346ZM143.615 102.6H44.1792C44.0793 102.6 43.9993 102.519 43.9993 102.42C43.9993 102.321 44.0804 102.24 44.1792 102.24H143.615C143.714 102.24 143.795 102.321 143.795 102.42C143.795 102.519 143.713 102.6 143.615 102.6Z" fill="black"/>
<path d="M120.362 130.3L125.569 138.364L140.252 131.665L136.756 123.508C134.703 120.46 118.665 127.511 120.362 130.3Z" fill="#BF92FB"/>
<path d="M125.57 138.724C125.45 138.724 125.335 138.664 125.267 138.558L120.061 130.494C120.059 130.492 120.058 130.489 120.056 130.487C119.439 129.474 120.401 128.112 122.84 126.549C126.773 124.028 135.37 120.802 137.056 123.306C137.069 123.324 137.08 123.344 137.089 123.365L140.585 131.522C140.662 131.701 140.582 131.91 140.403 131.992L125.719 138.69C125.67 138.713 125.62 138.724 125.57 138.724ZM120.669 130.108L125.703 137.906L139.782 131.483L136.439 123.684C135.207 121.989 127.747 124.259 123.226 127.158C121.298 128.393 120.319 129.523 120.669 130.108Z" fill="black"/>
<path d="M123.428 137.535C123.428 137.535 132.772 164.495 144.44 166.683C151.26 167.962 175.33 158.477 175.33 158.477L173.105 133.976C173.105 133.976 161.62 135.571 148.719 144.253L140.399 128.601C135.996 123.08 122.469 132.531 123.428 137.535Z" fill="white"/>
<path d="M145.922 167.16C145.342 167.16 144.823 167.121 144.374 167.036C132.634 164.836 123.472 138.761 123.088 137.652C123.083 137.636 123.079 137.619 123.075 137.602C122.466 134.424 127.085 129.889 131.612 127.806C135.616 125.963 138.922 126.171 140.681 128.376C140.694 128.393 140.707 128.412 140.717 128.431L148.85 143.731C161.54 135.296 172.941 133.634 173.055 133.618C173.154 133.604 173.252 133.632 173.328 133.693C173.405 133.754 173.454 133.845 173.464 133.943L175.689 158.444C175.704 158.603 175.611 158.754 175.463 158.812C174.54 159.175 154.174 167.16 145.922 167.16ZM123.778 137.441C124.114 138.395 133.33 164.232 144.507 166.328C150.773 167.498 172.363 159.242 174.947 158.239L172.78 134.394C170.707 134.758 160.311 136.887 148.92 144.553C148.834 144.61 148.73 144.629 148.631 144.603C148.532 144.578 148.448 144.512 148.4 144.423L140.095 128.8C137.909 126.102 133.647 127.663 131.912 128.461C127.188 130.635 123.322 134.906 123.778 137.441Z" fill="black"/>
<path d="M112.522 109.694L122.795 134.196C123.361 135.794 125.467 136.508 127.49 135.791C129.52 135.07 130.7 133.189 130.131 131.591L120.105 107.167C118.801 107.958 117.287 108.488 115.783 108.993C114.764 109.332 113.545 109.516 112.522 109.694Z" fill="#3BBBAC"/>
<path d="M125.9 136.431C125.408 136.431 124.928 136.355 124.48 136.204C123.485 135.866 122.766 135.197 122.455 134.318L112.189 109.834C112.146 109.734 112.153 109.618 112.206 109.521C112.258 109.426 112.351 109.358 112.459 109.339L112.86 109.271C113.772 109.115 114.806 108.939 115.669 108.651C117.257 108.117 118.673 107.614 119.918 106.859C120.009 106.804 120.119 106.791 120.218 106.825C120.318 106.858 120.399 106.933 120.438 107.031L130.464 131.455C130.733 132.21 130.675 133.043 130.307 133.819C129.814 134.856 128.831 135.698 127.611 136.132C127.046 136.33 126.466 136.431 125.9 136.431ZM113.029 109.973L123.128 134.057C123.371 134.742 123.931 135.255 124.712 135.52C125.524 135.795 126.467 135.771 127.37 135.452C128.412 135.081 129.245 134.373 129.656 133.509C129.946 132.9 129.993 132.278 129.791 131.713L119.929 107.687C118.715 108.365 117.379 108.838 115.898 109.335C114.997 109.635 113.955 109.815 113.029 109.973Z" fill="black"/>
<path d="M119.965 83.0294H100.32V102.674H119.965V83.0294Z" fill="#FEC524"/>
<path opacity="0.2" d="M93.4908 97.3939C96.6805 106.904 106.979 112.028 116.488 108.838C125.998 105.648 131.118 95.3524 127.928 85.8426C124.739 76.3329 114.445 71.2067 104.936 74.3964C95.4252 77.5861 90.3011 87.8842 93.4908 97.3939Z" fill="white"/>
<path d="M110.749 110.143C102.941 110.143 95.6998 105.115 93.1466 97.5094C89.8997 87.827 95.1361 77.3042 104.818 74.0532C114.502 70.8074 125.019 76.0438 128.267 85.7272C131.004 93.8902 127.649 103.037 120.291 107.476C119.148 108.169 117.907 108.743 116.603 109.182C115.706 109.481 114.804 109.711 113.918 109.865C112.859 110.052 111.799 110.143 110.749 110.143ZM93.8309 97.2795C96.615 105.571 105.198 110.675 113.795 109.154C114.645 109.006 115.514 108.785 116.375 108.498C117.627 108.077 118.82 107.526 119.918 106.859C126.99 102.593 130.214 93.8028 127.585 85.957C124.464 76.6511 114.355 71.6165 105.049 74.7375C95.7424 77.8617 90.7109 87.9746 93.8309 97.2795Z" fill="black"/>
<path d="M135.073 122.861L131.184 116.824C131.184 116.824 122.508 110.235 120.69 112.959C118.872 115.682 124.936 118.936 124.936 118.936L127.359 124.841C127.835 124.779 132.692 122.523 135.073 122.861Z" fill="white"/>
<path d="M127.359 125.2C127.215 125.2 127.083 125.113 127.027 124.977L124.651 119.19C123.97 118.809 120.613 116.83 120.067 114.648C119.897 113.969 120.007 113.333 120.39 112.758C120.674 112.332 121.101 112.07 121.66 111.976C124.693 111.467 131.128 116.329 131.402 116.536C131.435 116.561 131.464 116.592 131.487 116.628L135.377 122.665C135.453 122.783 135.453 122.936 135.377 123.055C135.301 123.173 135.159 123.238 135.022 123.217C133.296 122.97 130.038 124.225 128.472 124.827C127.824 125.076 127.555 125.178 127.406 125.197C127.391 125.199 127.375 125.2 127.359 125.2ZM122.17 112.657C122.033 112.657 121.903 112.666 121.78 112.687C121.42 112.747 121.162 112.901 120.992 113.158C120.721 113.563 120.648 113.993 120.767 114.473C121.284 116.543 125.069 118.598 125.108 118.619C125.182 118.659 125.239 118.723 125.271 118.8L127.57 124.4C127.745 124.336 127.982 124.245 128.214 124.155C129.755 123.563 132.463 122.522 134.392 122.469L130.916 117.075C130.337 116.641 124.923 112.657 122.17 112.657Z" fill="black"/>
<path d="M122.35 131.767C124.268 130.642 125.233 128.727 124.506 127.489C123.78 126.251 121.637 126.159 119.72 127.284C117.803 128.409 116.837 130.324 117.564 131.562C118.29 132.8 120.433 132.892 122.35 131.767Z" fill="white"/>
<path d="M119.664 132.929C118.601 132.929 117.704 132.53 117.246 131.75C116.407 130.319 117.41 128.223 119.531 126.979C120.517 126.4 121.595 126.104 122.569 126.146C123.6 126.19 124.395 126.604 124.811 127.313C125.651 128.744 124.648 130.839 122.527 132.084C121.561 132.651 120.554 132.929 119.664 132.929ZM117.868 131.386C118.483 132.433 120.449 132.468 122.162 131.462C123.874 130.458 124.803 128.724 124.19 127.678C123.902 127.188 123.316 126.901 122.538 126.866C121.701 126.829 120.765 127.091 119.896 127.601C118.184 128.606 117.255 130.339 117.868 131.386Z" fill="black"/>
<path d="M121.285 128.853C123.426 127.597 124.572 125.575 123.846 124.337C123.12 123.099 120.795 123.114 118.655 124.37C116.514 125.626 115.368 127.648 116.094 128.886C116.82 130.124 119.145 130.109 121.285 128.853Z" fill="white"/>
<path d="M118.13 130.176C117.073 130.176 116.209 129.808 115.778 129.073C115.359 128.359 115.431 127.431 115.981 126.462C116.496 125.555 117.379 124.703 118.467 124.065C120.816 122.687 123.312 122.729 124.152 124.16C124.991 125.591 123.811 127.791 121.463 129.169C120.317 129.842 119.136 130.176 118.13 130.176ZM121.811 123.787C120.928 123.787 119.85 124.09 118.831 124.688C117.851 125.264 117.06 126.021 116.608 126.819C116.191 127.555 116.116 128.227 116.4 128.709C117.015 129.756 119.165 129.682 121.098 128.548C123.03 127.415 124.144 125.573 123.53 124.525C123.239 124.031 122.605 123.787 121.811 123.787Z" fill="black"/>
<path d="M120.154 125.599C122.517 124.213 123.783 121.981 122.981 120.614C122.179 119.247 119.613 119.263 117.25 120.65C114.887 122.036 113.621 124.268 114.423 125.635C115.225 127.002 117.791 126.986 120.154 125.599Z" fill="white"/>
<path d="M116.67 127.022C115.517 127.022 114.575 126.621 114.107 125.823C113.19 124.261 114.488 121.855 117.062 120.345C118.259 119.643 119.548 119.252 120.693 119.244C120.703 119.244 120.715 119.244 120.725 119.244C121.926 119.244 122.834 119.668 123.287 120.437C123.742 121.214 123.663 122.224 123.063 123.283C122.498 124.279 121.528 125.214 120.331 125.916C119.072 126.654 117.775 127.022 116.67 127.022ZM114.729 125.458C115.417 126.631 117.815 126.556 119.966 125.294C121.055 124.655 121.933 123.814 122.435 122.927C122.903 122.102 122.984 121.347 122.664 120.802C122.347 120.262 121.659 119.966 120.724 119.966C120.715 119.966 120.706 119.966 120.696 119.966C119.676 119.972 118.515 120.328 117.425 120.967C115.276 122.228 114.04 124.285 114.729 125.458Z" fill="black"/>
<path d="M118.147 122.07C120.288 120.814 121.434 118.793 120.708 117.555C119.981 116.317 117.657 116.331 115.517 117.587C113.376 118.843 112.23 120.865 112.956 122.103C113.682 123.341 116.006 123.326 118.147 122.07Z" fill="white"/>
<path d="M114.989 123.389C113.888 123.389 113.055 123 112.639 122.292C111.8 120.86 112.98 118.661 115.329 117.283C117.677 115.906 120.173 115.948 121.012 117.379C121.431 118.093 121.36 119.021 120.81 119.99C120.295 120.897 119.412 121.749 118.323 122.387C117.234 123.026 116.06 123.381 115.017 123.388C115.008 123.389 114.998 123.389 114.989 123.389ZM118.673 117.004C117.79 117.004 116.712 117.307 115.694 117.905C113.761 119.038 112.648 120.88 113.261 121.928C113.542 122.406 114.155 122.669 114.988 122.669C114.996 122.669 115.004 122.669 115.013 122.669C115.931 122.663 116.977 122.342 117.958 121.767C118.939 121.191 119.729 120.434 120.181 119.636C120.598 118.9 120.673 118.228 120.389 117.746C120.1 117.249 119.466 117.004 118.673 117.004Z" fill="black"/>
<path d="M220.973 226.139C220.973 226.139 215 197.984 215.521 195.601C216.041 193.218 222.522 150.429 219.361 145.673C216.2 140.914 212.027 137.848 207.457 135.857C203.165 133.981 198.524 133.059 194.049 132.575C191.602 132.308 188.466 132.285 185.059 132.477C177.406 132.907 168.412 134.43 162.94 136.796L163.254 152.48C164.471 166.5 163.883 187.8 163.484 191.734C162.889 197.619 159.387 226.139 159.387 226.139H220.973Z" fill="white"/>
<path d="M185.059 132.477V132.485C185.059 132.485 184.885 140.216 191.273 141.484C197.39 142.693 204.361 140.255 207.457 135.858C203.165 133.982 198.524 133.06 194.049 132.576C191.601 132.308 188.466 132.285 185.059 132.477Z" fill="#BF92FB"/>
<path d="M159.504 226.5C159.489 226.5 159.475 226.498 159.459 226.496C159.261 226.472 159.121 226.293 159.145 226.095C159.18 225.81 162.651 197.511 163.239 191.699C163.606 188.089 164.242 166.71 163.011 152.511C162.993 152.312 163.141 152.137 163.338 152.121C163.545 152.099 163.712 152.251 163.728 152.448C164.965 166.69 164.324 188.147 163.957 191.772C163.367 197.592 159.896 225.898 159.86 226.183C159.84 226.366 159.684 226.5 159.504 226.5ZM221.087 226.5C220.921 226.5 220.771 226.383 220.735 226.214C220.49 225.061 214.753 197.953 215.284 195.522C216.002 192.242 222.182 150.398 219.176 145.872C214.18 138.353 206.22 134.241 194.125 132.933C186.279 132.083 171.059 133.73 163.199 137.127C163.017 137.205 162.804 137.122 162.725 136.939C162.646 136.756 162.73 136.544 162.913 136.465C170.872 133.026 186.269 131.358 194.203 132.215C201.959 133.054 213.046 135.341 219.777 145.472C223.061 150.415 216.412 193.741 215.989 195.675C215.575 197.568 219.784 218.252 221.441 226.064C221.483 226.258 221.358 226.45 221.163 226.491C221.137 226.497 221.112 226.5 221.087 226.5Z" fill="black"/>
<path d="M205.669 119.357C205.669 119.357 203.239 129.525 205.351 134.977C205.351 134.977 200.146 139.309 194.235 139.43C188.323 139.55 187.028 132.35 187.028 132.35C187.028 132.35 191.125 122.247 189.681 116.076C188.238 109.907 205.669 119.357 205.669 119.357Z" fill="white"/>
<path d="M194.09 139.792C188.072 139.792 186.688 132.489 186.675 132.415C186.662 132.348 186.67 132.279 186.696 132.215C186.736 132.115 190.733 122.146 189.331 116.16C189.106 115.202 189.28 114.497 189.847 114.064C192.596 111.962 204.494 118.309 205.842 119.039C205.986 119.117 206.059 119.282 206.021 119.44C205.997 119.541 203.64 129.562 205.688 134.847C205.744 134.992 205.702 135.156 205.582 135.255C205.366 135.435 200.211 139.669 194.242 139.791C194.192 139.792 194.14 139.792 194.09 139.792ZM187.404 132.386C187.583 133.257 188.972 139.07 194.089 139.07C194.135 139.07 194.182 139.07 194.227 139.069C199.312 138.965 203.924 135.627 204.922 134.858C203.113 129.763 204.883 121.206 205.255 119.544C201.531 117.55 192.258 113.13 190.283 114.637C190.164 114.729 189.8 115.005 190.032 115.995C191.427 121.947 187.852 131.254 187.404 132.386Z" fill="black"/>
<path d="M199.249 122.918C194.659 123.078 189.081 122.191 186.44 118.202C183.793 114.204 183.229 107.32 184.829 99.5977C184.829 99.5977 184.829 99.5946 184.832 99.5873C186.699 90.5559 192.332 82.291 198.489 81.8002C208.004 81.042 208.546 103.508 208.546 103.508C208.546 103.508 212.011 101.919 212.552 105.201C213.236 109.334 207.153 112.128 207.153 112.128L205.364 122.202" fill="white"/>
<path d="M198.281 123.295C194.568 123.295 188.889 122.552 186.14 118.401C183.442 114.327 182.836 107.447 184.476 99.5238H184.477C184.478 99.5166 184.48 99.5082 184.482 99.501C186.517 89.6771 192.525 81.9135 198.462 81.4403C200.127 81.3093 201.637 81.8418 202.952 83.0263C207.973 87.5524 208.775 100.26 208.89 102.996C209.529 102.796 210.669 102.564 211.599 103.059C212.302 103.432 212.743 104.133 212.909 105.142C213.571 109.142 208.508 111.863 207.478 112.372L205.72 122.264C205.685 122.46 205.496 122.59 205.302 122.557C205.106 122.521 204.976 122.335 205.01 122.139L206.8 112.064C206.821 111.948 206.897 111.849 207.004 111.8C207.062 111.773 212.828 109.071 212.196 105.259C212.068 104.486 211.754 103.959 211.261 103.696C210.232 103.147 208.71 103.828 208.696 103.836C208.584 103.887 208.457 103.878 208.355 103.813C208.252 103.748 208.188 103.637 208.185 103.516C208.182 103.365 207.758 88.3293 202.467 83.5609C201.306 82.5146 199.978 82.0414 198.517 82.159C192.886 82.6082 187.153 90.1316 185.184 99.659C185.182 99.6684 185.18 99.6767 185.178 99.6861C183.604 107.301 184.188 114.147 186.74 118.003C189.55 122.246 195.776 122.673 199.236 122.557C199.427 122.539 199.602 122.705 199.608 122.904C199.616 123.103 199.46 123.27 199.261 123.276C198.955 123.289 198.625 123.295 198.281 123.295Z" fill="black"/>
<path d="M197.31 102.498C197.388 101.713 196.964 101.029 196.362 100.969C195.761 100.909 195.21 101.497 195.132 102.282C195.054 103.066 195.479 103.751 196.08 103.811C196.681 103.87 197.232 103.283 197.31 102.498Z" fill="black"/>
<path d="M190.214 100.92C190.292 100.136 189.867 99.4511 189.266 99.3913C188.665 99.3316 188.114 99.9193 188.036 100.704C187.958 101.489 188.382 102.173 188.984 102.233C189.585 102.293 190.136 101.705 190.214 100.92Z" fill="black"/>
<path d="M195.408 98.151C195.408 98.151 197.376 97.1277 199.414 99.217Z" fill="white"/>
<path d="M199.414 99.5769C199.32 99.5769 199.227 99.5405 199.156 99.4677C197.342 97.6092 195.644 98.435 195.572 98.4714C195.396 98.5618 195.178 98.4911 195.087 98.3143C194.997 98.1375 195.066 97.9222 195.241 97.8307C195.263 97.8193 197.472 96.7096 199.672 98.9643C199.811 99.1068 199.808 99.3346 199.665 99.4739C199.596 99.5436 199.504 99.5769 199.414 99.5769Z" fill="black"/>
<path d="M187.44 97.1859C187.44 97.1859 189.409 96.1626 191.446 98.2519Z" fill="white"/>
<path d="M191.446 98.6118C191.353 98.6118 191.259 98.5754 191.188 98.5026C189.375 96.6441 187.676 97.4698 187.605 97.5062C187.428 97.5957 187.21 97.526 187.12 97.3492C187.029 97.1724 187.098 96.9571 187.274 96.8656C187.296 96.8542 189.505 95.7445 191.704 97.9992C191.844 98.1417 191.84 98.3694 191.698 98.5088C191.628 98.5774 191.538 98.6118 191.446 98.6118Z" fill="black"/>
<path d="M191.76 102.644C191.123 104.734 190.485 106.824 189.848 108.914C189.743 109.258 189.637 109.619 189.704 109.972C189.792 110.43 190.165 110.793 190.587 110.991C191.011 111.188 191.483 111.249 191.946 111.306" fill="white"/>
<path d="M191.946 111.667C191.931 111.667 191.916 111.666 191.901 111.664C191.438 111.607 190.913 111.542 190.433 111.317C189.855 111.047 189.451 110.57 189.349 110.039C189.262 109.59 189.395 109.156 189.502 108.808L191.415 102.538C191.473 102.347 191.673 102.239 191.865 102.299C192.056 102.357 192.163 102.558 192.105 102.749L190.191 109.019C190.104 109.306 190.005 109.631 190.057 109.904C190.114 110.203 190.375 110.494 190.739 110.664C191.115 110.84 191.559 110.895 191.989 110.948C192.187 110.972 192.327 111.153 192.302 111.351C192.28 111.534 192.125 111.667 191.946 111.667Z" fill="black"/>
<path d="M195.506 114.51C194.082 115.415 192.271 115.685 190.643 115.237Z" fill="white"/>
<path d="M192.227 115.809C191.661 115.809 191.095 115.735 190.549 115.586C190.357 115.533 190.244 115.334 190.297 115.143C190.349 114.95 190.549 114.838 190.74 114.891C192.267 115.312 193.977 115.055 195.313 114.207C195.48 114.098 195.704 114.149 195.81 114.318C195.917 114.486 195.867 114.709 195.699 114.815C194.671 115.467 193.447 115.809 192.227 115.809Z" fill="black"/>
<path d="M204.151 94.7076C204.921 95.0394 206.1 95.4741 206.669 96.1095C207.141 96.6316 207.019 97.1235 206.96 97.8047C206.876 98.7584 205.452 104.54 206.757 104.9C207.993 105.244 208.547 103.507 208.547 103.507C208.547 103.507 212.013 101.918 212.554 105.199C213.24 109.334 207.157 112.128 207.157 112.128C207.157 112.128 205.366 122.2 205.366 122.201C205.274 122.735 215.599 118.615 217.594 116.455C221.443 112.287 225.827 105.601 223.706 99.6601C223.172 98.1646 222.122 97.1308 221.261 95.8547C219.777 93.6551 219.231 91.6583 219.618 88.9751C219.969 86.5363 220.726 84.0486 220.134 81.6577C219.668 79.7815 218.35 78.1404 216.632 77.2533C214.914 76.3662 212.827 76.2382 211.002 76.8799C208.497 77.7608 206.408 80.0134 203.753 79.9625C201.856 79.9261 200.223 78.703 198.642 77.6537C196.584 76.2882 194.333 75.1213 191.894 74.7375C189.454 74.3538 186.791 74.8415 184.929 76.4629C183.066 78.0853 182.229 80.9484 183.328 83.1594C183.728 83.9644 184.343 84.6404 184.835 85.3934C185.326 86.1463 185.702 87.047 185.533 87.9299C185.34 88.9273 184.475 89.6875 183.523 90.0401C182.57 90.3926 181.531 90.4103 180.515 90.4228C180.179 91.2891 180.984 93.521 181.811 93.9848C186.682 96.721 202.314 93.913 204.151 94.7076Z" fill="black"/>
<path d="M205.404 122.591C205.326 122.591 205.265 122.582 205.224 122.561C205.065 122.483 204.979 122.313 205.009 122.14C205.02 122.076 206.8 112.065 206.8 112.065C206.821 111.949 206.897 111.85 207.004 111.801C207.062 111.774 212.829 109.073 212.196 105.258C212.068 104.485 211.754 103.959 211.261 103.696C210.412 103.243 209.227 103.628 208.83 103.781C208.547 104.506 207.812 105.568 206.658 105.247C205.408 104.903 205.831 102.026 206.417 98.853C206.507 98.3705 206.584 97.9524 206.599 97.7735L206.623 97.5291C206.682 96.9478 206.696 96.6774 206.4 96.3508C205.958 95.8578 205.018 95.4637 204.331 95.1756L204.007 95.0383C204.007 95.0383 204.007 95.0383 204.006 95.0383C203.438 94.7929 200.859 94.977 198.128 95.1714C192.535 95.5708 184.874 96.1189 181.632 94.2989C180.662 93.7539 179.778 91.3203 180.177 90.2918C180.23 90.1545 180.361 90.063 180.509 90.0619C181.483 90.0494 182.49 90.037 183.396 89.701C184.138 89.4254 184.996 88.7983 185.177 87.8602C185.304 87.204 185.087 86.4396 184.531 85.5899C184.356 85.3206 184.158 85.0533 183.967 84.7943C183.624 84.3326 183.271 83.8552 183.004 83.3186C181.885 81.0659 182.61 78.001 184.69 76.1894C186.488 74.6231 189.201 73.9471 191.948 74.3787C194.105 74.7188 196.295 75.6631 198.839 77.351L199.282 77.6474C200.688 78.5918 202.142 79.5683 203.758 79.5995C205.293 79.6432 206.653 78.8216 208.085 77.9657C208.974 77.4342 209.895 76.8841 210.882 76.5378C212.802 75.8628 215.012 76.0094 216.796 76.9309C218.617 77.871 219.995 79.6047 220.483 81.5693C220.959 83.487 220.603 85.4526 220.257 87.3527C220.158 87.9029 220.055 88.4718 219.975 89.025C219.614 91.5283 220.073 93.4482 221.56 95.6519C221.813 96.0274 222.09 96.3903 222.357 96.7408C222.994 97.5759 223.653 98.4391 224.045 99.5374C226.477 106.346 220.529 113.806 217.859 116.697C216.153 118.546 207.011 122.59 205.404 122.591ZM207.477 112.373C206.346 118.736 205.942 121.01 205.796 121.827C207.689 121.335 215.665 118.011 217.328 116.211C219.909 113.415 225.663 106.22 223.365 99.7818C223.01 98.7896 222.414 98.0075 221.782 97.1807C221.509 96.8219 221.225 96.4506 220.959 96.0575C219.362 93.6894 218.87 91.623 219.258 88.9242C219.34 88.3574 219.444 87.7822 219.545 87.2258C219.877 85.4006 220.219 83.513 219.78 81.745C219.342 79.9791 218.102 78.4202 216.462 77.5736C214.852 76.7416 212.854 76.6095 211.119 77.22C210.201 77.5424 209.312 78.0738 208.453 78.5866C206.997 79.456 205.496 80.3546 203.742 80.3223C201.915 80.287 200.372 79.2501 198.879 78.2475L198.439 77.9532C195.985 76.3246 193.885 75.4156 191.834 75.0932C189.295 74.6918 186.801 75.3074 185.163 76.7343C183.322 78.338 182.67 81.0306 183.647 82.9993C183.886 83.4787 184.206 83.9103 184.544 84.3669C184.741 84.6342 184.946 84.9098 185.134 85.1978C185.794 86.2098 186.047 87.152 185.883 87.9996C185.685 89.0302 184.827 89.9413 183.644 90.3791C182.718 90.7223 181.713 90.766 180.798 90.7806C180.711 91.6198 181.379 93.3327 181.983 93.6718C185.037 95.3857 192.574 94.847 198.076 94.4538C201.681 94.1959 203.594 94.0753 204.292 94.3779L204.61 94.5121C205.402 94.8438 206.387 95.2578 206.936 95.8703C207.458 96.4475 207.401 97.0091 207.34 97.604L207.317 97.838C207.298 98.0512 207.225 98.4433 207.125 98.9862C206.306 103.425 206.523 104.464 206.851 104.554C207.743 104.804 208.196 103.414 208.201 103.4C208.232 103.303 208.302 103.224 208.394 103.182C208.469 103.147 210.253 102.344 211.598 103.061C212.301 103.435 212.741 104.135 212.908 105.143C213.571 109.143 208.509 111.864 207.477 112.373Z" fill="black"/>
<path d="M151.802 156.147H105.762V202.186H151.802V156.147Z" fill="white"/>
<path d="M105.762 156.147V162.394C106.421 162.83 107.213 163.08 108.064 163.08C110.393 163.08 112.279 161.2 112.279 158.871C112.279 157.829 111.903 156.879 111.277 156.147H105.762Z" fill="#FEC524"/>
<path d="M117.582 172.935C119.908 172.935 121.793 171.05 121.793 168.724C121.793 166.399 119.908 164.513 117.582 164.513C115.257 164.513 113.371 166.399 113.371 168.724C113.371 171.05 115.257 172.935 117.582 172.935Z" fill="#FEC524"/>
<path d="M122.439 157.241C122.439 160.982 125.468 164.009 129.201 164.009C132.942 164.009 135.97 160.982 135.97 157.241C135.97 156.864 135.936 156.502 135.877 156.146H122.532C122.472 156.502 122.439 156.865 122.439 157.241ZM143.912 156.82C143.912 160.56 146.94 163.588 150.68 163.588C151.063 163.588 151.439 163.555 151.802 163.495V156.147H143.944C143.926 156.37 143.912 156.595 143.912 156.82Z" fill="#FEC524"/>
<path d="M139.773 173.413C142.486 173.413 144.686 171.213 144.686 168.5C144.686 165.786 142.486 163.587 139.773 163.587C137.06 163.587 134.86 165.786 134.86 168.5C134.86 171.213 137.06 173.413 139.773 173.413Z" fill="#FEC524"/>
<path d="M128.952 183.013C131.665 183.013 133.865 180.813 133.865 178.1C133.865 175.387 131.665 173.187 128.952 173.187C126.238 173.187 124.039 175.387 124.039 178.1C124.039 180.813 126.238 183.013 128.952 183.013Z" fill="#FEC524"/>
<path d="M105.762 175.639V183.509C106.58 184.123 107.595 184.486 108.698 184.486C111.409 184.486 113.613 182.289 113.613 179.571C113.613 176.859 111.409 174.663 108.698 174.663C107.596 174.664 106.58 175.027 105.762 175.639Z" fill="#FEC524"/>
<path d="M117.582 193.456C120.296 193.456 122.495 191.256 122.495 188.543C122.495 185.829 120.296 183.63 117.582 183.63C114.869 183.63 112.669 185.829 112.669 188.543C112.669 191.256 114.869 193.456 117.582 193.456Z" fill="#FEC524"/>
<path d="M135.393 199.014C138.107 199.014 140.306 196.815 140.306 194.101C140.306 191.388 138.107 189.188 135.393 189.188C132.68 189.188 130.48 191.388 130.48 194.101C130.48 196.815 132.68 199.014 135.393 199.014Z" fill="#FEC524"/>
<path d="M144.684 178.721C144.684 181.432 146.888 183.629 149.599 183.629C150.39 183.629 151.142 183.444 151.803 183.101V174.334C151.143 173.991 150.39 173.807 149.599 173.807C146.888 173.806 144.684 176.003 144.684 178.721ZM145.489 198.676C145.489 200.048 146.057 201.295 146.967 202.186H151.803V193.974C151.354 193.835 150.885 193.762 150.398 193.762C147.685 193.761 145.489 195.965 145.489 198.676ZM105.762 196.38V202.185H113.25C113.481 201.611 113.613 200.978 113.613 200.319C113.613 197.607 111.409 195.404 108.698 195.404C107.596 195.405 106.58 195.768 105.762 196.38Z" fill="#FEC524"/>
<path d="M151.802 202.546H105.762C105.562 202.546 105.401 202.385 105.401 202.185V156.146C105.401 155.946 105.562 155.785 105.762 155.785H151.802C152.001 155.785 152.162 155.946 152.162 156.146V202.185C152.162 202.385 152.001 202.546 151.802 202.546ZM106.123 201.826H151.442V156.506H106.123V201.826Z" fill="black"/>
<path d="M105.764 156.148H99.2347V202.185H105.764V156.148Z" fill="black"/>
<path d="M105.764 202.546H99.2347C99.035 202.546 98.8738 202.385 98.8738 202.185V156.148C98.8738 155.948 99.035 155.787 99.2347 155.787H105.764C105.964 155.787 106.125 155.948 106.125 156.148V202.185C106.125 202.385 105.964 202.546 105.764 202.546ZM99.5956 201.826H105.404V156.509H99.5956V201.826ZM126.048 156.506C126.008 156.506 125.969 156.5 125.93 156.487C125.52 156.345 115.856 152.998 113.655 150.264C112.495 148.822 112.285 146.767 113.123 145.031C113.914 143.389 115.481 142.411 117.314 142.411C117.323 142.411 117.333 142.411 117.343 142.411C123.469 142.446 126.284 155.516 126.402 156.073C126.429 156.2 126.385 156.331 126.287 156.417C126.22 156.475 126.134 156.506 126.048 156.506ZM117.313 143.132C115.741 143.132 114.451 143.937 113.772 145.344C113.054 146.831 113.229 148.585 114.217 149.812C115.983 152.005 123.352 154.79 125.547 155.585C124.903 152.966 122.17 143.158 117.338 143.131C117.33 143.132 117.321 143.132 117.313 143.132Z" fill="black"/>
<path d="M126.048 156.506C125.953 156.506 125.863 156.469 125.795 156.402C125.722 156.331 125.683 156.23 125.688 156.128C125.705 155.791 126.15 147.836 130.196 144.663C131.634 143.535 133.352 143.154 135.304 143.53C138.624 144.17 139.012 146.011 138.948 147.051C138.722 150.732 132.315 156.081 126.072 156.505C126.065 156.506 126.056 156.506 126.048 156.506ZM133.901 144.113C132.682 144.113 131.59 144.486 130.642 145.23C127.356 147.806 126.588 154.08 126.439 155.75C132.126 155.152 138.028 150.265 138.227 147.007C138.337 145.228 136.624 144.519 135.167 144.239C134.732 144.154 134.309 144.113 133.901 144.113Z" fill="black"/>
<path d="M148.44 191.574C148.44 191.574 140.199 184.86 137.437 185.85C134.675 186.84 139.297 192.01 139.297 192.01C139.297 192.01 127.184 188.229 126.048 190.065C124.913 191.901 131.93 194.104 131.93 194.104C131.93 194.104 125.668 193.856 124.545 194.956C123.423 196.057 124.56 197.447 125.817 197.73C125.817 197.73 123.085 199.568 125.984 201.166C125.984 201.166 124.254 202.588 126.961 203.85C129.668 205.113 135.703 205.902 137.781 205.893C142.651 205.87 147.244 204.318 147.244 204.318C149.035 201.104 151.128 195.116 148.44 191.574Z" fill="white"/>
<path d="M137.749 206.253C135.74 206.253 129.603 205.479 126.809 204.176C125.755 203.684 125.176 203.088 125.09 202.404C125.03 201.923 125.23 201.519 125.426 201.248C124.701 200.762 124.321 200.2 124.292 199.575C124.261 198.854 124.722 198.242 125.109 197.858C124.468 197.541 123.961 196.994 123.79 196.395C123.618 195.788 123.796 195.186 124.294 194.699C125.077 193.933 127.816 193.749 129.808 193.721C128.157 193.054 126.054 192.013 125.643 190.909C125.51 190.552 125.545 190.195 125.741 189.876C126.804 188.16 134.539 190.212 138.254 191.317C137.307 190.095 135.903 187.988 136.251 186.613C136.384 186.094 136.751 185.714 137.314 185.511C140.191 184.484 147.808 190.595 148.668 191.294C148.69 191.313 148.711 191.333 148.727 191.356C151.344 194.806 149.734 200.588 147.559 204.492C147.516 204.57 147.445 204.629 147.36 204.658C147.313 204.674 142.654 206.23 137.782 206.252C137.772 206.253 137.76 206.253 137.749 206.253ZM130.456 194.437C128.171 194.437 125.397 194.627 124.798 195.214C124.49 195.516 124.384 195.847 124.484 196.197C124.634 196.723 125.241 197.231 125.897 197.378C126.038 197.41 126.145 197.522 126.172 197.663C126.199 197.805 126.138 197.948 126.02 198.03C125.73 198.226 124.982 198.882 125.013 199.546C125.034 200.004 125.42 200.443 126.158 200.851C126.263 200.909 126.332 201.014 126.343 201.134C126.354 201.252 126.305 201.37 126.213 201.446C126.21 201.449 125.744 201.846 125.807 202.318C125.861 202.733 126.313 203.15 127.115 203.524C129.834 204.792 135.862 205.547 137.781 205.533C142.082 205.513 146.219 204.267 147 204.02C149.027 200.323 150.524 194.97 148.18 191.828C145.903 189.979 139.656 185.439 137.56 186.191C137.218 186.314 137.025 186.504 136.951 186.792C136.619 188.104 138.726 190.832 139.566 191.773C139.674 191.894 139.688 192.071 139.6 192.208C139.513 192.345 139.344 192.406 139.189 192.356C133.366 190.538 126.974 189.256 126.355 190.257C126.275 190.386 126.263 190.509 126.318 190.658C126.72 191.736 130.04 193.133 132.038 193.761C132.211 193.815 132.316 193.989 132.286 194.167C132.255 194.345 132.092 194.474 131.917 194.465C131.477 194.447 130.979 194.437 130.456 194.437Z" fill="black"/>
<path d="M131.727 198.348C131.722 198.348 131.717 198.348 131.711 198.348L125.802 198.091C125.603 198.083 125.448 197.914 125.457 197.714C125.466 197.516 125.625 197.367 125.834 197.37L131.743 197.627C131.942 197.635 132.097 197.804 132.087 198.004C132.078 198.196 131.919 198.348 131.727 198.348ZM131.93 201.628C131.928 201.628 131.926 201.628 131.924 201.628L125.977 201.526C125.779 201.523 125.62 201.359 125.623 201.159C125.626 200.962 125.787 200.804 125.984 200.804C125.986 200.804 125.988 200.804 125.99 200.804L131.936 200.906C132.135 200.909 132.294 201.074 132.291 201.273C132.287 201.471 132.126 201.628 131.93 201.628Z" fill="black"/>
<path d="M146.101 206.622L156.492 207.716L158.32 190.36L147.93 189.265C144.745 188.931 142.917 206.287 146.101 206.622Z" fill="#BF92FB"/>
<path d="M156.492 208.077C156.479 208.077 156.467 208.076 156.454 208.075L146.064 206.981C144.036 206.768 143.83 201.823 144.27 197.654C144.709 193.486 145.955 188.696 147.968 188.908L158.359 190.002C158.557 190.023 158.701 190.2 158.679 190.398L156.851 207.755C156.841 207.849 156.794 207.937 156.719 207.997C156.654 208.049 156.574 208.077 156.492 208.077ZM146.139 206.264L156.172 207.321L157.924 190.682L147.892 189.625C146.755 189.523 145.477 193.066 144.986 197.73C144.494 202.395 145.001 206.144 146.139 206.264Z" fill="black"/>
<path d="M215.907 141.364C215.907 141.364 224.561 148.364 224.258 158.763C223.963 168.939 220.245 210.712 206.378 212.921C185.278 216.283 154.897 208.89 154.897 208.89C147.837 206.785 152.911 188.902 156.08 189.093L196.848 190.795L203.77 156.034" fill="white"/>
<path d="M194.045 214.148C175.252 214.15 155.061 209.3 154.812 209.24C151.542 208.265 150.252 203.992 151.344 197.805C152.121 193.405 154.125 188.73 156.033 188.73C156.056 188.73 156.079 188.731 156.103 188.732L196.556 190.421L203.418 155.963C203.456 155.767 203.644 155.639 203.842 155.68C204.038 155.718 204.164 155.908 204.125 156.104L197.203 190.866C197.168 191.041 197.024 191.164 196.835 191.156L156.067 189.454C156.056 189.453 156.045 189.453 156.034 189.453C154.875 189.453 152.904 193.118 152.054 197.933C151.672 200.102 150.752 207.279 155.002 208.546C155.234 208.602 175.349 213.431 194.034 213.432C198.288 213.432 202.467 213.181 206.322 212.568C219.681 210.44 223.585 169.58 223.9 158.755C224.193 148.662 215.767 141.716 215.681 141.647C215.527 141.521 215.503 141.294 215.628 141.14C215.754 140.986 215.981 140.962 216.135 141.087C216.223 141.158 224.924 148.321 224.62 158.778C224.471 163.937 223.471 176.875 220.761 188.913C217.338 204.114 212.519 212.313 206.436 213.281C202.548 213.896 198.331 214.148 194.045 214.148Z" fill="black"/>
<path d="M188.287 162.507C188.241 162.507 188.195 162.499 188.15 162.48C186.654 161.867 185.213 161.101 184.807 159.664C184.549 158.752 184.801 157.799 185.002 157.035L188.526 143.67C188.577 143.477 188.776 143.364 188.966 143.413C189.158 143.464 189.274 143.66 189.223 143.853L185.699 157.218C185.511 157.933 185.297 158.745 185.501 159.467C185.84 160.664 187.186 161.305 188.424 161.813C188.608 161.887 188.697 162.099 188.621 162.283C188.563 162.423 188.429 162.507 188.287 162.507Z" fill="black"/>
<path d="M189.662 146.874C189.662 147.612 190.258 148.212 191 148.212C191.739 148.212 192.339 147.612 192.339 146.874C192.339 146.136 191.739 145.536 191 145.536C190.258 145.536 189.662 146.136 189.662 146.874Z" fill="#BF92FB"/>
<path d="M188.323 151.318C188.323 152.056 188.919 152.656 189.662 152.656C190.4 152.656 191 152.056 191 151.318C191 150.58 190.4 149.979 189.662 149.979C188.919 149.979 188.323 150.58 188.323 151.318Z" fill="#BF92FB"/>
<path d="M186.985 155.762C186.985 156.5 187.581 157.1 188.323 157.1C189.062 157.1 189.662 156.5 189.662 155.762C189.662 155.023 189.062 154.423 188.323 154.423C187.581 154.424 186.985 155.023 186.985 155.762Z" fill="#BF92FB"/>
<path d="M66.7025 70.1844H56.5167V80.3701H66.7025V70.1844Z" fill="#BF92FB"/>
<path d="M82.966 89.3599H72.7802V99.5457H82.966V89.3599Z" fill="#3BBBAC"/>
<path d="M66.7025 124.438H56.5167V134.624H66.7025V124.438Z" fill="#3BBBAC"/>
<path d="M99.2347 107.747H89.049V117.933H99.2347V107.747Z" fill="#BF92FB"/>
<path d="M192.541 67.912H160.58L166.312 48.7094H198.272L192.541 67.912Z" fill="white"/>
<path d="M189.766 69.8869H157.804L163.536 50.6833H195.497L189.766 69.8869Z" fill="#3BBBAC"/>
<path d="M192.54 68.2729H160.579C160.466 68.2729 160.358 68.2188 160.29 68.1283C160.222 68.0368 160.201 67.9193 160.234 67.8101L165.965 48.6065C166.011 48.4536 166.151 48.3496 166.311 48.3496H198.272C198.385 48.3496 198.493 48.4037 198.561 48.4942C198.629 48.5857 198.65 48.7032 198.617 48.8124L192.887 68.016C192.841 68.1689 192.701 68.2729 192.54 68.2729ZM161.064 67.5522H192.272L197.788 49.0693H166.58L161.064 67.5522Z" fill="black"/>
<path d="M165.007 65.1622L163.195 71.2358L173.274 66.534" fill="#3BBBAC"/>
<path d="M163.195 71.5957C163.109 71.5957 163.026 71.5655 162.96 71.5083C162.853 71.4158 162.809 71.2681 162.849 71.1318L164.662 65.0593C164.718 64.869 164.919 64.7608 165.11 64.817C165.301 64.8742 165.41 65.0749 165.353 65.2652L163.77 70.5692L173.122 66.2074C173.302 66.1232 173.517 66.2012 173.601 66.3822C173.685 66.5631 173.607 66.7774 173.426 66.8616L163.347 71.5634C163.299 71.5853 163.247 71.5957 163.195 71.5957Z" fill="black"/>
<path d="M188.881 55.3821H169.003C168.803 55.3821 168.642 55.2209 168.642 55.0212C168.642 54.8215 168.803 54.6603 169.003 54.6603H188.881C189.08 54.6603 189.242 54.8215 189.242 55.0212C189.242 55.2209 189.079 55.3821 188.881 55.3821ZM188.112 59.0626H168.235C168.035 59.0626 167.874 58.9014 167.874 58.7018C167.874 58.5021 168.035 58.3409 168.235 58.3409H188.112C188.312 58.3409 188.473 58.5021 188.473 58.7018C188.473 58.9014 188.311 59.0626 188.112 59.0626ZM187.344 62.7432H167.466C167.266 62.7432 167.105 62.582 167.105 62.3823C167.105 62.1826 167.266 62.0214 167.466 62.0214H187.344C187.543 62.0214 187.704 62.1826 187.704 62.3823C187.704 62.582 187.542 62.7432 187.344 62.7432Z" fill="white"/>
<path d="M61.3964 156.69L56.3451 157.403L55.9697 160.825C54.9536 161.261 54.0093 161.821 53.1534 162.486L49.9782 161.159L46.9123 165.234L49.0672 167.92C48.6647 168.924 48.385 169.989 48.2477 171.087L45.0642 172.396L45.7777 177.444L49.1993 177.819C49.6361 178.835 50.1987 179.782 50.8633 180.634L49.5362 183.813L53.611 186.879L56.2942 184.724C57.3009 185.126 58.3627 185.403 59.4599 185.54L60.7682 188.724L65.8195 188.01L66.195 184.589C67.211 184.152 68.1554 183.592 69.0113 182.927L72.1864 184.254L75.2523 180.179L73.0974 177.493C73.4999 176.489 73.7766 175.424 73.9138 174.327L77.0994 173.018L76.3859 167.969L72.9622 167.594C72.5254 166.578 71.9649 165.63 71.3003 164.778L72.6274 161.599L68.5526 158.533L65.8694 160.688C64.8627 160.286 63.8009 160.009 62.7037 159.872L61.3964 156.69ZM69.2255 171.557C69.861 176.056 66.7306 180.216 62.2315 180.852C57.7356 181.487 53.5746 178.356 52.9402 173.858C52.3047 169.359 55.4351 165.199 59.931 164.563C64.4301 163.928 68.5901 167.058 69.2255 171.557Z" fill="#BF92FB"/>
<path d="M59.2259 191.283C59.0814 191.283 58.9493 191.196 58.8931 191.059L57.6638 188.069C56.6894 187.931 55.7326 187.685 54.8153 187.334L52.2943 189.358C52.1654 189.462 51.9834 189.464 51.8513 189.364L47.7766 186.298C47.6445 186.2 47.5977 186.024 47.6611 185.871L48.9081 182.885C48.3153 182.1 47.813 181.249 47.4105 180.352L44.1958 179.999C44.0326 179.981 43.9015 179.854 43.8786 179.691L43.1652 174.642C43.1423 174.479 43.2328 174.321 43.3857 174.258L46.3767 173.029C46.515 172.054 46.7626 171.098 47.1141 170.179L45.0902 167.656C44.9873 167.527 44.9842 167.345 45.084 167.213L48.1499 163.139C48.2487 163.006 48.4255 162.961 48.5774 163.023L51.5601 164.27C52.3453 163.679 53.196 163.177 54.0946 162.775L54.4482 159.56C54.4658 159.397 54.5927 159.266 54.756 159.243L59.8073 158.529C59.9674 158.504 60.1286 158.597 60.191 158.75L61.4203 161.74C62.3948 161.878 63.3516 162.125 64.2689 162.475L66.7898 160.451C66.9188 160.347 67.1008 160.344 67.2329 160.444L71.3076 163.51C71.4397 163.609 71.4865 163.784 71.423 163.937L70.1761 166.923C70.7658 167.705 71.267 168.556 71.6716 169.457L74.8883 169.809C75.0516 169.827 75.1826 169.954 75.2055 170.117L75.9179 175.165C75.9408 175.328 75.8503 175.486 75.6974 175.549L72.7043 176.779C72.566 177.758 72.3195 178.714 71.9701 179.629L73.9939 182.152C74.0969 182.281 74.1 182.463 74.0002 182.595L70.9342 186.67C70.8354 186.802 70.6586 186.848 70.5068 186.785L67.5241 185.538C66.7389 186.129 65.8882 186.631 64.9896 187.034L64.636 190.248C64.6183 190.412 64.4914 190.543 64.3282 190.565L59.2769 191.279C59.2592 191.282 59.2426 191.283 59.2259 191.283ZM54.7508 186.561C54.7955 186.561 54.8413 186.57 54.885 186.587C55.8709 186.982 56.9057 187.249 57.9623 187.381C58.0913 187.398 58.2015 187.481 58.2514 187.601L59.4537 190.526L63.9506 189.89L64.2959 186.748C64.3105 186.619 64.3926 186.507 64.5122 186.455C65.4898 186.035 66.4113 185.492 67.2495 184.84C67.3525 184.76 67.4908 184.742 67.6104 184.792L70.5266 186.011L73.2555 182.385L71.2764 179.917C71.1953 179.815 71.1745 179.678 71.2234 179.557C71.6165 178.576 71.8838 177.54 72.0169 176.481C72.0335 176.352 72.1167 176.242 72.2374 176.192L75.1639 174.988L74.5295 170.494L71.3846 170.149C71.2556 170.135 71.1443 170.052 71.0923 169.933C70.6711 168.951 70.1272 168.031 69.4772 167.197C69.3971 167.094 69.3794 166.956 69.4294 166.836L70.6482 163.916L67.0207 161.188L64.5559 163.167C64.455 163.249 64.3167 163.269 64.1961 163.221C63.2102 162.827 62.1754 162.559 61.1187 162.426C60.9898 162.41 60.8795 162.326 60.8306 162.206L59.6284 159.282L55.1314 159.918L54.7862 163.061C54.7716 163.19 54.6894 163.301 54.5698 163.353C53.5922 163.773 52.6708 164.316 51.8326 164.968C51.7296 165.048 51.5913 165.066 51.4717 165.016L48.5555 163.797L45.8266 167.423L47.8057 169.891C47.8868 169.993 47.9076 170.13 47.8587 170.251C47.4635 171.238 47.1952 172.273 47.0621 173.328C47.0454 173.457 46.9622 173.568 46.8416 173.617L43.9171 174.819L44.5526 179.313L47.6954 179.658C47.8244 179.672 47.9357 179.755 47.9877 179.874C48.4068 180.851 48.9507 181.772 49.6049 182.61C49.685 182.713 49.7026 182.851 49.6527 182.971L48.4338 185.891L52.0603 188.62L54.5251 186.64C54.5906 186.59 54.6707 186.561 54.7508 186.561ZM59.5327 183.491C55.328 183.491 51.6443 180.388 51.039 176.105C50.7187 173.835 51.3011 171.575 52.6791 169.743C54.0571 167.91 56.0664 166.724 58.3367 166.404C63.0198 165.743 67.3764 169.017 68.0389 173.705C68.3592 175.976 67.7768 178.235 66.3988 180.068C65.0198 181.9 63.0094 183.086 60.7391 183.406C60.3346 183.463 59.931 183.491 59.5327 183.491ZM59.5431 167.041C59.1781 167.041 58.8099 167.066 58.4376 167.119C56.3586 167.412 54.5178 168.498 53.2553 170.176C51.9927 171.855 51.4592 173.925 51.7525 176.005C52.3588 180.3 56.3399 183.301 60.6372 182.693C64.9314 182.086 67.9307 178.099 67.3244 173.806C66.7711 169.883 63.3963 167.041 59.5431 167.041Z" fill="black"/>
<path d="M189.587 93.2953C188.734 93.2953 187.882 93.2142 187.053 93.054C185.867 92.8242 185.148 92.273 185.031 91.5013C184.912 90.7244 185.479 90.0682 186.001 89.7416C186.308 89.5502 186.634 89.4202 186.95 89.2944C187.173 89.206 187.384 89.1218 187.583 89.0198C188.424 88.5882 189.071 87.7833 189.312 86.8691C189.555 85.955 189.389 84.9368 188.871 84.1454C188.762 83.979 188.809 83.7554 188.976 83.6462C189.142 83.537 189.366 83.5838 189.475 83.7512C190.104 84.7111 190.303 85.9456 190.01 87.0542C189.717 88.1629 188.933 89.1384 187.912 89.6615C187.683 89.7801 187.445 89.8737 187.217 89.9652C186.917 90.0838 186.634 90.1971 186.383 90.3542C186.02 90.5809 185.681 90.9906 185.742 91.3942C185.838 92.0213 186.786 92.2698 187.19 92.3478C188.725 92.6463 190.348 92.6526 191.884 92.3655C192.082 92.3302 192.268 92.4581 192.305 92.6536C192.342 92.8491 192.213 93.0374 192.017 93.0748C191.223 93.2214 190.404 93.2953 189.587 93.2953Z" fill="white"/>
<path d="M217.267 86.1318C217.264 86.1318 217.261 86.1318 217.258 86.1318C217.058 86.1266 216.901 85.9612 216.907 85.7626C216.936 84.6466 216.717 83.5921 216.274 82.7143C215.789 81.7492 215.029 80.991 214.137 80.5782C213.314 80.1975 212.282 80.0727 211.15 80.2183C210.014 80.3639 208.893 80.7518 207.81 81.1273C206.904 81.4414 205.966 81.7658 205.002 81.9593C202.502 82.4616 199.783 82.0456 197.547 80.8184C197.372 80.7227 197.309 80.5033 197.404 80.3286C197.501 80.1538 197.72 80.0914 197.894 80.1861C199.984 81.3332 202.522 81.7211 204.86 81.2521C205.778 81.068 206.692 80.7518 207.575 80.445C208.693 80.0582 209.85 79.6578 211.059 79.5018C212.342 79.3374 213.48 79.4778 214.44 79.923C215.48 80.4034 216.361 81.2802 216.919 82.3898C217.414 83.3737 217.66 84.5468 217.627 85.7802C217.622 85.9768 217.462 86.1318 217.267 86.1318Z" fill="white"/>
<path d="M215.624 112.219C215.48 112.219 215.342 112.131 215.287 111.987C215.217 111.801 215.31 111.593 215.495 111.521C217.253 110.852 218.761 109.598 219.741 107.993C220.72 106.387 221.146 104.472 220.938 102.603C220.916 102.406 221.058 102.227 221.256 102.205C221.451 102.184 221.632 102.326 221.654 102.523C221.88 104.551 221.418 106.626 220.355 108.367C219.292 110.108 217.657 111.467 215.751 112.194C215.711 112.212 215.667 112.219 215.624 112.219Z" fill="white"/>
<path d="M207.67 99.9752C207.633 99.9752 207.594 99.969 207.557 99.9565C207.368 99.8941 207.266 99.6902 207.328 99.501C207.592 98.7054 207.865 97.8827 207.932 97.0528C208.005 96.1678 207.82 95.3701 207.408 94.8054C206.959 94.1886 206.171 93.7373 205.064 93.4648C204.694 93.3733 204.306 93.3026 203.93 93.2339C203.326 93.1226 202.702 93.0082 202.099 92.8034C201.911 92.7389 201.81 92.534 201.873 92.3458C201.938 92.1575 202.143 92.0556 202.331 92.1201C202.884 92.3083 203.456 92.4134 204.061 92.5246C204.447 92.5954 204.846 92.6692 205.237 92.7659C206.513 93.08 207.439 93.6239 207.992 94.3821C208.504 95.0872 208.738 96.0565 208.651 97.1131C208.575 98.0283 208.289 98.8926 208.012 99.7287C207.963 99.8795 207.822 99.9752 207.67 99.9752Z" fill="white"/>
</svg>
