<svg width="260" height="260" viewBox="0 0 260 260" fill="none" xmlns="http://www.w3.org/2000/svg">
<path d="M165.017 112.668H169.7C172.719 112.668 175.706 113.401 178.328 114.898C182.338 117.187 186.822 121.731 186.822 130.602V141.147C186.822 141.147 187.28 163.843 164.126 163.843H157.239L162.664 152.938C162.664 152.938 171.695 154.953 175.72 146.27C176.414 144.774 176.735 143.132 176.735 141.484V131.202C176.735 129.448 176.373 127.701 175.588 126.132C174.671 124.298 173.067 122.349 170.316 121.89H165.017V112.668Z" fill="#FFCA28"/>
<path d="M164.126 164.981H157.239C157.045 164.981 156.855 164.931 156.685 164.837C156.516 164.743 156.374 164.607 156.272 164.442C156.17 164.278 156.112 164.09 156.103 163.896C156.094 163.703 156.134 163.51 156.22 163.337L161.645 152.431C161.759 152.204 161.945 152.02 162.174 151.911C162.404 151.802 162.663 151.772 162.912 151.827C163.243 151.9 171.109 153.512 174.688 145.791C175.292 144.49 175.597 143.041 175.597 141.484V131.202C175.597 129.561 175.242 127.983 174.571 126.64C173.542 124.583 172.078 123.368 170.217 123.028H165.017C164.715 123.028 164.426 122.908 164.212 122.695C163.999 122.481 163.879 122.192 163.879 121.89V112.668C163.879 112.367 163.999 112.077 164.212 111.864C164.426 111.651 164.715 111.531 165.017 111.531H169.7C172.988 111.531 176.166 112.354 178.892 113.91C183.028 116.271 187.959 121.084 187.959 130.602V141.147C187.968 141.551 188.091 151.637 181.246 158.621C177.111 162.841 171.351 164.981 164.126 164.981L164.126 164.981ZM159.075 162.706H164.126C170.716 162.706 175.93 160.796 179.621 157.029C185.804 150.72 185.686 141.265 185.685 141.17L185.684 130.602C185.684 122.176 181.377 117.948 177.764 115.886C175.381 114.525 172.593 113.806 169.7 113.806H166.154V120.753H170.316C170.378 120.753 170.441 120.758 170.503 120.768C173.126 121.206 175.236 122.884 176.606 125.623C177.434 127.28 177.872 129.209 177.872 131.202V141.484C177.872 143.374 177.495 145.145 176.752 146.748C173.171 154.474 165.865 154.448 163.316 154.18L159.075 162.706Z" fill="#102770"/>
<path opacity="0.6" d="M162.802 155.215L163.317 154.179C164.996 154.356 168.74 154.427 172.124 152.245C168.889 155.041 164.984 155.324 162.802 155.215ZM178.307 158.018C184.484 151.729 184.386 142.239 184.384 142.122V131.577C184.384 123.151 180.077 118.924 176.464 116.861C174.081 115.5 171.293 114.781 168.4 114.781H166.154V113.806H169.7C172.593 113.806 175.381 114.525 177.764 115.886C181.377 117.948 185.684 122.176 185.684 130.602V141.147C185.686 141.264 185.784 150.754 179.607 157.043C178.813 157.849 177.94 158.575 177.003 159.211C177.458 158.836 177.893 158.437 178.307 158.018L178.307 158.018Z" fill="white"/>
<path opacity="0.2" d="M175.001 146.27C175.638 144.774 175.933 143.132 175.933 141.484V131.202C175.933 129.448 175.601 127.701 174.88 126.132C174.038 124.298 172.564 122.349 170.038 121.89H173.635C176.161 122.349 177.635 124.298 178.477 126.132C179.198 127.701 179.53 129.448 179.53 131.202V141.484C179.53 143.132 179.235 144.774 178.598 146.27C175.322 153.965 168.436 153.258 166.911 152.997C169.576 152.57 172.977 151.023 175.001 146.27ZM165.462 121.89V112.668H170.653L169.609 121.89H165.462Z" fill="#102770"/>
<path opacity="0.2" d="M186.822 141.147V137.694C186.802 139.786 186.098 157.807 167.854 159.972C166.425 160.141 165.37 158.674 166.007 157.383L168.145 153.048C165.366 153.306 164.067 152.938 164.067 152.938L159.528 160.188H159.057L157.239 163.843H164.126C187.28 163.843 186.822 141.147 186.822 141.147Z" fill="#102770"/>
<path d="M91.0129 112.668H86.3296C83.311 112.668 80.3233 113.401 77.7018 114.898C73.6917 117.187 69.2078 121.731 69.2078 130.602V141.147C69.2078 141.147 68.7493 163.843 91.9036 163.843H98.7906L93.3657 152.938C93.3657 152.938 84.3348 154.953 80.3093 146.27C79.616 144.774 79.2948 143.132 79.2948 141.484V131.202C79.2948 129.448 79.6565 127.701 80.4411 126.132C81.3581 124.298 82.9628 122.349 85.7138 121.89H91.0129V112.668Z" fill="#FFCA28"/>
<path d="M98.7906 164.981H91.9035C84.6789 164.981 78.9191 162.841 74.7836 158.621C67.9386 151.637 68.0619 141.551 68.0704 141.125L68.0703 130.602C68.0703 121.084 73.0013 116.271 77.1378 113.91C79.8636 112.354 83.042 111.531 86.3295 111.531H91.0127C91.3144 111.531 91.6037 111.651 91.8171 111.864C92.0304 112.077 92.1502 112.367 92.1502 112.668V121.89C92.1502 122.192 92.0304 122.481 91.8171 122.695C91.6037 122.908 91.3144 123.028 91.0127 123.028H85.8122C83.9517 123.368 82.4873 124.583 81.4585 126.64C80.7872 127.983 80.4324 129.56 80.4324 131.202V141.484C80.4324 143.041 80.7381 144.49 81.3412 145.791C84.9398 153.553 92.7859 151.902 93.118 151.827C93.3661 151.772 93.6256 151.802 93.8551 151.911C94.0846 152.02 94.2709 152.203 94.3842 152.431L99.8091 163.337C99.8953 163.51 99.9358 163.703 99.9268 163.896C99.9178 164.09 99.8596 164.278 99.7575 164.442C99.6555 164.607 99.5132 164.743 99.344 164.837C99.1747 164.931 98.9843 164.981 98.7906 164.981ZM86.3295 113.806C83.437 113.806 80.6487 114.525 78.2657 115.885C74.6525 117.948 70.3453 122.176 70.3453 130.602V141.148C70.3434 141.264 70.2455 150.754 76.4221 157.043C80.1128 160.8 85.3215 162.706 91.9035 162.706H96.9542L92.713 154.18C90.1652 154.449 82.8595 154.475 79.2772 146.748C78.5341 145.145 78.1573 143.374 78.1573 141.484V131.202C78.1573 129.209 78.5952 127.28 79.4237 125.623C80.7929 122.884 82.9033 121.206 85.5267 120.768C85.5885 120.758 85.6511 120.753 85.7137 120.753H89.8753V113.806H86.3295Z" fill="#102770"/>
<path opacity="0.6" d="M93.2278 155.215L92.713 154.179C91.0334 154.356 87.2891 154.427 83.9053 152.245C87.1408 155.041 91.0457 155.324 93.2278 155.215ZM77.7221 158.018C71.5456 151.729 71.6435 142.239 71.6454 142.122V131.577C71.6454 123.151 75.9526 118.924 79.5658 116.861C81.9486 115.5 84.7369 114.781 87.6296 114.781H89.8753V113.806H86.3296C83.4369 113.806 80.6486 114.525 78.2658 115.886C74.6526 117.948 70.3454 122.176 70.3454 130.602V141.147C70.3435 141.264 70.2456 150.754 76.4222 157.043C77.2169 157.849 78.0891 158.575 79.0261 159.211C78.5714 158.836 78.1362 158.437 77.7222 158.018L77.7221 158.018Z" fill="white"/>
<path opacity="0.2" d="M81.0281 146.27C80.3914 144.774 80.0964 143.132 80.0964 141.484V131.202C80.0964 129.448 80.4285 127.701 81.1491 126.132C81.9913 124.298 83.4651 122.349 85.9916 121.89H82.3948C79.8683 122.349 78.3945 124.298 77.5523 126.132C76.8318 127.701 76.4997 129.448 76.4997 131.202V141.484C76.4997 143.132 76.7946 144.774 77.4313 146.27C80.7077 153.965 87.5934 153.258 89.1182 152.997C86.4538 152.57 83.0521 151.023 81.0281 146.27ZM90.5672 121.89V112.668H85.3766L86.4209 121.89H90.5672Z" fill="#102770"/>
<path opacity="0.2" d="M69.2078 141.147V137.694C69.2277 139.786 69.9318 157.807 88.1754 159.972C89.6044 160.141 90.6595 158.674 90.0229 157.383L87.8849 153.048C90.6634 153.306 91.9621 152.938 91.9621 152.938L96.5019 160.188H96.9723L98.7906 163.843H91.9036C68.7493 163.843 69.2078 141.147 69.2078 141.147Z" fill="#102770"/>
<path d="M137.938 188.78H118.092L122.142 173.389H133.888L137.938 188.78Z" fill="#FFCA28"/>
<path d="M137.938 189.918H118.092C117.918 189.918 117.746 189.878 117.59 189.801C117.433 189.724 117.297 189.612 117.191 189.475C117.084 189.337 117.011 189.176 116.977 189.006C116.942 188.835 116.947 188.659 116.992 188.491L121.042 173.1C121.106 172.857 121.248 172.642 121.447 172.488C121.646 172.335 121.891 172.252 122.142 172.252H133.888C134.139 172.252 134.383 172.335 134.582 172.488C134.781 172.642 134.924 172.857 134.988 173.1L139.038 188.491C139.082 188.659 139.087 188.835 139.053 189.006C139.018 189.176 138.945 189.337 138.839 189.474C138.732 189.612 138.596 189.724 138.44 189.801C138.284 189.877 138.112 189.917 137.938 189.918ZM119.567 187.643H136.462L133.011 174.527H123.019L119.567 187.643Z" fill="#102770"/>
<path opacity="0.6" d="M123.019 174.527L119.567 187.643H121.192L124.644 174.527H123.019Z" fill="white"/>
<path d="M116.365 188.78H139.665C141.012 188.78 142.305 189.315 143.258 190.268C144.211 191.221 144.746 192.514 144.746 193.861V196.07H111.284V193.861C111.284 192.514 111.819 191.221 112.772 190.268C113.725 189.315 115.017 188.78 116.365 188.78Z" fill="#FFCA28"/>
<path d="M144.746 197.208H111.284C110.982 197.208 110.693 197.088 110.479 196.875C110.266 196.662 110.146 196.372 110.146 196.071V193.861C110.148 192.213 110.804 190.632 111.97 189.466C113.136 188.3 114.716 187.644 116.365 187.643H139.665C141.313 187.644 142.894 188.3 144.06 189.466C145.226 190.632 145.882 192.213 145.884 193.861V196.071C145.883 196.372 145.764 196.662 145.55 196.875C145.337 197.088 145.048 197.208 144.746 197.208ZM112.421 194.933H143.609V193.861C143.607 192.816 143.191 191.813 142.452 191.074C141.713 190.335 140.71 189.919 139.665 189.918H116.365C115.319 189.919 114.317 190.335 113.578 191.074C112.838 191.813 112.422 192.816 112.421 193.861V194.933Z" fill="#102770"/>
<path opacity="0.6" d="M114.046 194.512C114.047 193.466 114.463 192.463 115.203 191.724C115.942 190.985 116.944 190.569 117.99 190.568H141.29C141.496 190.569 141.703 190.587 141.907 190.621C141.249 190.163 140.466 189.917 139.665 189.918H116.365C115.319 189.919 114.317 190.335 113.578 191.074C112.838 191.813 112.422 192.816 112.421 193.862V194.933H114.046L114.046 194.512Z" fill="white"/>
<path d="M106.954 196.071H149.075C152.056 196.071 154.915 197.255 157.023 199.363C159.131 201.47 160.315 204.329 160.315 207.31V213.891H95.7143V207.31C95.7143 204.329 96.8985 201.47 99.0064 199.363C101.114 197.255 103.973 196.071 106.954 196.071Z" fill="#DC7633"/>
<path d="M160.315 215.029H95.7143C95.4126 215.029 95.1233 214.909 94.91 214.696C94.6967 214.482 94.5768 214.193 94.5768 213.891V207.31C94.5768 200.485 100.129 194.933 106.954 194.933H149.075C155.9 194.933 161.453 200.485 161.453 207.31V213.891C161.453 214.193 161.333 214.482 161.12 214.696C160.906 214.909 160.617 215.029 160.315 215.029ZM96.8518 212.754H159.178V207.31C159.178 201.74 154.646 197.208 149.075 197.208H106.954C101.384 197.208 96.8518 201.74 96.8518 207.31V212.754Z" fill="#102770"/>
<path opacity="0.6" d="M98.8018 208.285C98.8018 202.715 103.334 198.183 108.904 198.183H151.025C152.217 198.182 153.399 198.393 154.517 198.806C152.894 197.761 151.005 197.207 149.075 197.208H106.954C101.384 197.208 96.8518 201.74 96.8518 207.31V212.754H98.8018V208.285Z" fill="white"/>
<path d="M128.221 94.0673V94.0666L128.015 94.067L127.808 94.0666V94.0673L90.4758 94.1226V138.212C90.4758 146.095 92.363 153.898 96.2037 160.782C101.28 169.88 110.674 179.307 127.808 179.458V179.465C127.878 179.465 127.945 179.461 128.015 179.461C128.084 179.461 128.151 179.465 128.221 179.465V179.458C145.356 179.307 154.75 169.88 159.826 160.782C163.667 153.898 165.554 146.095 165.554 138.212V94.1226L128.221 94.0673Z" fill="#FFCA28"/>
<path d="M128.221 180.602C128.176 180.602 128.13 180.601 128.085 180.6L128.01 180.599L127.945 180.6C127.853 180.605 127.761 180.603 127.67 180.594C109.611 180.386 100.051 170.013 95.2103 161.336C91.3689 154.451 89.3383 146.455 89.3383 138.212V94.1226C89.3383 93.8212 89.4579 93.5322 89.6708 93.3189C89.8838 93.1056 90.1726 92.9856 90.474 92.9851L128.22 92.9292C128.22 92.9292 128.222 92.9298 128.223 92.9298L165.555 92.9851C165.857 92.9855 166.146 93.1055 166.359 93.3188C166.571 93.5321 166.691 93.8212 166.691 94.1226V138.212C166.691 146.455 164.661 154.451 160.819 161.336C155.978 170.014 146.42 180.387 128.359 180.594C128.313 180.599 128.267 180.602 128.221 180.602ZM128.01 178.324L128.113 178.325C128.145 178.322 128.178 178.32 128.211 178.32C141.899 178.2 152.202 172.113 158.832 160.228C162.485 153.68 164.416 146.068 164.416 138.212V95.2585L128.22 95.2048L127.807 95.2041L91.6133 95.2584V138.212C91.6133 146.068 93.5441 153.681 97.1972 160.228C103.828 172.113 114.13 178.2 127.818 178.32C127.851 178.32 127.884 178.322 127.916 178.325L128.01 178.324Z" fill="#102770"/>
<path opacity="0.6" d="M99.1471 160.553C95.4941 154.006 93.5633 146.393 93.5633 138.537V95.5833L129.756 95.5292L164.416 95.5804V95.2583L127.806 95.2042L91.6133 95.2583V138.212C91.6133 146.068 93.5442 153.681 97.197 160.228C102.894 170.438 111.303 176.365 122.238 177.91C112.249 175.962 104.501 170.148 99.1471 160.553Z" fill="white"/>
<path opacity="0.2" d="M107.529 121.723C107.879 117.528 106.002 113.946 103.337 113.724C100.672 113.501 98.2282 116.722 97.8781 120.918C97.5279 125.114 99.4043 128.695 102.069 128.918C104.734 129.14 107.178 125.919 107.529 121.723Z" fill="white"/>
<path opacity="0.2" d="M119.888 177.503C120.041 177.484 120.19 177.461 120.342 177.441C122.491 177.795 124.665 177.98 126.843 177.995C126.877 177.995 126.91 177.997 126.943 178L127.034 177.998L127.137 178C127.17 177.997 127.203 177.995 127.236 177.995C140.924 177.875 151.227 171.788 157.857 159.903C161.51 153.355 163.441 145.742 163.441 137.887V95.2569L127.806 95.2042L91.6133 95.2583V109.49L91.8596 109.675L143.23 111.713C152.165 112.067 159.063 119.723 158.45 128.644C157.198 146.88 149.39 173.9 119.888 177.503Z" fill="#102770"/>
<path d="M166.047 93.6H89.9824C86.503 93.6 83.6825 96.4205 83.6825 99.8999C83.6825 103.379 86.503 106.2 89.9824 106.2H166.047C169.527 106.2 172.347 103.379 172.347 99.8999C172.347 96.4205 169.527 93.6 166.047 93.6Z" fill="#FFCA28"/>
<path d="M166.047 107.337H89.9824C88.0099 107.337 86.1183 106.554 84.7235 105.159C83.3288 103.764 82.5452 101.872 82.5452 99.8999C82.5452 97.9274 83.3288 96.0357 84.7235 94.641C86.1183 93.2462 88.0099 92.4626 89.9824 92.4626H166.047C168.016 92.4685 169.902 93.2546 171.292 94.6487C172.682 96.0428 173.462 97.9312 173.462 99.8998C173.462 101.869 172.682 103.757 171.292 105.151C169.902 106.545 168.016 107.331 166.047 107.337ZM89.9824 94.7376C89.303 94.7352 88.6297 94.867 88.0013 95.1253C87.3729 95.3837 86.8016 95.7635 86.3203 96.2431C85.839 96.7227 85.4571 97.2926 85.1966 97.9201C84.936 98.5476 84.8019 99.2204 84.8019 99.8998C84.8019 100.579 84.936 101.252 85.1966 101.88C85.4571 102.507 85.839 103.077 86.3203 103.557C86.8016 104.036 87.3729 104.416 88.0013 104.674C88.6297 104.933 89.303 105.064 89.9824 105.062H166.047C167.413 105.057 168.721 104.511 169.686 103.544C170.65 102.576 171.191 101.266 171.191 99.8998C171.191 98.5339 170.65 97.2237 169.686 96.2561C168.721 95.2885 167.413 94.7425 166.047 94.7376H89.9824Z" fill="#102770"/>
<path opacity="0.6" d="M86.4449 100.875C86.4465 99.5062 86.9908 98.194 87.9586 97.2262C88.9264 96.2584 90.2386 95.714 91.6073 95.7125H167.672C168.284 95.7137 168.89 95.8244 169.463 96.0393C168.522 95.2011 167.307 94.7378 166.047 94.7375H89.9823C88.7712 94.7366 87.5984 95.1618 86.6693 95.9387C85.7402 96.7156 85.1141 97.7947 84.9006 98.9868C84.6871 100.179 84.8999 101.408 85.5016 102.459C86.1033 103.51 87.0557 104.316 88.1918 104.736C87.6432 104.253 87.2037 103.659 86.9025 102.993C86.6013 102.328 86.4453 101.606 86.4449 100.875Z" fill="white"/>
<path opacity="0.2" d="M120.028 181.311C120.028 181.311 123.863 182.193 127.805 182.16C130.381 182.138 131 185.748 128.573 186.611C126.428 187.374 123.264 187.883 118.606 187.807L117.552 189.125H138.37L135.844 178.788C135.844 178.788 125.613 181.346 120.397 178.911L120.028 181.311Z" fill="#102770"/>
<path opacity="0.2" d="M132.717 189.123C132.717 189.123 133.232 195.317 111.36 194.527V195.713H145.537L144.563 192.328C144.563 192.328 143.666 187.54 132.717 189.123Z" fill="#102770"/>
<path opacity="0.2" d="M132.705 196.635C132.705 196.635 135.34 211.919 95.8123 211.919L96.0758 213.632H160.769V205.463C160.769 205.463 157.08 192.55 132.705 196.635Z" fill="#102770"/>
<path d="M136.866 152.981C136.243 152.979 135.637 152.778 135.136 152.408L128.605 147.662C128.433 147.538 128.227 147.471 128.015 147.471C127.803 147.471 127.596 147.538 127.425 147.662L120.893 152.408C120.392 152.778 119.786 152.979 119.163 152.981C118.692 152.979 118.228 152.865 117.809 152.649C117.39 152.434 117.028 152.122 116.752 151.74C116.479 151.365 116.3 150.93 116.229 150.472C116.159 150.013 116.199 149.545 116.347 149.105L118.841 141.427C118.907 141.225 118.908 141.008 118.842 140.806C118.776 140.604 118.649 140.428 118.477 140.304L111.945 135.558C111.44 135.192 111.065 134.675 110.872 134.081C110.679 133.488 110.679 132.849 110.872 132.255C111.065 131.662 111.441 131.145 111.945 130.778C112.45 130.411 113.058 130.214 113.682 130.214H121.755C121.967 130.214 122.174 130.147 122.346 130.023C122.517 129.898 122.645 129.722 122.71 129.52L125.205 121.842C125.398 121.248 125.773 120.731 126.278 120.365C126.783 119.998 127.391 119.801 128.015 119.801C128.639 119.801 129.247 119.998 129.751 120.365C130.256 120.731 130.632 121.248 130.825 121.842L133.319 129.52C133.385 129.722 133.512 129.898 133.684 130.023C133.856 130.147 134.062 130.214 134.275 130.214H142.348C142.972 130.214 143.58 130.412 144.084 130.778C144.589 131.145 144.965 131.662 145.158 132.255C145.35 132.849 145.35 133.488 145.158 134.081C144.965 134.675 144.589 135.192 144.084 135.558L137.553 140.304C137.381 140.428 137.253 140.604 137.188 140.806C137.122 141.008 137.122 141.225 137.188 141.427L139.683 149.105C139.83 149.545 139.871 150.013 139.8 150.472C139.73 150.93 139.551 151.365 139.278 151.74C139.002 152.122 138.64 152.434 138.221 152.649C137.801 152.865 137.337 152.979 136.866 152.981Z" fill="#F9B32F"/>
<path d="M128.015 120.775C128.434 120.77 128.844 120.9 129.183 121.146C129.523 121.393 129.773 121.743 129.897 122.143L132.392 129.821C132.521 130.219 132.773 130.565 133.111 130.811C133.449 131.057 133.857 131.189 134.275 131.189H142.348C144.265 131.189 145.062 133.643 143.511 134.77L136.98 139.515C136.642 139.761 136.39 140.107 136.261 140.505C136.132 140.902 136.132 141.33 136.261 141.728L138.755 149.406C139.207 150.795 138.103 152.006 136.866 152.006C136.449 152.004 136.044 151.868 135.709 151.619L129.178 146.874C128.84 146.628 128.433 146.496 128.015 146.496C127.597 146.496 127.189 146.628 126.851 146.874L120.32 151.619C119.986 151.868 119.58 152.004 119.163 152.006C117.926 152.006 116.823 150.795 117.274 149.406L119.769 141.728C119.898 141.33 119.898 140.902 119.769 140.505C119.64 140.107 119.388 139.761 119.05 139.515L112.518 134.77C110.967 133.643 111.764 131.189 113.682 131.189H121.755C122.173 131.189 122.58 131.057 122.919 130.811C123.257 130.565 123.508 130.219 123.638 129.821L126.132 122.143C126.256 121.742 126.507 121.393 126.846 121.146C127.185 120.9 127.595 120.77 128.015 120.775ZM128.015 118.825C127.183 118.816 126.37 119.075 125.697 119.564C125.024 120.053 124.526 120.746 124.278 121.541L121.783 129.219C121.781 129.225 121.777 129.23 121.772 129.233C121.767 129.237 121.761 129.239 121.755 129.239H113.682C112.852 129.239 112.044 129.502 111.372 129.989C110.701 130.477 110.201 131.165 109.945 131.954C109.688 132.743 109.688 133.593 109.945 134.383C110.201 135.172 110.701 135.86 111.372 136.347L117.904 141.092C117.909 141.096 117.912 141.101 117.914 141.107C117.916 141.113 117.916 141.12 117.914 141.125L115.42 148.804C115.223 149.389 115.17 150.014 115.265 150.624C115.359 151.235 115.599 151.814 115.963 152.313C116.329 152.819 116.81 153.232 117.366 153.518C117.923 153.803 118.538 153.953 119.163 153.956C119.992 153.954 120.799 153.688 121.466 153.197L127.997 148.451C128.002 148.448 128.009 148.446 128.015 148.446C128.021 148.446 128.027 148.447 128.032 148.451L134.563 153.197C135.231 153.688 136.037 153.954 136.866 153.956C137.491 153.953 138.107 153.803 138.663 153.518C139.219 153.232 139.7 152.819 140.067 152.313C140.431 151.814 140.67 151.235 140.765 150.624C140.859 150.014 140.806 149.389 140.61 148.803L138.115 141.125C138.113 141.119 138.113 141.113 138.115 141.107C138.117 141.101 138.121 141.096 138.126 141.092L144.657 136.347C145.329 135.859 145.828 135.172 146.085 134.383C146.341 133.593 146.341 132.743 146.085 131.954C145.828 131.165 145.329 130.477 144.657 129.989C143.986 129.502 143.178 129.239 142.348 129.239H134.275C134.268 129.239 134.262 129.237 134.257 129.233C134.252 129.23 134.248 129.224 134.246 129.218L131.752 121.541C131.503 120.746 131.006 120.053 130.333 119.564C129.66 119.075 128.847 118.816 128.015 118.825Z" fill="#102770"/>
<path opacity="0.6" d="M132.979 130.839C133.108 131.237 133.36 131.583 133.698 131.829C134.036 132.074 134.444 132.207 134.862 132.207H142.935C143.43 132.201 143.909 132.386 144.272 132.724C144.077 131.896 143.376 131.189 142.348 131.189H134.275C133.769 131.188 133.282 130.993 132.916 130.645L132.979 130.839ZM117.861 150.424L120.356 142.746C120.472 142.386 120.483 142 120.386 141.634C120.29 141.269 120.09 140.938 119.812 140.683C119.892 141.029 119.877 141.39 119.769 141.728L117.274 149.406C117.152 149.763 117.137 150.148 117.232 150.513C117.326 150.878 117.525 151.208 117.805 151.461C117.73 151.116 117.75 150.758 117.861 150.424ZM114.269 132.207H122.342C122.76 132.207 123.167 132.074 123.506 131.829C123.844 131.583 124.095 131.237 124.225 130.839L126.719 123.161C127.199 121.686 128.977 121.405 129.953 122.316L129.897 122.143C129.305 120.319 126.725 120.319 126.132 122.143L123.638 129.821C123.508 130.219 123.257 130.565 122.918 130.811C122.58 131.057 122.173 131.189 121.755 131.189H113.682C111.848 131.189 111.045 133.43 112.334 134.611C112.094 133.478 112.888 132.207 114.269 132.207Z" fill="white"/>
<path opacity="0.2" d="M128.153 121.727V137.469L132.827 130.727L129.578 121.401L128.153 121.727ZM128.153 137.469L118.337 151.789L119.449 152.756L128.256 146.885L128.153 137.469ZM111.8 134.225L128.153 137.469L120.044 140.642L111.8 134.225Z" fill="#102770"/>
<path opacity="0.2" d="M128.153 137.469L139.1 152.1L138.775 148.2L135.87 140.864L128.153 137.469Z" fill="#102770"/>
<path opacity="0.1" d="M128.153 137.469L143.587 134.073L135.87 140.864L128.153 137.469Z" fill="#102770"/>
<mask id="mask0_4_267" style="mask-type:luminance" maskUnits="userSpaceOnUse" x="84" y="94" width="88" height="12">
<path d="M166.047 94.7375H89.9823C88.6132 94.7375 87.3001 95.2814 86.3319 96.2495C85.3638 97.2177 84.8199 98.5307 84.8199 99.8999C84.8199 101.269 85.3638 102.582 86.3319 103.55C87.3001 104.518 88.6132 105.062 89.9823 105.062H166.047C167.416 105.062 168.729 104.518 169.697 103.55C170.666 102.582 171.209 101.269 171.209 99.8999C171.209 98.5307 170.666 97.2177 169.697 96.2495C168.729 95.2814 167.416 94.7375 166.047 94.7375Z" fill="white"/>
</mask>
<g mask="url(#mask0_4_267)">
<path opacity="0.5" d="M113.914 83.8903L122.396 91.2719L100.629 116.285L92.1466 108.903L113.914 83.8903Z" fill="white"/>
<path opacity="0.5" d="M136.471 84.5335L140.226 87.8014L118.459 112.814L114.704 109.546L136.471 84.5335Z" fill="white"/>
</g>
<path opacity="0.2" d="M169.793 96.3582C169.889 96.4583 169.98 96.5621 170.068 96.6696C169.981 96.5616 169.888 96.4588 169.793 96.3582ZM170.426 97.1782C170.487 97.2762 170.548 97.3744 170.603 97.4767C170.548 97.3743 170.487 97.2763 170.426 97.1782V97.1782ZM170.129 96.751C170.207 96.8514 170.283 96.9532 170.353 97.0592C170.283 96.953 170.207 96.8515 170.129 96.751ZM171.155 99.1899C171.164 99.2531 171.177 99.3149 171.183 99.3789C171.177 99.3149 171.164 99.2531 171.155 99.1899ZM170.68 97.6362C170.726 97.7298 170.773 97.8229 170.813 97.9196C170.773 97.8228 170.726 97.7299 170.68 97.6362ZM171.047 98.6389C171.067 98.717 171.09 98.7938 171.106 98.8732C171.09 98.7937 171.067 98.7171 171.047 98.6389ZM170.888 98.1237C170.92 98.2108 170.955 98.2968 170.982 98.386C170.955 98.2968 170.92 98.2109 170.888 98.1237ZM164.422 104.737C165.631 104.738 166.802 104.314 167.731 103.54C168.659 102.765 169.286 101.689 169.502 100.499C169.718 99.3093 169.508 98.0815 168.911 97.0302C168.314 95.9788 167.366 95.1707 166.234 94.747C166.171 94.7447 166.11 94.7375 166.047 94.7375H155.175C153.893 97.181 146.303 104.041 101.614 104.737H164.422ZM97.2315 104.785C97.0265 104.786 96.822 104.787 96.6154 104.788C96.8218 104.787 97.0265 104.786 97.2315 104.785ZM91.2562 104.788C91.8261 104.791 92.3909 104.793 92.9506 104.794C92.3904 104.792 91.8256 104.79 91.2562 104.788ZM166.234 94.747C167.234 94.7823 168.202 95.1087 169.019 95.6861C168.202 95.1079 167.234 94.7814 166.234 94.747ZM169.026 95.6913C169.155 95.7823 169.279 95.8789 169.399 95.9811C169.279 95.8788 169.155 95.7822 169.026 95.6912L169.026 95.6913ZM95.397 104.793C94.9355 104.794 94.4702 104.795 94.0014 104.795C94.4696 104.795 94.9359 104.794 95.397 104.793Z" fill="#102770"/>
<path opacity="0.3" d="M209.746 215.843C209.746 214.21 174.042 212.887 130 212.887C85.9576 212.887 50.2542 214.21 50.2542 215.843C50.2542 216.787 62.1849 217.627 80.7605 218.168C84.7687 219.226 100.31 220.015 118.87 220.015C134.413 220.015 147.838 219.462 154.146 218.661C186.384 218.282 209.746 217.163 209.746 215.843Z" fill="#102770"/>
<path d="M61.9564 214.196C73.3086 213.591 84.661 213.274 96.0131 213.059C107.365 212.845 118.717 212.737 130.07 212.734C141.422 212.726 152.774 212.833 164.126 213.055C175.478 213.269 186.831 213.587 198.183 214.196C186.831 214.805 175.478 215.123 164.126 215.337C152.774 215.549 141.422 215.656 130.07 215.658C118.717 215.66 107.365 215.552 96.0131 215.333C84.661 215.118 73.3086 214.801 61.9564 214.196ZM54.1034 114.869C53.9642 114.869 53.8283 114.826 53.7136 114.747C53.599 114.668 53.511 114.556 53.4615 114.426C52.5449 112.023 51.3369 110.481 49.9963 109.933C49.8746 110.412 49.707 110.879 49.4959 111.326C49.0827 112.206 48.3358 112.847 47.4465 113.086C46.4613 113.351 45.6029 113.057 45.0285 112.26C44.6819 111.779 44.697 111.12 45.0702 110.452C45.671 109.376 47.1313 108.35 48.8383 108.337C48.9394 105.374 46.8783 102.985 46.5251 102.599L46.4319 102.536C46.1335 103.482 45.5561 104.316 44.7755 104.928C42.9287 106.382 41.0686 106.65 39.396 105.703C38.8241 105.375 38.3858 104.857 38.1582 104.239C37.9306 103.621 37.9282 102.942 38.1514 102.322C38.6535 100.9 39.5433 99.9449 40.7245 99.5593C41.9669 99.154 43.491 99.3923 45.2743 100.27C45.1646 97.9092 44.4091 96.136 43.0227 94.9909C40.2217 92.6778 35.687 93.5865 35.6417 93.596C35.5534 93.6145 35.4624 93.6154 35.3737 93.5988C35.2851 93.5821 35.2006 93.5481 35.1251 93.4988C35.0496 93.4494 34.9845 93.3857 34.9336 93.3112C34.8827 93.2368 34.847 93.153 34.8285 93.0647C34.81 92.9765 34.809 92.8854 34.8257 92.7967C34.8424 92.7081 34.8764 92.6236 34.9257 92.5481C34.975 92.4726 35.0387 92.4075 35.1132 92.3566C35.1877 92.3058 35.2715 92.27 35.3597 92.2515C35.5717 92.2078 40.5756 91.1944 43.8911 93.9264C45.7632 95.4688 46.6949 97.8645 46.6611 101.048C46.8915 101.192 47.1255 101.345 47.3631 101.507C47.402 101.534 47.438 101.565 47.4707 101.598C47.6174 101.751 50.4224 104.73 50.2079 108.549C51.6697 109.019 53.3975 110.404 54.745 113.937C54.7845 114.041 54.7982 114.153 54.7849 114.263C54.7716 114.374 54.7317 114.479 54.6686 114.571C54.6055 114.663 54.5211 114.738 54.4226 114.789C54.3242 114.841 54.2147 114.868 54.1034 114.869ZM48.6301 109.719C48.4124 109.738 48.1973 109.781 47.9884 109.845C46.7334 110.228 46.0941 111.221 46.1539 111.478C46.3094 111.688 46.5517 111.905 47.09 111.76C47.5877 111.626 48.0115 111.255 48.2526 110.742C48.4079 110.413 48.5342 110.07 48.6301 109.719ZM41.986 100.741C41.7028 100.738 41.4209 100.78 41.1508 100.865C40.3799 101.117 39.8064 101.761 39.4467 102.78C39.3313 103.095 39.3308 103.442 39.4454 103.758C39.56 104.074 39.7822 104.339 40.0732 104.507C41.2372 105.166 42.5332 104.945 43.9257 103.849C44.583 103.333 45.0377 102.602 45.2098 101.785C43.9605 101.093 42.8718 100.741 41.986 100.741ZM201.112 127.344C201.001 127.344 200.891 127.316 200.793 127.264C200.694 127.212 200.609 127.137 200.546 127.045C200.483 126.953 200.444 126.848 200.431 126.737C200.417 126.626 200.432 126.514 200.471 126.41C201.937 122.606 203.803 121.14 205.371 120.656C205.133 116.555 208.163 113.36 208.32 113.197C208.353 113.163 208.389 113.133 208.428 113.106C208.692 112.927 208.952 112.758 209.207 112.6C209.207 112.579 209.207 112.557 209.206 112.535C209.189 109.139 210.199 106.589 212.208 104.956C215.763 102.066 221.094 103.164 221.319 103.212C221.497 103.251 221.652 103.358 221.751 103.511C221.85 103.663 221.884 103.849 221.846 104.027C221.808 104.205 221.701 104.36 221.549 104.46C221.396 104.559 221.211 104.593 221.033 104.556C220.984 104.545 216.108 103.55 213.07 106.026C211.538 107.274 210.706 109.223 210.593 111.825C212.533 110.864 214.184 110.601 215.523 111.043C216.775 111.456 217.717 112.475 218.246 113.989C218.479 114.645 218.475 115.361 218.232 116.014C217.989 116.666 217.525 117.212 216.919 117.555C215.149 118.55 213.182 118.266 211.231 116.734C210.372 116.058 209.744 115.133 209.435 114.085C209.378 114.123 209.321 114.161 209.265 114.199C208.919 114.581 206.65 117.221 206.752 120.448C208.583 120.452 210.148 121.555 210.786 122.707C211.175 123.408 211.19 124.096 210.828 124.595C210.221 125.431 209.317 125.737 208.282 125.455C207.342 125.198 206.553 124.517 206.119 123.584C205.887 123.089 205.706 122.571 205.577 122.04C204.367 122.494 202.957 123.778 201.753 126.904C201.703 127.033 201.615 127.145 201.501 127.223C201.387 127.302 201.251 127.344 201.112 127.344ZM206.946 121.832C207.048 122.235 207.188 122.627 207.365 123.004C207.628 123.57 208.094 123.98 208.643 124.129C209.251 124.295 209.526 124.05 209.716 123.788C209.797 123.555 209.181 122.508 207.894 122.032C207.589 121.92 207.27 121.852 206.946 121.832ZM210.663 113.339C210.844 114.254 211.347 115.075 212.08 115.653C213.58 116.831 214.982 117.069 216.247 116.358C216.57 116.172 216.818 115.878 216.947 115.528C217.075 115.178 217.076 114.793 216.949 114.442C216.561 113.331 215.936 112.626 215.092 112.347C214.006 111.989 212.492 112.331 210.663 113.339ZM172.723 54.7684C172.644 54.7682 172.565 54.7565 172.489 54.7337C172.282 54.6716 172.109 54.5301 172.007 54.3403C171.905 54.1505 171.882 53.928 171.944 53.7216L173.247 49.3909C173.31 49.1861 173.452 49.0146 173.641 48.9138C173.831 48.813 174.052 48.7911 174.257 48.8528C174.463 48.9145 174.635 49.0549 174.738 49.2433C174.84 49.4317 174.864 49.6529 174.803 49.8587L173.501 54.1894C173.45 54.3566 173.348 54.5031 173.208 54.6074C173.068 54.7116 172.898 54.768 172.723 54.7683V54.7684ZM168.875 67.5643C168.796 67.5641 168.717 67.5524 168.641 67.5296C168.434 67.4675 168.261 67.326 168.159 67.1363C168.057 66.9465 168.035 66.7239 168.097 66.5176L169.399 62.1868C169.462 61.982 169.604 61.8105 169.793 61.7097C169.983 61.6089 170.204 61.587 170.409 61.6487C170.615 61.7104 170.787 61.8508 170.89 62.0392C170.992 62.2276 171.016 62.4488 170.956 62.6546L169.653 66.9853C169.603 67.1525 169.5 67.2991 169.36 67.4033C169.22 67.5076 169.05 67.564 168.875 67.5643ZM175.344 56.9078C175.163 56.9079 174.987 56.8476 174.844 56.7364C174.701 56.6252 174.599 56.4694 174.555 56.2939C174.511 56.1184 174.527 55.9331 174.6 55.7675C174.673 55.6018 174.799 55.4653 174.958 55.3796L178.941 53.2382C179.035 53.1877 179.138 53.1562 179.245 53.1455C179.351 53.1348 179.458 53.1451 179.56 53.1758C179.662 53.2066 179.758 53.2571 179.84 53.3246C179.923 53.3921 179.991 53.4752 180.042 53.5692C180.092 53.6632 180.124 53.7662 180.135 53.8724C180.145 53.9786 180.135 54.0858 180.104 54.188C180.074 54.2902 180.023 54.3853 179.955 54.4679C179.888 54.5506 179.805 54.6191 179.711 54.6696L175.728 56.811C175.61 56.8746 175.478 56.9078 175.344 56.9078ZM163.574 63.2351C163.393 63.2353 163.218 63.1749 163.075 63.0637C162.932 62.9525 162.83 62.7968 162.786 62.6213C162.742 62.4457 162.757 62.2605 162.83 62.0948C162.903 61.9292 163.03 61.7927 163.189 61.707L167.172 59.5652C167.362 59.4632 167.585 59.4408 167.791 59.5029C167.997 59.565 168.171 59.7065 168.273 59.8963C168.375 60.0861 168.397 60.3087 168.335 60.515C168.273 60.7214 168.131 60.8946 167.942 60.9967L163.958 63.1383C163.84 63.2019 163.709 63.2351 163.574 63.2351ZM180.014 61.5762C179.934 61.576 179.855 61.5643 179.779 61.5416L175.449 60.2393C175.346 60.2093 175.25 60.1591 175.166 60.0918C175.083 60.0245 175.013 59.9413 174.962 59.847C174.911 59.7528 174.879 59.6493 174.868 59.5426C174.857 59.4359 174.867 59.3281 174.898 59.2253C174.929 59.1226 174.98 59.027 175.048 58.9441C175.116 58.8611 175.2 58.7924 175.294 58.742C175.389 58.6916 175.493 58.6604 175.6 58.6503C175.706 58.6401 175.814 58.6512 175.917 58.6829L180.247 59.9851C180.434 60.0413 180.594 60.1627 180.699 60.3273C180.804 60.4919 180.846 60.6886 180.817 60.8815C180.789 61.0744 180.692 61.2508 180.545 61.3783C180.397 61.5058 180.209 61.5761 180.014 61.5762ZM167.218 57.7282C167.138 57.728 167.059 57.7164 166.983 57.6936L162.653 56.3914C162.55 56.3614 162.454 56.3112 162.37 56.2439C162.287 56.1765 162.217 56.0933 162.166 55.9991C162.115 55.9048 162.083 55.8013 162.072 55.6946C162.061 55.5879 162.071 55.4801 162.102 55.3774C162.133 55.2747 162.184 55.1791 162.252 55.0961C162.32 55.0132 162.404 54.9445 162.498 54.8941C162.593 54.8437 162.697 54.8125 162.804 54.8023C162.91 54.7922 163.018 54.8033 163.121 54.835L167.451 56.1372C167.638 56.1934 167.798 56.3148 167.903 56.4794C168.008 56.6439 168.05 56.8406 168.021 57.0335C167.993 57.2265 167.896 57.4028 167.749 57.5303C167.601 57.6579 167.413 57.7281 167.218 57.7283V57.7282ZM175.685 66.8768C175.538 66.8769 175.394 66.8372 175.267 66.7619C175.141 66.6865 175.038 66.5784 174.968 66.4489L172.827 62.4658C172.777 62.3718 172.745 62.2688 172.734 62.1626C172.724 62.0564 172.734 61.9492 172.765 61.847C172.795 61.7448 172.846 61.6497 172.914 61.5671C172.981 61.4844 173.064 61.4159 173.158 61.3654C173.252 61.3149 173.355 61.2834 173.461 61.2727C173.567 61.262 173.675 61.2723 173.777 61.303C173.879 61.3338 173.974 61.3843 174.057 61.4518C174.139 61.5193 174.208 61.6025 174.258 61.6964L176.4 65.6796C176.466 65.8034 176.5 65.9422 176.496 66.0827C176.493 66.2231 176.454 66.3603 176.382 66.4809C176.31 66.6015 176.208 66.7013 176.085 66.7707C175.963 66.8401 175.825 66.8766 175.685 66.8768ZM169.358 55.1079C169.211 55.1081 169.067 55.0684 168.94 54.993C168.814 54.9177 168.711 54.8095 168.641 54.6801L166.5 50.6966C166.398 50.5068 166.376 50.2842 166.438 50.0779C166.5 49.8715 166.641 49.6983 166.831 49.5963C167.021 49.4942 167.243 49.4718 167.45 49.5339C167.656 49.596 167.829 49.7375 167.931 49.9273L170.073 53.9107C170.139 54.0345 170.173 54.1733 170.169 54.3138C170.166 54.4542 170.127 54.5914 170.055 54.712C169.983 54.8326 169.881 54.9325 169.758 55.0019C169.636 55.0713 169.498 55.1078 169.358 55.1079ZM85.5002 41.9943C85.4208 41.9941 85.3418 41.9825 85.2658 41.9597C85.0594 41.8976 84.8862 41.756 84.7842 41.5662C84.6822 41.3764 84.6598 41.1539 84.7218 40.9475L86.1597 36.1661C86.1896 36.063 86.2396 35.9668 86.3069 35.8831C86.3742 35.7993 86.4574 35.7298 86.5517 35.6785C86.6461 35.6271 86.7496 35.595 86.8565 35.5839C86.9633 35.5729 87.0712 35.5831 87.1741 35.614C87.2769 35.645 87.3726 35.696 87.4557 35.7641C87.5387 35.8322 87.6073 35.9162 87.6577 36.011C87.7081 36.1059 87.7392 36.2098 87.7491 36.3167C87.7591 36.4236 87.7478 36.5315 87.7158 36.634L86.2779 41.4154C86.2276 41.5826 86.1248 41.7292 85.9848 41.8335C85.8447 41.9377 85.6748 41.9941 85.5002 41.9943ZM81.2515 56.1226C81.1722 56.1224 81.0933 56.1108 81.0173 56.088C80.811 56.0259 80.6377 55.8844 80.5357 55.6946C80.4336 55.5048 80.4111 55.2822 80.4731 55.0759L81.9111 50.2941C81.9409 50.191 81.991 50.0948 82.0582 50.0111C82.1255 49.9274 82.2087 49.8578 82.3031 49.8065C82.3974 49.7551 82.501 49.723 82.6078 49.7119C82.7146 49.7009 82.8226 49.7111 82.9254 49.742C83.0283 49.773 83.124 49.824 83.207 49.8921C83.29 49.9603 83.3587 50.0442 83.4091 50.139C83.4594 50.2339 83.4905 50.3378 83.5005 50.4447C83.5105 50.5516 83.4991 50.6595 83.4671 50.762L82.0293 55.5437C81.979 55.7109 81.8762 55.8575 81.7361 55.9617C81.596 56.066 81.4261 56.1224 81.2515 56.1226ZM88.3933 44.3566C88.2123 44.3567 88.0363 44.2964 87.8935 44.1852C87.7506 44.074 87.649 43.9183 87.6047 43.7427C87.5605 43.5672 87.5761 43.3819 87.6492 43.2162C87.7222 43.0506 87.8485 42.9141 88.008 42.8284L92.4059 40.4639C92.4999 40.4133 92.6029 40.3818 92.7091 40.3711C92.8152 40.3604 92.9224 40.3707 93.0246 40.4015C93.1268 40.4322 93.2219 40.4828 93.3046 40.5502C93.3872 40.6177 93.4557 40.7009 93.5063 40.7948C93.5568 40.8888 93.5883 40.9918 93.599 41.098C93.6097 41.2042 93.5994 41.3114 93.5687 41.4136C93.5379 41.5158 93.4874 41.6109 93.4199 41.6935C93.3524 41.7762 93.2693 41.8447 93.1753 41.8952L88.7773 44.2597C88.6593 44.3233 88.5274 44.3566 88.3933 44.3566ZM75.3992 51.3425C75.2181 51.3426 75.0422 51.2823 74.8994 51.1711C74.7565 51.0599 74.6549 50.9042 74.6106 50.7287C74.5663 50.5531 74.5819 50.3678 74.655 50.2022C74.728 50.0365 74.8543 49.9 75.0137 49.8143L79.4115 47.4498C79.6011 47.3504 79.8222 47.3298 80.0269 47.3924C80.2316 47.4551 80.4033 47.5961 80.5047 47.7846C80.606 47.9731 80.6289 48.1941 80.5684 48.3994C80.5078 48.6047 80.3686 48.7779 80.1811 48.8812L75.7833 51.2457C75.6652 51.3092 75.5332 51.3425 75.3992 51.3425V51.3425ZM93.5496 49.5109C93.4703 49.5107 93.3914 49.499 93.3154 49.4762L88.5339 48.0385C88.3291 47.9752 88.1576 47.8334 88.0568 47.6442C87.956 47.455 87.9341 47.2336 87.9958 47.0283C88.0575 46.8229 88.1979 46.6503 88.3863 46.548C88.5747 46.4457 88.7959 46.422 89.0017 46.4821L93.7832 47.9198C93.97 47.976 94.1303 48.0974 94.2349 48.262C94.3396 48.4266 94.3816 48.6233 94.3533 48.8162C94.3249 49.0091 94.2282 49.1855 94.0806 49.313C93.9331 49.4405 93.7446 49.5108 93.5496 49.5109ZM79.4215 45.2624C79.3421 45.2622 79.2632 45.2506 79.1871 45.2278L74.4056 43.7897C74.1992 43.7276 74.0259 43.5861 73.9238 43.3963C73.8218 43.2064 73.7993 42.9838 73.8614 42.7774C73.9235 42.571 74.065 42.3978 74.2549 42.2957C74.4447 42.1937 74.6673 42.1712 74.8737 42.2333L79.6552 43.6714C79.8419 43.7276 80.0022 43.849 80.1068 44.0136C80.2114 44.1781 80.2534 44.3748 80.225 44.5677C80.1967 44.7607 80.0999 44.9369 79.9524 45.0645C79.8049 45.192 79.6165 45.2622 79.4215 45.2624ZM88.7702 55.3638C88.6232 55.3638 88.479 55.3241 88.3529 55.2487C88.2267 55.1733 88.1234 55.0651 88.0539 54.9356L85.6895 50.5375C85.5875 50.3477 85.565 50.1251 85.6271 49.9188C85.6892 49.7124 85.8307 49.5392 86.0205 49.4371C86.2103 49.3351 86.4329 49.3127 86.6392 49.3748C86.8456 49.4368 87.0188 49.5784 87.1209 49.7682L89.4852 54.1662C89.5517 54.29 89.5849 54.4288 89.5816 54.5692C89.5784 54.7097 89.5389 54.8469 89.4669 54.9674C89.3949 55.088 89.2928 55.1879 89.1707 55.2573C89.0486 55.3268 88.9106 55.3634 88.7702 55.3636V55.3638ZM81.7844 42.3694C81.6375 42.3695 81.4933 42.3297 81.3671 42.2543C81.241 42.179 81.1377 42.0708 81.0681 41.9413L78.7038 37.5433C78.6017 37.3535 78.5793 37.1309 78.6414 36.9246C78.7034 36.7182 78.845 36.545 79.0348 36.4429C79.2246 36.3409 79.4471 36.3185 79.6535 36.3805C79.8599 36.4426 80.0331 36.5841 80.1351 36.7739L82.4995 41.172C82.5659 41.2957 82.5991 41.4346 82.5959 41.575C82.5927 41.7154 82.5531 41.8526 82.4811 41.9732C82.4091 42.0938 82.3071 42.1937 82.185 42.2631C82.0629 42.3326 81.9249 42.3692 81.7844 42.3694ZM74.1007 183.329C74.1007 183.329 73.7108 187.895 68.9668 187.764C68.9668 187.764 73.0727 189.136 72.1503 193.88C72.1503 193.88 74.5216 188.807 77.4207 189.07C77.4207 189.07 73.7054 187.151 74.1007 183.329Z" fill="#102770"/>
<path d="M187.052 198.39C188 197.998 188.45 196.911 188.057 195.964C187.665 195.016 186.579 194.566 185.631 194.959C184.684 195.351 184.234 196.438 184.626 197.385C185.019 198.333 186.105 198.783 187.052 198.39Z" fill="#102770"/>
<path d="M176.131 179.103C176.131 179.103 175.758 183.474 171.217 183.348C171.217 183.348 175.147 184.662 174.264 189.203C174.264 189.203 176.534 184.346 179.309 184.599C179.309 184.599 175.753 182.761 176.131 179.103Z" fill="#102770"/>
<path d="M186.68 83.9466C187.405 83.2214 187.405 82.0456 186.68 81.3204C185.955 80.5952 184.779 80.5952 184.054 81.3204C183.328 82.0456 183.328 83.2213 184.054 83.9465C184.779 84.6717 185.955 84.6717 186.68 83.9466Z" fill="#102770"/>
<path d="M100.458 75.7776L102.883 77.1837C102.883 77.1837 104.505 72.923 109.07 72.1679L108.38 69.3685C108.38 69.3685 102.626 70.1199 100.458 75.7776Z" fill="#8BC34A"/>
<path d="M41.2555 141.763L43.868 140.745C43.868 140.745 44.8182 145.204 49.214 146.649L48.103 149.31C48.103 149.31 42.5317 147.686 41.2555 141.763Z" fill="#3BBBAC"/>
<path d="M209.056 172.784L209.504 170.273C209.504 170.273 205.357 170.211 203.293 166.542L201.114 168.003C201.114 168.003 203.545 172.689 209.056 172.784Z" fill="#FF5722"/>
<path d="M68.031 82.8471C69.0566 82.8471 69.888 82.0157 69.888 80.9901C69.888 79.9645 69.0566 79.1331 68.031 79.1331C67.0054 79.1331 66.174 79.9645 66.174 80.9901C66.174 82.0157 67.0054 82.8471 68.031 82.8471Z" fill="#102770"/>
<path d="M198.609 95.4041L196.183 94.6168C196.183 94.6168 195.555 98.7162 191.639 100.26L192.788 102.618C192.788 102.618 197.762 100.85 198.609 95.4041ZM59.581 164.32L60.8273 166.546C60.8273 166.546 56.9299 167.963 56.1816 172.106L53.6445 171.44C53.6445 171.44 54.4055 166.216 59.581 164.32Z" fill="#FFCA28"/>
<path d="M143.014 62.1997L140.465 62.2829C140.465 62.2829 141.265 66.3521 138.106 69.1339L139.987 70.9615C139.987 70.9615 144.066 67.6101 143.014 62.1997Z" fill="#3BBBAC"/>
<path d="M158.853 148.449L159.301 145.938C159.301 145.938 155.155 145.875 153.09 142.207L150.911 143.667C150.911 143.667 153.342 148.353 158.853 148.449ZM126.483 48.2032L126.931 45.6923C126.931 45.6923 122.785 45.6299 120.72 41.9613L118.541 43.4218C118.541 43.4218 120.972 48.1079 126.483 48.2032Z" fill="#FF5722"/>
</svg>
