<svg width="260" height="260" viewBox="0 0 260 260" fill="none" xmlns="http://www.w3.org/2000/svg">
<path d="M195.655 215.266H230.828V209.079H195.655V215.266Z" fill="black"/>
<path d="M230.828 215.647H195.655C195.445 215.647 195.275 215.477 195.275 215.266V209.08C195.275 208.869 195.445 208.699 195.655 208.699H230.828C231.038 208.699 231.209 208.869 231.209 209.08V215.266C231.209 215.477 231.038 215.647 230.828 215.647ZM196.035 214.885H230.446V209.459H196.035V214.885Z" fill="black"/>
<path d="M40.6911 131.629C38.9875 131.286 37.4411 130.361 36.3366 129.02C35.2311 127.681 34.6175 125.987 34.606 124.249L35.3673 124.244C35.3777 125.807 35.9299 127.33 36.9242 128.536C37.9174 129.741 39.3089 130.574 40.8408 130.882L40.6911 131.629Z" fill="white"/>
<path d="M195.654 209.078H77.9001V215.265H195.654V209.078Z" fill="white"/>
<path d="M195.654 215.647H77.9002C77.6901 215.647 77.5195 215.477 77.5195 215.266V209.08C77.5195 208.869 77.6901 208.699 77.9002 208.699H195.654C195.864 208.699 196.035 208.869 196.035 209.08V215.266C196.035 215.477 195.865 215.647 195.654 215.647ZM78.2808 214.885H195.274V209.459H78.2808V214.885Z" fill="black"/>
<path d="M188.852 138.708C188.852 138.708 183.449 139.282 175.861 142.052C169.462 144.387 161.358 150.867 161.358 150.867L154.615 129.05C153.297 125.807 138.593 134.789 139.974 137.289C139.974 137.289 145.095 167.978 153.806 171.747C164.216 176.251 194.957 155.248 194.957 155.248L188.852 138.708Z" fill="white"/>
<path d="M154.131 131.659C154.131 131.659 151.812 123.424 152.18 120.463C152.548 117.502 153.948 113.545 151.084 114.248C148.22 114.951 148.086 117.986 148.086 117.986C148.086 117.986 144.345 104.692 141.274 105.123C138.203 105.554 142.325 115.198 142.325 115.198C142.325 115.198 135.308 117.148 134.997 121.267C134.85 123.22 138.765 133.629 140.889 135.347C141.731 137.418 154.974 133.732 154.131 131.659Z" fill="white"/>
<path d="M142.84 136.332C141.722 136.332 140.878 136.118 140.583 135.585C138.376 133.654 134.465 123.277 134.619 121.238C134.905 117.453 140.255 115.458 141.813 114.955C141.13 113.287 138.937 107.566 140.09 105.52C140.337 105.083 140.728 104.815 141.222 104.746C144.008 104.358 146.906 112.759 148.05 116.512C148.439 115.517 149.261 114.304 150.993 113.879C151.74 113.695 152.315 113.786 152.701 114.148C153.537 114.936 153.207 116.757 152.856 118.686C152.745 119.297 152.63 119.93 152.559 120.51C152.212 123.296 154.375 131.11 154.494 131.538C154.834 132.434 153.743 133.401 151.251 134.413C149.003 135.325 145.27 136.332 142.84 136.332ZM141.432 105.492C141.396 105.492 141.361 105.496 141.326 105.5C141.066 105.536 140.884 105.662 140.753 105.894C139.824 107.539 141.826 113.058 142.676 115.047C142.718 115.148 142.716 115.262 142.668 115.361C142.62 115.46 142.533 115.534 142.427 115.564C142.359 115.582 135.664 117.49 135.377 121.295C135.237 123.153 139.076 133.39 141.128 135.049C141.178 135.09 141.216 135.142 141.241 135.202C141.587 136.053 146.767 135.41 150.963 133.706C153.208 132.794 153.881 132.054 153.778 131.801C153.772 131.788 153.768 131.775 153.764 131.762C153.668 131.422 151.428 123.418 151.802 120.416C151.876 119.815 151.993 119.172 152.106 118.55C152.391 116.982 152.714 115.206 152.179 114.703C151.994 114.529 151.657 114.5 151.174 114.617C148.63 115.242 148.473 117.89 148.466 118.003C148.457 118.19 148.314 118.343 148.128 118.363C147.94 118.387 147.769 118.268 147.719 118.089C146.332 113.16 143.426 105.492 141.432 105.492Z" fill="black"/>
<path d="M142.429 115.313L144.671 120.709C145.037 121.59 144.646 122.589 143.798 122.942C142.949 123.294 141.965 122.867 141.599 121.986L139.357 116.59C138.991 115.709 139.381 114.708 140.229 114.355C140.655 114.178 141.113 114.199 141.51 114.371C141.91 114.545 142.247 114.874 142.429 115.313Z" fill="white"/>
<path d="M143.18 123.447C142.905 123.447 142.63 123.39 142.367 123.275C141.86 123.055 141.463 122.649 141.249 122.131L139.006 116.736C138.56 115.662 139.044 114.435 140.084 114.003C140.59 113.793 141.151 113.799 141.662 114.021C142.168 114.242 142.565 114.649 142.781 115.166L145.023 120.562C145.238 121.079 145.245 121.648 145.044 122.16C144.841 122.679 144.45 123.081 143.943 123.292C143.698 123.396 143.439 123.447 143.18 123.447ZM140.847 114.612C140.687 114.612 140.527 114.643 140.376 114.707C139.723 114.978 139.424 115.757 139.709 116.444L141.952 121.839C142.09 122.174 142.346 122.435 142.67 122.576C142.991 122.716 143.339 122.72 143.652 122.59C143.966 122.46 144.208 122.209 144.335 121.885C144.464 121.555 144.459 121.19 144.32 120.855L142.078 115.46C141.938 115.124 141.683 114.862 141.358 114.72C141.192 114.649 141.02 114.612 140.847 114.612Z" fill="black"/>
<path d="M139.406 116.739L141.568 121.942C141.92 122.791 141.544 123.755 140.726 124.095C139.907 124.435 138.959 124.022 138.606 123.173L136.444 117.97C136.091 117.122 136.467 116.156 137.285 115.815C137.695 115.645 138.137 115.665 138.52 115.831C138.904 115.998 139.23 116.316 139.406 116.739Z" fill="white"/>
<path d="M140.129 124.596C139.861 124.596 139.594 124.541 139.339 124.43C138.848 124.217 138.462 123.822 138.253 123.32L136.091 118.117C135.658 117.075 136.128 115.884 137.138 115.464C137.629 115.26 138.174 115.265 138.669 115.482C139.161 115.696 139.547 116.09 139.756 116.593L141.918 121.796C142.127 122.299 142.135 122.85 141.939 123.348C141.742 123.853 141.363 124.243 140.871 124.446C140.633 124.546 140.381 124.596 140.129 124.596ZM137.88 116.078C137.727 116.078 137.575 116.108 137.431 116.168C136.808 116.427 136.523 117.171 136.795 117.826L138.958 123.029C139.09 123.348 139.334 123.598 139.643 123.732C139.948 123.864 140.28 123.868 140.579 123.744C140.878 123.62 141.109 123.381 141.231 123.072C141.354 122.757 141.348 122.408 141.215 122.09L139.053 116.887C138.92 116.566 138.677 116.316 138.367 116.182C138.209 116.112 138.043 116.078 137.88 116.078Z" fill="black"/>
<path d="M136.831 118.933L138.653 123.318C138.95 124.034 138.578 124.869 137.821 125.183C137.064 125.498 136.209 125.172 135.911 124.457L134.24 120.435C133.943 119.72 134.163 118.519 134.92 118.204C135.3 118.046 135.702 118.05 136.047 118.181C136.395 118.315 136.682 118.577 136.831 118.933Z" fill="white"/>
<path d="M137.224 125.685C136.998 125.685 136.772 125.644 136.558 125.563C136.099 125.389 135.744 125.049 135.56 124.604L133.889 120.583C133.51 119.671 133.821 118.251 134.775 117.854C135.23 117.665 135.731 117.655 136.183 117.827C136.642 118.002 136.997 118.343 137.182 118.788L139.004 123.172C139.382 124.08 138.916 125.141 137.966 125.535C137.726 125.635 137.474 125.685 137.224 125.685ZM135.516 118.466C135.364 118.466 135.211 118.497 135.066 118.558C134.551 118.772 134.359 119.731 134.591 120.291L136.262 124.312C136.365 124.561 136.566 124.752 136.828 124.852C137.097 124.954 137.396 124.948 137.673 124.832C138.235 124.599 138.516 123.986 138.3 123.465L136.478 119.08C136.374 118.83 136.173 118.639 135.911 118.539C135.784 118.49 135.651 118.466 135.516 118.466Z" fill="black"/>
<path d="M148.086 117.986C148.086 117.986 146.931 120.899 147.921 122.867C147.921 122.867 146.191 123.91 145.433 125.717C144.674 127.526 145.553 129.048 145.553 129.048" fill="white"/>
<path d="M145.552 129.429C145.42 129.429 145.293 129.361 145.222 129.239C145.183 129.169 144.259 127.529 145.081 125.57C145.698 124.099 146.897 123.118 147.443 122.727C146.635 120.66 147.684 117.964 147.732 117.844C147.809 117.649 148.029 117.553 148.226 117.63C148.422 117.707 148.517 117.929 148.44 118.124C148.43 118.151 147.362 120.904 148.261 122.694C148.351 122.872 148.288 123.088 148.118 123.191C148.101 123.202 146.481 124.198 145.783 125.864C145.111 127.466 145.851 128.803 145.883 128.859C145.986 129.041 145.923 129.274 145.74 129.378C145.682 129.412 145.617 129.429 145.552 129.429Z" fill="black"/>
<path d="M156.508 135.774C156.508 135.774 144.64 138.424 141.434 144.761L139.975 137.289C138.594 134.788 153.296 125.806 154.616 129.048L156.508 135.774Z" fill="#FEC524"/>
<path d="M157.359 172.76C155.962 172.76 154.71 172.554 153.655 172.097C144.96 168.335 139.931 139.324 139.609 137.41C139.389 136.944 139.508 136.359 139.963 135.666C141.932 132.675 150.243 127.649 153.55 127.988C154.449 128.076 154.818 128.537 154.968 128.907L161.559 150.227C163.34 148.851 170.197 143.713 175.731 141.694C183.275 138.941 188.757 138.335 188.812 138.329C188.986 138.313 189.149 138.413 189.209 138.576L195.315 155.116C195.375 155.28 195.316 155.464 195.173 155.563C194.038 156.338 169.843 172.759 157.359 172.76ZM153.209 128.732C150.052 128.732 142.333 133.449 140.6 136.084C140.3 136.54 140.196 136.902 140.307 137.104C140.328 137.142 140.343 137.183 140.35 137.226C140.401 137.531 145.536 167.753 153.957 171.397C163.572 175.561 191.569 157.064 194.498 155.099L188.6 139.123C187.379 139.287 182.459 140.048 175.993 142.409C169.727 144.696 161.677 151.101 161.596 151.164C161.498 151.243 161.366 151.267 161.247 151.231C161.126 151.193 161.033 151.1 160.995 150.979L154.252 129.163C154.224 129.098 154.105 128.807 153.475 128.746C153.391 128.736 153.301 128.732 153.209 128.732Z" fill="black"/>
<path d="M188.146 202.048C187.957 202.048 187.793 201.907 187.769 201.714C186.107 188.156 193.188 140.977 195.237 137.627C195.347 137.447 195.582 137.391 195.761 137.5C195.941 137.611 195.997 137.845 195.888 138.025C193.861 141.338 186.874 188.145 188.525 201.621C188.551 201.83 188.402 202.02 188.193 202.045C188.178 202.048 188.162 202.048 188.146 202.048Z" fill="black"/>
<path d="M178.202 156.098C175.137 174.176 174.91 203.479 174.436 209.078H223.533C227.043 196.484 235.223 150.927 229.961 143.979C223.66 135.66 206.417 136.494 198.338 137.005C193.624 137.304 189.996 137.768 181.44 140.451" fill="white"/>
<path d="M223.533 209.459H174.436C174.329 209.459 174.228 209.414 174.155 209.336C174.084 209.258 174.047 209.152 174.057 209.046C174.175 207.643 174.281 204.653 174.416 200.868C174.833 189.165 175.53 169.578 177.827 156.034C177.862 155.826 178.058 155.689 178.265 155.722C178.473 155.758 178.613 155.954 178.577 156.161C176.289 169.656 175.594 189.211 175.178 200.895C175.05 204.488 174.954 207.173 174.847 208.697H223.243C226.997 195 234.659 150.814 229.657 144.207C223.294 135.806 205.182 136.953 198.362 137.385C193.439 137.697 190.231 138.01 181.557 140.813C181.356 140.878 181.142 140.768 181.078 140.567C181.013 140.368 181.122 140.152 181.323 140.088C190.066 137.262 193.476 136.931 198.315 136.624C205.245 136.185 223.655 135.02 230.264 143.747C235.783 151.033 227.12 197.622 223.901 209.178C223.854 209.346 223.704 209.459 223.533 209.459Z" fill="black"/>
<path d="M186.481 177.442C186.481 177.442 179.201 171.013 176.643 171.817C174.085 172.621 178.118 177.509 178.118 177.509C178.118 177.509 167.196 173.619 166.092 175.254C164.99 176.888 171.316 179.154 171.316 179.154C171.316 179.154 165.608 178.7 164.543 179.664C163.478 180.628 164.466 181.939 165.603 182.242C165.603 182.242 163.042 183.821 165.63 185.385C165.63 185.385 164 186.621 166.426 187.871C168.852 189.122 174.333 190.061 176.231 190.128C180.678 190.284 184.929 189.032 184.929 189.032C186.679 186.163 188.807 180.773 186.481 177.442Z" fill="white"/>
<path d="M177.02 190.522C176.754 190.522 176.487 190.518 176.218 190.507C174.413 190.444 168.776 189.51 166.251 188.208C165.29 187.713 164.774 187.133 164.718 186.487C164.681 186.055 164.861 185.696 165.046 185.45C164.416 184.976 164.095 184.447 164.092 183.871C164.089 183.224 164.502 182.688 164.866 182.343C164.31 182.021 163.884 181.508 163.751 180.961C163.612 180.383 163.802 179.821 164.288 179.382C165.014 178.724 167.322 178.631 169.136 178.666C167.688 177.993 165.966 177.009 165.644 176.025C165.531 175.679 165.576 175.339 165.777 175.041C166.813 173.508 173.643 175.581 177.059 176.74C176.238 175.568 175.124 173.674 175.484 172.458C175.585 172.119 175.847 171.67 176.53 171.455C179.213 170.615 185.973 176.486 186.734 177.158C186.757 177.178 186.777 177.2 186.794 177.225C189.073 180.49 187.389 185.734 185.254 189.232C185.205 189.313 185.127 189.373 185.037 189.4C184.87 189.446 181.165 190.522 177.02 190.522ZM168.509 179.425C166.841 179.425 165.231 179.555 164.798 179.946C164.522 180.197 164.418 180.477 164.492 180.782C164.605 181.25 165.125 181.72 165.702 181.874C165.849 181.914 165.958 182.036 165.98 182.187C166.002 182.337 165.932 182.487 165.803 182.567C165.538 182.731 164.85 183.288 164.854 183.87C164.857 184.27 165.184 184.671 165.827 185.06C165.935 185.125 166.004 185.24 166.01 185.365C166.016 185.491 165.96 185.612 165.859 185.689C165.857 185.691 165.439 186.021 165.476 186.426C165.51 186.789 165.899 187.171 166.6 187.533C169.03 188.786 174.491 189.687 176.244 189.748C180.131 189.885 183.914 188.917 184.68 188.707C186.65 185.421 188.197 180.626 186.194 177.698C184.184 175.928 178.671 171.578 176.756 172.181C176.364 172.304 176.258 172.521 176.213 172.673C175.907 173.707 177.398 176.04 178.41 177.267C178.519 177.399 178.526 177.588 178.428 177.728C178.33 177.868 178.15 177.926 177.988 177.868C172.869 176.045 166.984 174.607 166.406 175.466C166.338 175.568 166.325 175.664 166.366 175.786C166.687 176.767 169.651 178.152 171.444 178.794C171.624 178.858 171.728 179.045 171.688 179.233C171.648 179.42 171.473 179.551 171.286 179.532C170.492 179.47 169.491 179.425 168.509 179.425Z" fill="black"/>
<path d="M170.99 183.071C170.979 183.071 170.969 183.071 170.957 183.07L165.571 182.621C165.361 182.603 165.206 182.42 165.224 182.21C165.24 182.001 165.421 181.839 165.635 181.863L171.021 182.312C171.231 182.33 171.386 182.513 171.368 182.723C171.352 182.921 171.186 183.071 170.99 183.071ZM171.056 186.074C171.049 186.074 171.042 186.074 171.034 186.073L165.609 185.764C165.398 185.752 165.238 185.571 165.25 185.362C165.261 185.152 165.445 184.997 165.651 185.004L171.077 185.312C171.287 185.324 171.447 185.505 171.436 185.714C171.424 185.918 171.257 186.074 171.056 186.074Z" fill="black"/>
<path d="M227.442 198.611C222.72 202.887 201.065 197.292 190.773 194.306C187.445 193.343 185.308 192.65 185.308 192.65C182.495 192.7 185.79 175.843 188.603 175.796L193.695 177.007L215.083 182.096L218.141 154.326L223.46 139.294C223.46 139.294 231.171 141.85 234.578 151.779C237.856 161.329 233.925 192.739 227.442 198.611Z" fill="white"/>
<path d="M190.774 194.305C187.446 193.342 185.309 192.649 185.309 192.649C182.496 192.698 185.791 175.842 188.604 175.795L193.696 177.006C193.696 177.007 187.989 187.679 190.774 194.305Z" fill="#FEC524"/>
<path d="M186.999 190.383C187.633 190.383 188.146 189.87 188.146 189.236C188.146 188.603 187.633 188.089 186.999 188.089C186.366 188.089 185.852 188.603 185.852 189.236C185.852 189.87 186.366 190.383 186.999 190.383Z" fill="white"/>
<path d="M220.803 200.531C208.744 200.531 186.923 193.571 185.247 193.03C184.893 193.014 184.44 192.817 184.156 192.034C183.974 191.531 183.874 190.82 183.858 189.921C183.78 185.416 186.022 175.459 188.599 175.415C188.627 175.411 188.662 175.418 188.693 175.425L214.755 181.625L217.766 154.284C217.788 154.075 217.975 153.925 218.186 153.947C218.395 153.97 218.546 154.158 218.523 154.367L215.464 182.136C215.453 182.244 215.394 182.343 215.305 182.406C215.216 182.469 215.104 182.491 214.997 182.465L188.573 176.178C188.396 176.203 187.992 176.391 187.411 177.44C185.404 181.06 183.891 190.201 184.994 192.039C185.132 192.27 185.25 192.266 185.303 192.268C185.345 192.267 185.386 192.273 185.427 192.287C185.784 192.402 221.171 203.772 227.185 198.326C233.527 192.583 237.465 161.371 234.217 151.9C230.917 142.28 223.415 139.678 223.34 139.653C223.14 139.587 223.033 139.371 223.099 139.172C223.165 138.972 223.381 138.866 223.579 138.93C223.902 139.038 231.51 141.659 234.938 151.654C236.504 156.218 236.546 166.02 235.046 176.626C233.46 187.836 230.713 196.16 227.697 198.892C226.404 200.062 223.932 200.531 220.803 200.531Z" fill="black"/>
<path d="M207.116 131.075C207.116 131.075 211.114 132.813 212.283 137.238C212.283 137.238 212.803 146 197.32 145.978C198.129 143.388 196.537 140.089 195.562 137.827L207.116 131.075Z" fill="#FEC524"/>
<path d="M197.382 146.357C197.24 146.359 197.098 146.316 197.014 146.202C196.943 146.104 196.922 145.979 196.958 145.863C197.667 143.596 196.376 140.641 195.434 138.484L195.213 137.977C195.137 137.8 195.204 137.594 195.37 137.497L206.925 130.746C207.03 130.684 207.159 130.677 207.269 130.725C207.439 130.799 211.45 132.589 212.653 137.14C212.659 137.165 212.663 137.19 212.664 137.214C212.671 137.323 212.795 139.88 210.523 142.288C207.974 144.988 203.552 146.357 197.382 146.357ZM196.046 137.984L196.132 138.18C197.058 140.301 198.305 143.156 197.812 145.594C203.526 145.533 207.608 144.252 209.952 141.782C211.87 139.762 211.908 137.59 211.904 137.292C210.92 133.644 207.884 131.891 207.133 131.506L196.046 137.984Z" fill="black"/>
<path d="M195.563 137.826C195.563 137.826 190.692 140.148 189.523 144.943C189.523 144.943 187.552 141.66 188.191 138.403C188.984 134.371 192.467 132.718 192.467 132.718L195.563 137.826Z" fill="#FEC524"/>
<path d="M189.522 145.323C189.39 145.323 189.265 145.255 189.196 145.138C189.113 144.999 187.155 141.692 187.817 138.328C188.636 134.156 192.152 132.443 192.302 132.372C192.479 132.289 192.69 132.352 192.791 132.519L195.887 137.628C195.943 137.72 195.957 137.832 195.927 137.935C195.895 138.038 195.823 138.123 195.726 138.17C195.679 138.193 191.004 140.477 189.893 145.033C189.856 145.183 189.732 145.296 189.58 145.319C189.561 145.322 189.542 145.323 189.522 145.323ZM192.33 133.228C191.497 133.727 189.175 135.371 188.564 138.476C188.146 140.603 188.914 142.775 189.432 143.921C190.72 140.321 193.925 138.288 195.026 137.677L192.33 133.228Z" fill="black"/>
<path d="M206.535 118.093L207.145 131.732C207.148 135.134 192.519 142.713 192.466 132.879V121.639L206.535 118.093Z" fill="white"/>
<path d="M196.928 138.117C193.823 138.117 192.104 136.259 192.085 132.88V121.638C192.085 121.464 192.203 121.312 192.373 121.269L206.442 117.723C206.551 117.695 206.671 117.718 206.762 117.786C206.854 117.855 206.91 117.961 206.915 118.075L207.526 131.714C207.529 134.284 201.205 138.104 196.953 138.118C196.945 138.117 196.936 138.117 196.928 138.117ZM192.846 121.935V132.878C192.862 135.849 194.236 137.356 196.927 137.356C196.935 137.356 196.943 137.356 196.95 137.356C201.268 137.342 206.766 133.533 206.764 131.732L206.175 118.577L192.846 121.935Z" fill="black"/>
<path d="M206.496 118.132C206.496 118.132 213.195 114.497 212.162 110.521C211.129 106.548 206.509 110.446 206.509 110.446C206.509 110.446 210.992 96.9998 199.604 93.549C196.371 92.5704 193.384 94.225 190.979 97.2202C184.746 104.987 181.507 122.323 188.987 125.439C194.017 127.533 198.853 125.696 201.612 123.729" fill="white"/>
<path d="M193.614 126.755C192.124 126.755 190.513 126.487 188.841 125.79C186.832 124.953 185.463 123.154 184.771 120.44C183.111 113.936 185.874 102.975 190.683 96.9821C193.442 93.5438 196.566 92.2303 199.715 93.184C202.838 94.1304 205.09 95.9026 206.408 98.4495C208.501 102.496 207.689 107.364 207.17 109.491C208.135 108.86 209.69 108.065 210.934 108.462C211.72 108.711 212.257 109.372 212.53 110.424C213.625 114.641 206.962 118.311 206.677 118.465C206.493 118.565 206.262 118.497 206.161 118.312C206.06 118.127 206.13 117.896 206.314 117.796C206.379 117.76 212.738 114.258 211.793 110.615C211.587 109.822 211.23 109.355 210.703 109.188C209.447 108.786 207.426 110.169 206.754 110.736C206.624 110.846 206.437 110.856 206.294 110.76C206.153 110.664 206.094 110.486 206.147 110.324C206.169 110.259 208.288 103.739 205.729 98.7958C204.509 96.4392 202.411 94.796 199.494 93.912C195.921 92.8314 193.054 95.2432 191.277 97.4574C186.594 103.292 183.898 113.942 185.508 120.251C186.137 122.72 187.357 124.347 189.133 125.086C194.946 127.506 199.985 124.42 201.391 123.417C201.563 123.295 201.8 123.335 201.922 123.505C202.044 123.677 202.004 123.914 201.834 124.037C200.749 124.811 197.621 126.755 193.614 126.755Z" fill="black"/>
<path d="M197.942 109.226C198.079 108.555 197.774 107.925 197.259 107.82C196.745 107.715 196.217 108.174 196.079 108.845C195.942 109.516 196.247 110.146 196.762 110.251C197.276 110.357 197.804 109.898 197.942 109.226Z" fill="black"/>
<path d="M191.938 106.278C192.076 105.607 191.77 104.977 191.256 104.872C190.741 104.767 190.213 105.226 190.076 105.897C189.938 106.568 190.244 107.198 190.758 107.303C191.273 107.408 191.801 106.949 191.938 106.278Z" fill="black"/>
<path d="M197.011 105.395C197.011 105.395 198.92 105.132 199.98 107.434Z" fill="white"/>
<path d="M199.98 107.815C199.835 107.815 199.698 107.733 199.633 107.593C198.714 105.592 197.127 105.765 197.061 105.772C196.851 105.801 196.663 105.652 196.636 105.444C196.609 105.236 196.753 105.045 196.96 105.017C197.051 105.003 199.163 104.745 200.326 107.275C200.414 107.466 200.33 107.692 200.139 107.78C200.087 107.804 200.033 107.815 199.98 107.815Z" fill="black"/>
<path d="M190.213 103.438C191.043 102.849 192.756 102.438 193.579 104.717Z" fill="white"/>
<path d="M193.58 105.096C193.424 105.096 193.279 104.999 193.223 104.844C192.939 104.06 192.532 103.581 192.011 103.419C191.442 103.24 190.823 103.472 190.434 103.748C190.263 103.871 190.026 103.829 189.903 103.658C189.781 103.486 189.822 103.249 189.993 103.126C190.253 102.941 191.187 102.362 192.238 102.691C192.998 102.929 193.57 103.565 193.938 104.586C194.01 104.783 193.907 105.002 193.709 105.073C193.667 105.09 193.623 105.096 193.58 105.096Z" fill="black"/>
<path d="M193.459 108.54C192.493 110.173 191.526 111.807 190.56 113.441C190.401 113.71 190.238 113.993 190.222 114.305C190.202 114.711 190.443 115.093 190.759 115.346C191.075 115.6 191.462 115.748 191.842 115.89" fill="white"/>
<path d="M191.843 116.271C191.798 116.271 191.752 116.263 191.708 116.246C191.325 116.101 190.89 115.937 190.523 115.643C190.074 115.282 189.819 114.775 189.844 114.286C189.864 113.872 190.069 113.525 190.235 113.247L193.133 108.346C193.24 108.165 193.474 108.105 193.654 108.212C193.835 108.319 193.896 108.553 193.788 108.733L190.89 113.635C190.762 113.852 190.615 114.097 190.605 114.323C190.59 114.613 190.799 114.888 190.999 115.049C191.273 115.268 191.631 115.403 191.978 115.534C192.174 115.607 192.274 115.828 192.2 116.024C192.141 116.177 191.996 116.271 191.843 116.271Z" fill="black"/>
<path d="M194.759 119.035C193.705 119.716 192.444 119.823 191.372 119.321Z" fill="white"/>
<path d="M192.783 120.015C192.243 120.015 191.708 119.9 191.21 119.667C191.02 119.577 190.938 119.35 191.027 119.16C191.117 118.97 191.343 118.888 191.534 118.977C192.483 119.421 193.612 119.324 194.552 118.716C194.729 118.602 194.965 118.653 195.078 118.829C195.192 119.006 195.141 119.242 194.965 119.356C194.29 119.792 193.533 120.015 192.783 120.015Z" fill="black"/>
<path d="M187.343 92.3062C190.014 101.91 205.487 98.4048 204.249 100.371C202.43 103.261 204.493 111.713 205.231 111.884C205.969 112.06 206.51 110.446 206.51 110.446C206.51 110.446 211.129 106.548 212.163 110.521C213.196 114.498 206.497 118.132 206.497 118.132C215.666 119.393 221.427 108.092 221.791 101.156C222.155 94.2188 217.696 93.5251 217.696 93.5251C218.46 89.6792 214.5 86.4614 210.985 86.9159C207.471 87.3673 194.4 90.5247 194.833 84.2036C190.062 81.1938 185.668 86.2815 187.343 92.3062Z" fill="black"/>
<path d="M207.92 118.611C207.433 118.611 206.941 118.577 206.445 118.508C206.282 118.486 206.152 118.361 206.123 118.199C206.093 118.037 206.171 117.875 206.315 117.796C206.38 117.76 212.739 114.258 211.794 110.615C211.588 109.822 211.231 109.355 210.704 109.188C209.494 108.801 207.574 110.072 206.834 110.671C206.66 111.144 206.087 112.477 205.144 112.253C204.882 112.192 204.676 111.928 204.434 111.339C203.549 109.186 202.312 102.844 203.895 100.221C203.534 100.066 202.357 99.9981 201.307 99.9388C196.962 99.6902 188.874 99.2295 186.977 92.4082C186.029 88.997 186.917 85.5702 189.189 83.8812C190.894 82.6134 193.025 82.6134 195.036 83.8833C195.155 83.9582 195.223 84.0913 195.213 84.2317C195.148 85.1895 195.413 85.9238 196.023 86.477C198.412 88.6402 205.359 87.464 209.093 86.8327C209.831 86.7079 210.468 86.5998 210.939 86.5394C212.932 86.2805 215.088 87.1052 216.566 88.6881C217.798 90.0058 218.346 91.6126 218.13 93.2495C219.251 93.6125 222.488 95.186 222.174 101.177C221.935 105.737 219.387 112.26 214.981 115.902C212.799 117.703 210.429 118.611 207.92 118.611ZM207.701 117.847C210.112 117.898 212.393 117.05 214.493 115.314C218.73 111.811 221.18 105.531 221.41 101.136C221.75 94.6535 217.802 93.9297 217.635 93.9016C217.533 93.885 217.441 93.8278 217.383 93.7425C217.324 93.6572 217.302 93.5532 217.321 93.4513C217.621 91.9412 217.154 90.4342 216.007 89.206C214.712 87.8207 212.76 87.0678 211.033 87.2934C210.578 87.3517 209.947 87.4578 209.217 87.5826C205.086 88.2804 198.172 89.4504 195.51 87.0407C194.778 86.3782 194.419 85.4953 194.44 84.4126C192.767 83.435 191.028 83.46 189.642 84.4906C187.96 85.7418 186.71 88.6111 187.71 92.2033C189.46 98.4984 196.902 98.9238 201.348 99.1775C203.485 99.2992 204.363 99.3699 204.631 99.891C204.693 100.011 204.768 100.259 204.569 100.573C202.932 103.172 204.759 110.732 205.367 111.513C205.597 111.471 205.966 110.864 206.147 110.324C206.169 110.258 206.209 110.198 206.262 110.154C206.373 110.06 209.019 107.852 210.933 108.462C211.719 108.711 212.256 109.372 212.529 110.424C213.376 113.679 209.599 116.608 207.701 117.847Z" fill="black"/>
<path d="M200.311 98.1365C198.544 97.7506 196.718 97.3534 195.008 96.6243C193.047 95.7871 191.556 94.64 190.577 93.2152C189.416 91.5242 189.075 89.4078 189.687 87.6897L190.404 87.9445C189.873 89.4369 190.18 91.2912 191.205 92.7836C192.088 94.069 193.507 95.1548 195.308 95.9234C196.951 96.6243 198.742 97.0143 200.474 97.3918L200.311 98.1365Z" fill="white"/>
<path d="M200.006 95.4065C198.871 95.4065 197.736 95.1132 196.746 94.5558C195.538 93.8756 194.554 92.8065 193.976 91.546L194.668 91.2288C195.18 92.3447 196.05 93.2901 197.12 93.8922C198.19 94.4944 199.45 94.7471 200.669 94.6067L200.756 95.3628C200.508 95.3919 200.256 95.4065 200.006 95.4065Z" fill="white"/>
<path d="M214.627 93.4409L213.911 93.1798C214.28 92.1721 213.898 90.9428 213.024 90.3198C212.579 90.0026 212 89.8113 211.302 89.751L211.366 88.9918C212.203 89.0635 212.909 89.3017 213.466 89.699C214.609 90.5143 215.107 92.1222 214.627 93.4409Z" fill="white"/>
<path d="M217.227 111.468L216.58 111.065C218.687 107.685 219.508 103.494 218.831 99.5686L219.581 99.4396C220.29 103.547 219.432 107.931 217.227 111.468Z" fill="white"/>
<path d="M204.631 106.4C204.147 105.05 204.279 103.499 204.984 102.25L205.648 102.624C205.05 103.684 204.938 104.998 205.349 106.142L204.631 106.4Z" fill="white"/>
<path d="M142.985 139.645C143.686 139.645 144.254 139.077 144.254 138.376C144.254 137.675 143.686 137.107 142.985 137.107C142.285 137.107 141.717 137.675 141.717 138.376C141.717 139.077 142.285 139.645 142.985 139.645Z" fill="white"/>
<path d="M106.55 147.145C106.55 147.145 108.256 138.27 110.597 137.407C112.938 136.544 112.748 142.437 112.748 142.437C112.748 142.437 118.58 133.359 120.322 133.936C122.064 134.514 118.693 139.78 118.693 139.78C118.693 139.78 122.64 136.199 123.972 136.303C125.304 136.407 125.322 137.934 124.658 138.806C124.658 138.806 127.442 138.511 126.426 141.135C126.426 141.135 128.329 141.118 127.253 143.418C126.178 145.719 122.676 149.528 121.316 150.658C118.129 153.301 114.288 154.798 114.288 154.798C111.365 153.682 106.732 150.923 106.55 147.145Z" fill="white"/>
<path d="M114.287 155.179C114.241 155.179 114.194 155.171 114.15 155.154C110.581 153.789 106.349 150.877 106.169 147.164C106.168 147.134 106.17 147.104 106.176 147.074C106.355 146.144 107.993 137.961 110.465 137.05C111.1 136.816 111.557 137 111.828 137.198C112.773 137.88 113.041 139.853 113.11 141.187C114.988 138.368 118.797 133.032 120.439 133.576C120.765 133.683 120.998 133.912 121.114 134.24C121.43 135.131 120.766 136.776 120.098 138.084C121.406 137.04 123.12 135.867 123.999 135.925C124.617 135.973 125.085 136.284 125.315 136.798C125.527 137.274 125.509 137.886 125.293 138.439C125.758 138.492 126.354 138.658 126.716 139.131C127.043 139.559 127.112 140.131 126.923 140.834C127.199 140.915 127.528 141.08 127.743 141.415C128.075 141.931 128.025 142.66 127.596 143.58C126.495 145.933 123.011 149.743 121.556 150.951C118.359 153.604 114.583 155.091 114.424 155.152C114.38 155.171 114.333 155.179 114.287 155.179ZM106.933 147.172C107.125 150.452 110.973 153.092 114.282 154.389C114.987 154.098 118.302 152.663 121.071 150.365C122.325 149.324 125.831 145.559 126.906 143.258C127.209 142.611 127.279 142.105 127.106 141.83C126.911 141.522 126.429 141.517 126.424 141.517C126.299 141.517 126.181 141.455 126.11 141.351C126.04 141.248 126.023 141.116 126.069 140.998C126.318 140.355 126.333 139.882 126.114 139.594C125.792 139.173 124.983 139.153 124.696 139.184C124.546 139.201 124.399 139.124 124.325 138.991C124.251 138.859 124.262 138.694 124.354 138.574C124.686 138.14 124.801 137.51 124.621 137.108C124.505 136.848 124.283 136.71 123.942 136.683C123.93 136.682 123.917 136.682 123.904 136.682C123.057 136.682 120.513 138.643 118.949 140.062C118.808 140.19 118.593 140.194 118.448 140.071C118.302 139.949 118.27 139.735 118.373 139.575C119.325 138.087 120.717 135.391 120.399 134.495C120.361 134.389 120.305 134.333 120.203 134.298C119.334 134.012 115.809 138.38 113.071 142.643C112.978 142.787 112.8 142.852 112.637 142.801C112.474 142.75 112.364 142.596 112.37 142.425C112.417 140.95 112.191 138.395 111.386 137.815C111.272 137.731 111.078 137.637 110.731 137.765C108.985 138.407 107.407 144.728 106.933 147.172Z" fill="black"/>
<path d="M120.945 142.581C120.842 142.581 120.739 142.539 120.664 142.457C120.523 142.302 120.533 142.061 120.688 141.919L124.399 138.525C124.554 138.383 124.795 138.394 124.936 138.549C125.078 138.704 125.067 138.945 124.912 139.086L121.202 142.481C121.129 142.549 121.036 142.581 120.945 142.581ZM122.604 144.83C122.497 144.83 122.391 144.786 122.315 144.699C122.178 144.54 122.195 144.3 122.354 144.162L126.174 140.848C126.333 140.711 126.573 140.728 126.712 140.887C126.849 141.046 126.832 141.286 126.673 141.424L122.853 144.738C122.78 144.8 122.692 144.83 122.604 144.83ZM67.2703 110.396C77.0567 127.75 68.6036 135.676 66.7712 141.62C64.9387 147.565 72.5993 156.19 61.2852 153.254C60.266 152.99 59.2915 151.995 58.6467 150.219C57.5703 147.252 51.0599 140.202 51.3417 136.388C51.6111 132.748 58.6123 131.789 58.8817 128.149C59.0252 126.2 59.1667 124.151 58.8827 122.286C58.37 118.92 56.7216 117.415 55.2812 116.119C53.8408 114.823 52.2319 112.755 52.0499 109.21C51.9397 107.057 52.4285 104.922 53.118 103.45C55.2906 98.8094 57.4007 100.494 60.0018 102.127C62.6236 103.772 64.9803 106.337 67.2703 110.396Z" fill="black"/>
<path d="M64.9802 154.232C63.9995 154.232 62.7515 154.029 61.1894 153.624C59.9706 153.307 58.9399 152.144 58.2889 150.349C57.9124 149.311 56.7767 147.656 55.5734 145.905C53.3229 142.628 50.7728 138.914 50.9621 136.36C51.1108 134.348 53.041 133.127 54.9078 131.946C56.6935 130.816 58.3804 129.749 58.501 128.12C58.6362 126.287 58.7902 124.21 58.5052 122.342C58.0091 119.085 56.4231 117.659 55.0254 116.401C52.9173 114.504 51.819 112.158 51.6682 109.229C51.5642 107.206 51.9771 104.985 52.7727 103.288C53.6286 101.459 54.523 100.463 55.5859 100.153C56.967 99.7506 58.3378 100.619 59.7865 101.539L60.2035 101.804C63.0115 103.565 65.3619 106.236 67.6021 110.208C75.555 124.31 71.6394 132.21 68.7804 137.978C68.0867 139.378 67.4866 140.587 67.1341 141.731C66.5194 143.723 67.0363 146.09 67.4908 148.177C67.989 150.462 68.4195 152.434 67.3036 153.506C66.8013 153.991 66.0483 154.232 64.9802 154.232ZM56.3035 100.816C56.1319 100.816 55.9635 100.837 55.7991 100.886C54.9723 101.126 54.209 102.019 53.4622 103.612C52.7176 105.202 52.3307 107.287 52.4295 109.192C52.5689 111.908 53.585 114.082 55.535 115.836C56.9546 117.113 58.7215 118.702 59.2582 122.229C59.5566 124.182 59.3996 126.305 59.2613 128.177C59.1126 130.188 57.1823 131.409 55.3155 132.591C53.5298 133.72 51.843 134.787 51.7223 136.417C51.5538 138.705 54.131 142.459 56.2026 145.475C57.487 147.345 58.5957 148.961 59.0054 150.091C59.5681 151.643 60.4126 152.637 61.3808 152.888C64.2814 153.64 66.0452 153.664 66.7774 152.961C67.5854 152.184 67.1975 150.404 66.7482 148.342C66.273 146.164 65.7343 143.694 66.4071 141.51C66.7784 140.306 67.4201 139.013 68.0992 137.642C70.8822 132.027 74.6938 124.336 66.9396 110.585C64.7639 106.728 62.4957 104.144 59.8 102.451L59.3799 102.185C58.2348 101.457 57.2239 100.816 56.3035 100.816Z" fill="black"/>
<path d="M33.8063 110.09C31.5235 112.7 31.1439 116.941 31.7928 120.618C32.4418 124.297 33.9456 127.676 34.9461 131.242C35.9476 134.808 36.4115 138.856 35.0075 142.225C34.0434 144.538 32.317 146.254 30.6228 147.877C28.9297 149.498 27.1763 151.158 26.1238 153.417C25.0713 155.674 24.8945 158.718 26.2996 160.688C27.4144 162.251 29.2251 162.803 30.9276 163.148C33.5744 163.686 36.2627 163.937 38.947 163.897C40.5683 163.872 42.2188 163.734 43.7331 163.048C45.2483 162.362 46.6274 161.054 47.2108 159.261C47.9305 157.049 47.3471 154.589 47.0174 152.251C46.6877 149.913 46.7605 147.137 48.3288 145.663C49.2076 144.838 50.3714 144.614 51.4135 144.123C53.2324 143.266 54.7331 141.506 55.4726 139.359C56.2131 137.213 56.1819 134.711 55.3904 132.592C54.6874 130.709 53.4487 129.196 52.3692 127.583C51.2897 125.97 50.3173 124.094 50.3142 122.036C50.31 119.889 51.3479 117.969 52.1955 116.072C53.0431 114.175 53.7358 111.906 53.0286 109.93C51.8066 106.513 47.8036 106.328 45.2307 105.471C44.1709 105.118 43.0612 104.624 41.9443 104.838C40.5819 105.099 40.2064 104.839 39.0031 105.565C37.4827 106.481 35.0532 108.664 33.8063 110.09Z" fill="black"/>
<path d="M38.3896 164.282C35.8676 164.282 33.3341 164.027 30.8516 163.521C29.1169 163.169 27.1836 162.583 25.9896 160.91C24.4109 158.697 24.7458 155.472 25.7785 153.256C26.8445 150.967 28.5928 149.294 30.2828 147.676L30.3597 147.603C32.1756 145.864 33.7522 144.248 34.656 142.081C35.8197 139.286 35.7948 135.675 34.58 131.347C34.2108 130.03 33.7636 128.712 33.33 127.44C32.5926 125.269 31.8303 123.026 31.4174 120.687C30.6405 116.288 31.4268 112.233 33.5192 109.842C34.7568 108.427 37.2341 106.189 38.8087 105.239C39.6979 104.702 40.2023 104.656 40.8408 104.6C41.1279 104.574 41.4534 104.545 41.8736 104.464C42.926 104.263 43.9224 104.612 44.8844 104.948C45.0414 105.004 45.1974 105.058 45.3524 105.11C45.8724 105.282 46.4558 105.429 47.0736 105.583C49.425 106.17 52.3516 106.903 53.3884 109.802C54.0031 111.522 53.7348 113.564 52.544 116.228C52.4285 116.485 52.31 116.744 52.1914 117.003C51.4551 118.607 50.6928 120.265 50.6959 122.037C50.699 124.158 51.8336 126.099 52.6864 127.373C52.9267 127.732 53.1742 128.085 53.4228 128.44C54.2891 129.676 55.1845 130.955 55.7482 132.461C56.5771 134.679 56.6093 137.239 55.8345 139.486C55.0545 141.746 53.5028 143.563 51.5768 144.471C51.244 144.628 50.9018 144.758 50.57 144.883C49.8368 145.161 49.1452 145.423 48.5909 145.944C47.0746 147.368 47.1048 150.132 47.396 152.201C47.4469 152.565 47.5041 152.932 47.5624 153.3C47.8806 155.331 48.2092 157.43 47.5738 159.383C47.0049 161.132 45.6623 162.596 43.8912 163.399C42.2667 164.135 40.4831 164.258 38.9532 164.282C38.765 164.28 38.5778 164.282 38.3896 164.282ZM34.0923 110.341C32.1496 112.56 31.4299 116.378 32.1672 120.553C32.5697 122.833 33.3227 125.05 34.0507 127.193C34.4864 128.476 34.9378 129.803 35.3122 131.14C36.5748 135.637 36.5893 139.416 35.358 142.373C34.398 144.676 32.7642 146.353 30.886 148.152L30.809 148.225C29.17 149.794 27.4748 151.418 26.468 153.577C25.5601 155.527 25.2169 158.514 26.6095 160.466C27.6464 161.921 29.3343 162.434 31.0024 162.774C33.616 163.305 36.2825 163.556 38.9408 163.514C40.4654 163.491 42.0816 163.377 43.575 162.699C45.1516 161.984 46.3456 160.687 46.8479 159.142C47.4272 157.362 47.112 155.354 46.8084 153.412C46.7501 153.04 46.6919 152.669 46.6399 152.302C46.3237 150.055 46.3144 147.031 48.0678 145.385C48.7324 144.76 49.529 144.458 50.2986 144.167C50.6314 144.041 50.9455 143.921 51.2512 143.778C52.9672 142.97 54.4108 141.27 55.1128 139.234C55.82 137.183 55.7908 134.75 55.0337 132.724C54.5044 131.308 53.637 130.071 52.7988 128.874C52.5471 128.515 52.2964 128.156 52.0531 127.793C51.1452 126.436 49.9367 124.362 49.9336 122.035C49.9294 120.095 50.7271 118.36 51.4988 116.682C51.6163 116.426 51.7338 116.17 51.8482 115.914C52.9392 113.474 53.2075 111.558 52.6708 110.056C51.7712 107.54 49.1775 106.891 46.8884 106.319C46.2561 106.161 45.6592 106.011 45.1111 105.829C44.953 105.776 44.7939 105.72 44.6327 105.664C43.7653 105.36 42.8688 105.046 42.0171 105.21C41.5584 105.297 41.2132 105.328 40.9084 105.356C40.3052 105.41 39.9412 105.442 39.2018 105.889C37.6865 106.804 35.2935 108.969 34.0923 110.341Z" fill="black"/>
<path d="M116.892 156.803C116.892 156.803 116.131 158.059 114.85 160.082C109.686 168.24 96.0741 188.87 89.9922 189.648C80.5698 190.856 63.2185 169.162 63.2185 169.162L61.6231 146.772C61.6231 146.772 62.1109 146.845 62.9366 147.024C63.0323 147.047 63.1269 147.065 63.2257 147.088C63.4275 147.134 63.6449 147.184 63.8768 147.24C64.0515 147.282 64.2314 147.327 64.4217 147.377C64.4862 147.392 64.5517 147.412 64.6162 147.427C64.7462 147.462 64.8793 147.5 65.0125 147.533C65.6947 147.721 66.4518 147.945 67.2599 148.216C67.4242 148.269 67.5875 148.326 67.7508 148.383C68.0825 148.497 68.4216 148.619 68.7679 148.749C70.3217 149.336 72.5837 150.197 73.658 151.011C77.9885 154.302 86.9461 169.033 86.9461 169.033L101.608 149.509L103.577 146.885C107.366 141.534 118.59 151.112 116.892 156.803Z" fill="white"/>
<path d="M116.892 156.803C116.892 156.803 116.131 158.059 114.85 160.082C111.361 153.23 105.215 150.534 101.608 149.509L103.577 146.885C107.366 141.534 118.59 151.112 116.892 156.803Z" fill="#3BBBAC"/>
<path d="M89.2144 190.077C79.5715 190.077 63.6148 170.268 62.9211 169.4C62.8732 169.34 62.8441 169.266 62.8389 169.189L61.2404 146.798C61.2321 146.683 61.2768 146.57 61.3611 146.491C61.4453 146.412 61.5618 146.378 61.6762 146.394C61.697 146.397 62.1858 146.469 63.0147 146.649L63.31 146.716C63.5107 146.761 63.7302 146.812 63.9652 146.869C64.141 146.911 64.322 146.957 64.5154 147.007L65.1051 147.163C65.8809 147.375 66.6432 147.606 67.3785 147.853C67.5324 147.903 67.6895 147.957 67.8455 148.012C68.2074 148.137 68.5495 148.26 68.899 148.39C70.434 148.97 72.7522 149.844 73.8858 150.706C77.8326 153.705 85.3726 165.75 86.9784 168.355L103.272 146.656C104.654 144.704 107.12 144.392 110.029 145.808C114.285 147.881 118.37 153.182 117.256 156.91C117.247 156.941 117.234 156.97 117.216 156.998C116.424 158.306 97.7184 189.04 90.0391 190.025C89.7718 190.059 89.4952 190.077 89.2144 190.077ZM63.5898 169.016C64.8326 170.546 81.144 190.406 89.9434 189.27C97.1371 188.347 115.73 157.975 116.539 156.647C117.483 153.323 113.583 148.386 109.695 146.493C108.203 145.766 105.463 144.879 103.887 147.105L87.2488 169.261C87.1728 169.362 87.046 169.415 86.9253 169.413C86.7995 169.407 86.684 169.338 86.6185 169.23C86.5291 169.083 77.6475 154.521 73.423 151.313C72.3767 150.518 70.0305 149.633 68.6286 149.104C68.2864 148.976 67.9505 148.855 67.6219 148.742C67.4409 148.679 67.2891 148.625 67.1372 148.576C66.4123 148.333 65.6635 148.106 64.9075 147.899C64.8347 147.881 64.7567 147.859 64.6797 147.838L64.3303 147.747C64.1337 147.696 63.9569 147.65 63.7843 147.609C63.5523 147.552 63.3381 147.503 63.1384 147.458L62.8441 147.393C62.5165 147.322 62.243 147.268 62.0329 147.229L63.5898 169.016Z" fill="black"/>
<path d="M69.108 201.182C69.0675 200.442 69.0644 199.748 69.1049 199.105C69.1455 198.439 69.2318 197.831 69.3691 197.299C71.4584 189.268 75.946 190.89 76.6012 181.791C77.0027 176.21 72.7428 168.339 72.7428 168.339C72.7428 168.339 72.3112 162.888 71.2244 157.679L63.5742 147.183C62.9554 147.029 62.2898 146.889 61.5816 146.762C60.7662 146.611 59.8895 146.481 58.9701 146.368C53.871 145.742 47.3544 145.705 41.131 146.651C41.131 146.651 41.1279 146.651 41.1206 146.655C40.5923 146.735 39.8903 146.878 39.0905 147.073C36.3616 147.738 32.5229 149.012 30.6436 150.57C24.6886 155.512 31.4632 197.179 31.3831 199.105C31.38 199.162 31.38 199.229 31.3831 199.306C31.3893 199.985 31.4736 201.496 30.731 203.355C30.4336 204.101 30.1424 204.863 29.8616 205.645C28.9651 208.144 28.1726 210.852 27.5715 213.81H71.3586C70.8968 211.815 70.4756 209.881 70.121 208.112C69.9203 207.099 69.7404 206.143 69.5896 205.261C69.3452 203.807 69.1746 202.429 69.108 201.182Z" fill="white"/>
<path d="M36.8566 147.69C41.6031 147.965 54.6915 160.799 57.6025 161.029C57.6025 161.029 61.1062 152.523 61.5815 146.762C60.7662 146.611 59.8894 146.481 58.9701 146.368C53.871 145.742 47.3543 145.705 41.131 146.651C41.131 146.651 41.1278 146.651 41.1206 146.655C40.5922 146.735 37.6553 147.497 36.8566 147.69Z" fill="#3BBBAC"/>
<path d="M71.3575 214.192C71.1839 214.192 71.0268 214.074 70.9863 213.897C70.4985 211.776 70.0825 209.856 69.7487 208.19C69.5292 207.084 69.3545 206.148 69.2151 205.327C68.9562 203.783 68.7929 202.396 68.7284 201.205C68.6868 200.434 68.6858 199.721 68.7253 199.084C68.7679 198.383 68.8605 197.751 69.0009 197.207C69.965 193.502 71.4688 191.755 72.7948 190.214C74.4453 188.296 75.8711 186.64 76.2216 181.766C76.6095 176.362 72.4495 168.601 72.4079 168.523C72.383 168.476 72.3674 168.425 72.3632 168.372C72.3591 168.318 71.9212 162.885 70.8521 157.76C70.8095 157.554 70.9405 157.352 71.1475 157.309C71.3523 157.266 71.5551 157.398 71.5978 157.605C72.6055 162.437 73.0579 167.536 73.1162 168.232C73.5696 169.084 77.3708 176.414 76.9819 181.821C76.6127 186.946 75.0391 188.775 73.3731 190.711C72.0377 192.262 70.6576 193.865 69.7383 197.398C69.6103 197.894 69.5251 198.477 69.4855 199.131C69.4481 199.738 69.4491 200.423 69.4887 201.163C69.5511 202.327 69.7112 203.685 69.965 205.2C70.1033 206.013 70.277 206.942 70.4943 208.042C70.8261 209.7 71.2411 211.613 71.7278 213.726C71.7746 213.931 71.6467 214.136 71.4418 214.183C71.4137 214.189 71.3856 214.192 71.3575 214.192ZM27.5715 214.192C27.5465 214.192 27.5205 214.189 27.4955 214.184C27.2896 214.142 27.1565 213.94 27.1981 213.735C27.7659 210.945 28.5199 208.258 29.5038 205.518C29.7721 204.77 30.0664 203.995 30.3784 203.214C31.0399 201.557 31.017 200.198 31.0055 199.468L31.0035 199.31C30.9993 199.231 31.0003 199.152 31.0045 199.083C31.017 198.771 30.784 196.939 30.4876 194.618C28.105 175.918 25.9407 153.979 30.4023 150.277C32.863 148.236 38.5372 146.67 41.0467 146.28C41.0561 146.278 41.0665 146.276 41.0759 146.275C46.826 145.399 53.3655 145.295 59.019 145.989C60.7402 146.2 62.3043 146.478 63.6678 146.813C63.8716 146.863 63.9964 147.07 63.9465 147.273C63.8966 147.477 63.6896 147.605 63.4858 147.552C62.1515 147.223 60.6175 146.952 58.9264 146.744C53.3479 146.061 46.8936 146.163 41.2131 147.024C41.2027 147.027 41.1923 147.029 41.1819 147.03C38.8295 147.393 33.2124 148.936 30.8901 150.862C26.1789 154.772 29.8595 183.65 31.2447 194.522C31.6077 197.369 31.7814 198.754 31.7658 199.12C31.7627 199.172 31.7627 199.227 31.7658 199.289L31.7689 199.454C31.7803 200.182 31.8053 201.697 31.0877 203.496C30.7799 204.267 30.4887 205.034 30.2235 205.773C29.2521 208.478 28.5075 211.131 27.9469 213.884C27.9074 214.067 27.7483 214.192 27.5715 214.192Z" fill="black"/>
<path d="M77.3885 188.48C77.3885 188.48 84.4511 182.841 86.7911 183.707C89.1311 184.572 85.1583 188.928 85.1583 188.928C85.1583 188.928 95.4886 185.816 96.4382 187.386C97.3877 188.957 91.4035 190.77 91.4035 190.77C91.4035 190.77 96.7294 190.612 97.6747 191.557C98.6201 192.501 97.6414 193.674 96.5702 193.904C96.5702 193.904 98.878 195.489 96.4007 196.823C96.4007 196.823 97.8598 198.046 95.5469 199.097C93.2339 200.147 88.0974 200.768 86.3304 200.742C82.1902 200.682 78.2974 199.323 78.2974 199.323C76.803 196.577 75.0734 191.469 77.3885 188.48Z" fill="white"/>
<path d="M86.4469 201.124C86.4053 201.124 86.3637 201.124 86.3242 201.122C82.1704 201.062 78.3328 199.739 78.1716 199.683C78.0822 199.652 78.0073 199.588 77.9626 199.505C76.1353 196.149 74.8103 191.186 77.0869 188.246C77.1056 188.222 77.1264 188.2 77.1503 188.182C77.8908 187.591 84.4491 182.434 86.9232 183.348C87.5576 183.582 87.7854 184.02 87.8644 184.346C88.14 185.479 87.0615 187.152 86.2472 188.212C89.5055 187.287 95.8703 185.712 96.7637 187.186C96.9415 187.48 96.9686 187.806 96.8448 188.131C96.5068 189.014 94.9333 189.832 93.5761 190.393C95.2484 190.449 97.3097 190.652 97.9441 191.286C98.383 191.724 98.5359 192.264 98.3767 192.806C98.2291 193.305 97.8183 193.759 97.2951 194.038C97.6134 194.38 97.9587 194.894 97.9264 195.488C97.8973 196.025 97.5791 196.505 96.9779 196.918C97.135 197.159 97.2785 197.498 97.2244 197.893C97.1412 198.502 96.6306 199.023 95.705 199.443C93.3889 200.495 88.4271 201.124 86.4469 201.124ZM78.5606 199.01C79.2844 199.246 82.7383 200.309 86.3346 200.361C87.9705 200.383 93.0759 199.801 95.3878 198.749C96.0378 198.454 96.4215 198.115 96.4673 197.793C96.5193 197.434 96.1563 197.116 96.1522 197.113C96.0575 197.031 96.0076 196.907 96.0211 196.783C96.0347 196.658 96.1075 196.548 96.2177 196.487C96.8251 196.161 97.1433 195.81 97.1641 195.449C97.1943 194.921 96.5879 194.381 96.3529 194.217C96.2281 194.131 96.1667 193.978 96.1959 193.829C96.226 193.68 96.3404 193.563 96.4891 193.532C97.0237 193.417 97.5198 193.013 97.6446 192.591C97.7257 192.318 97.6467 192.068 97.4043 191.826C96.8323 191.255 93.5574 191.086 91.4129 191.151C91.2143 191.15 91.0572 191.02 91.026 190.832C90.9959 190.643 91.1092 190.461 91.2912 190.406C92.9823 189.894 95.7913 188.749 96.1314 187.86C96.1719 187.755 96.1657 187.675 96.1106 187.584C95.6343 186.796 90.1191 187.832 85.2665 189.294C85.1032 189.344 84.9254 189.277 84.8349 189.132C84.7434 188.988 84.76 188.8 84.8755 188.673C85.8697 187.583 87.3579 185.493 87.1229 184.528C87.0896 184.391 87.0043 184.193 86.658 184.064C84.9139 183.423 79.6089 187.2 77.661 188.751C75.6767 191.367 76.8872 195.874 78.5606 199.01Z" fill="black"/>
<path d="M91.5439 194.453C91.3401 194.453 91.1706 194.291 91.1643 194.085C91.1571 193.875 91.3214 193.699 91.5325 193.692L96.5588 193.522C96.7543 193.514 96.9457 193.679 96.9519 193.89C96.9592 194.1 96.7949 194.276 96.5838 194.283L91.5575 194.453C91.5533 194.453 91.5481 194.453 91.5439 194.453ZM91.3443 197.241C91.1352 197.241 90.9647 197.073 90.9636 196.864C90.9626 196.654 91.1311 196.481 91.3411 196.48L96.3976 196.442C96.3987 196.442 96.3997 196.442 96.4007 196.442C96.6098 196.442 96.7803 196.611 96.7814 196.82C96.7824 197.03 96.6139 197.203 96.4039 197.204L91.3474 197.241C91.3453 197.241 91.3443 197.241 91.3443 197.241Z" fill="black"/>
<path d="M79.4955 201.784C79.4955 201.784 78.2236 202.196 76.1093 202.824C67.1434 205.489 43.0321 212.045 36.6569 207.539C29.459 202.455 23.9626 172.292 24.2486 164.537C24.622 154.43 31.85 149.512 31.85 149.512L39.4212 163.456C41.5002 168.681 45.7704 192.942 45.7704 192.942L73.0621 187.289L77.8991 186.288C82.4928 186.328 85.3372 200.702 79.4955 201.784Z" fill="white"/>
<path d="M79.4955 201.784C79.4955 201.784 78.2236 202.196 76.1093 202.824C77.9522 196.025 74.5784 189.677 73.0621 187.288L77.8991 186.287C82.4928 186.328 85.3372 200.702 79.4955 201.784Z" fill="#3BBBAC"/>
<path d="M44.0575 209.457C40.768 209.457 38.064 208.998 36.4395 207.85C29.1585 202.706 23.582 172.269 23.868 164.523C24.2424 154.34 31.564 149.247 31.6378 149.197C31.8115 149.079 32.0486 149.125 32.1672 149.298C32.2858 149.472 32.24 149.709 32.0663 149.828C31.9956 149.875 24.9902 154.767 24.6293 164.552C24.3474 172.202 29.7762 202.21 36.8794 207.229C44.512 212.621 79.0296 201.532 79.377 201.42C79.3926 201.415 79.4092 201.411 79.4248 201.407C81.9707 200.937 82.602 197.604 82.3441 194.641C82.0123 190.83 80.1653 186.737 77.9355 186.67L45.8474 193.313C45.7465 193.334 45.6415 193.313 45.5562 193.255C45.4709 193.198 45.4126 193.107 45.395 193.005C45.3523 192.763 41.1102 168.724 39.0686 163.594C38.9906 163.399 39.0863 163.177 39.2818 163.099C39.4763 163.019 39.6989 163.116 39.7769 163.312C41.7279 168.215 45.5031 189.249 46.0782 192.487L77.8242 185.915C77.8513 185.909 77.8763 185.906 77.9054 185.906C80.6905 185.931 82.7351 190.334 83.1043 194.574C83.3903 197.86 82.6155 201.572 79.5891 202.15C78.208 202.598 56.7726 209.457 44.0575 209.457Z" fill="black"/>
<path d="M58.9711 146.215C59.0075 148.487 55.8958 157.337 55.8958 157.337L41.1205 146.655C46.6814 143.625 45.2857 126.957 45.2857 126.957C45.2857 126.957 59.3996 130.227 58.5093 132.468C57.6607 134.592 56.5333 144.362 58.9711 146.215Z" fill="white"/>
<path d="M55.8958 157.718C55.8168 157.718 55.7388 157.693 55.6722 157.646L40.8969 146.963C40.7909 146.886 40.7316 146.761 40.7399 146.631C40.7482 146.501 40.8231 146.383 40.9375 146.321C46.2176 143.444 44.9186 127.154 44.9051 126.989C44.8947 126.868 44.9436 126.749 45.0351 126.67C45.1277 126.59 45.2525 126.562 45.37 126.587C46.619 126.876 57.6035 129.48 58.7985 131.76C58.9867 132.12 58.9368 132.42 58.8629 132.609C57.9914 134.785 57.0149 144.25 59.2009 145.912C59.2935 145.983 59.3497 146.092 59.3507 146.209C59.3881 148.523 56.3815 157.101 56.2536 157.465C56.2141 157.579 56.1225 157.666 56.0081 157.702C55.9728 157.713 55.9343 157.718 55.8958 157.718ZM41.7976 146.674L55.7034 156.729C56.3285 154.91 58.4948 148.475 58.5874 146.389C56.0862 144.078 57.3185 134.419 58.1557 132.328C58.1661 132.302 58.1911 132.239 58.1245 132.113C57.3685 130.672 50.4681 128.585 45.7028 127.448C45.8889 130.269 46.4755 143.256 41.7976 146.674Z" fill="black"/>
<path d="M51.3427 136.388C54.9473 138.792 60.1068 140.18 64.8617 136.388C70.8073 131.646 68.9811 112.51 59.5181 108.4C59.2509 108.284 58.9794 108.18 58.709 108.083C51.4893 105.555 43.5084 110.551 42.9769 115.048C42.5693 118.505 45.0029 123.765 45.0736 123.916C44.9467 123.842 41.4825 121.786 40.6432 125.3C39.6937 129.282 44.5089 131.024 45.6789 131.389C45.839 131.436 45.9295 131.46 45.9295 131.46" fill="white"/>
<path d="M58.4615 139.112C55.2448 139.112 52.5159 137.627 51.1316 136.704C50.9569 136.587 50.9091 136.35 51.0255 136.176C51.142 136.001 51.3791 135.953 51.5539 136.069C53.6983 137.499 59.2623 140.364 64.6246 136.088C67.2277 134.012 68.4497 128.646 67.6655 122.734C66.9594 117.409 64.4093 110.938 59.3663 108.748C59.1323 108.646 58.8827 108.548 58.5801 108.44C55.0295 107.196 50.8612 107.733 47.4313 109.874C45.0923 111.335 43.5677 113.285 43.3545 115.092C42.9593 118.437 45.3929 123.701 45.4179 123.754C45.4886 123.905 45.4522 124.083 45.3295 124.196C45.2067 124.308 45.0258 124.329 44.8812 124.245C44.7086 124.144 43.2131 123.307 42.1315 123.77C41.5896 124.002 41.2121 124.546 41.0114 125.388C40.1575 128.97 44.4527 130.608 45.7902 131.024C45.9347 131.066 46.02 131.089 46.0231 131.09C46.227 131.143 46.3487 131.351 46.2956 131.554C46.2426 131.758 46.0356 131.878 45.8318 131.827C45.8318 131.827 45.7371 131.803 45.5697 131.754C42.4799 130.792 39.4691 128.57 40.2699 125.212C40.5299 124.124 41.0551 123.403 41.8309 123.072C42.6743 122.711 43.6291 122.903 44.3269 123.155C43.6239 121.443 42.276 117.72 42.5963 115.004C42.8366 112.971 44.4933 110.812 47.0267 109.23C50.6501 106.968 55.0639 106.404 58.8328 107.724C59.1542 107.84 59.4194 107.943 59.669 108.052C65.0021 110.368 67.6863 117.104 68.4185 122.636C69.2495 128.9 67.9453 134.415 65.0967 136.686C62.8368 138.49 60.5457 139.112 58.4615 139.112Z" fill="black"/>
<path d="M55.0846 122.595C55.637 122.451 55.9323 121.749 55.744 121.028C55.5558 120.307 54.9553 119.839 54.4029 119.983C53.8505 120.127 53.5552 120.829 53.7435 121.55C53.9317 122.271 54.5322 122.739 55.0846 122.595Z" fill="black"/>
<path d="M61.4775 120.079C62.0299 119.935 62.3251 119.234 62.1369 118.512C61.9487 117.791 61.3482 117.323 60.7958 117.467C60.2434 117.611 59.9481 118.313 60.1364 119.034C60.3246 119.756 60.9251 120.224 61.4775 120.079Z" fill="black"/>
<path d="M54.8819 117.211C54.8819 117.211 52.8944 116.546 51.2991 118.795Z" fill="white"/>
<path d="M51.298 119.176C51.2221 119.176 51.1451 119.153 51.0786 119.105C50.907 118.983 50.8664 118.746 50.9881 118.575C52.7259 116.123 54.9099 116.819 55.0025 116.85C55.2022 116.917 55.3093 117.133 55.2427 117.332C55.1762 117.53 54.9609 117.64 54.7623 117.573C54.6843 117.548 53.0067 117.044 51.609 119.016C51.5351 119.12 51.4176 119.176 51.298 119.176Z" fill="black"/>
<path d="M62.1764 115.138C62.1764 115.138 60.189 114.473 58.5936 116.722Z" fill="white"/>
<path d="M58.5925 117.103C58.5166 117.103 58.4397 117.08 58.3721 117.032C58.2005 116.911 58.1609 116.673 58.2816 116.501C60.0205 114.051 62.2045 114.746 62.296 114.776C62.4957 114.843 62.6028 115.059 62.5362 115.258C62.4697 115.458 62.2554 115.564 62.0557 115.499C61.9777 115.473 60.3013 114.969 58.9025 116.942C58.8297 117.047 58.7121 117.103 58.5925 117.103Z" fill="black"/>
<path d="M58.9462 120.869C59.8489 122.726 60.7516 124.583 61.6533 126.44C61.802 126.746 61.9538 127.067 61.9424 127.406C61.9278 127.847 61.6335 128.24 61.2674 128.488C60.9014 128.735 60.4698 128.86 60.0454 128.982" fill="white"/>
<path d="M60.0465 129.362C59.8811 129.362 59.7293 129.254 59.6804 129.087C59.6222 128.885 59.7397 128.674 59.9414 128.616C60.3325 128.503 60.736 128.388 61.0553 128.172C61.359 127.967 61.5534 127.668 61.5628 127.394C61.5711 127.14 61.4328 126.856 61.3111 126.606L58.604 121.034C58.5125 120.845 58.5905 120.617 58.7808 120.526C58.9701 120.434 59.1978 120.513 59.2894 120.702L61.9965 126.274C62.1483 126.587 62.3386 126.977 62.3241 127.419C62.3074 127.941 61.9923 128.459 61.4817 128.804C61.0626 129.087 60.579 129.226 60.1515 129.348C60.1172 129.358 60.0818 129.362 60.0465 129.362Z" fill="black"/>
<path d="M57.1938 132.496C58.656 133.13 60.3866 133.117 61.8395 132.46Z" fill="white"/>
<path d="M59.4745 133.342C58.6394 133.342 57.8053 133.176 57.042 132.844C56.8496 132.761 56.7601 132.537 56.8444 132.343C56.9276 132.15 57.1512 132.061 57.3456 132.146C58.708 132.736 60.3294 132.725 61.6824 132.111C61.8748 132.024 62.0995 132.109 62.1868 132.302C62.2732 132.493 62.1889 132.719 61.9965 132.806C61.2092 133.164 60.3419 133.342 59.4745 133.342Z" fill="black"/>
<path d="M34.9929 127.75C38.8617 134.468 45.4075 133.529 45.4075 133.529L45.6779 131.388C44.5079 131.024 39.6927 129.281 40.6422 125.299C41.4815 121.785 44.9457 123.841 45.0726 123.915C45.0757 123.918 45.0757 123.918 45.0757 123.918L45.0788 123.945C45.1121 124.126 45.3461 125.115 46.3331 124.102C47.4167 122.992 46.591 120.006 46.1053 118.297C45.6207 116.591 48.2955 116.833 47.4427 115.047C46.5899 113.261 64.688 115.884 65.9943 104.368C66.4467 100.382 57.4205 97.6841 51.8399 95.7486C39.2673 91.389 22.4463 116.721 37.8768 119.344C37.8768 119.344 31.121 121.036 34.9929 127.75Z" fill="black"/>
<path d="M44.6274 133.948C42.6847 133.948 37.7894 133.37 34.6632 127.941C33.3871 125.728 33.0866 123.787 33.7698 122.175C34.3762 120.745 35.619 119.901 36.5633 119.441C34.0028 118.717 32.3128 117.215 31.642 115.048C30.3815 110.973 32.9077 104.833 37.7863 100.117C42.3831 95.6727 47.683 93.9047 51.9657 95.3898C52.4295 95.55 52.9162 95.7164 53.4196 95.888C59.3913 97.9212 66.8231 100.453 66.3738 104.412C65.4118 112.9 55.7981 113.963 50.6345 114.534C49.4884 114.661 48.2019 114.804 47.8358 114.987C48.3226 116.126 47.579 116.682 47.0829 117.052C46.5774 117.43 46.3206 117.651 46.4745 118.193C46.9591 119.903 47.8618 123.083 46.6076 124.367C46.4381 124.541 45.9264 125.068 45.3627 124.899C44.98 124.782 44.8126 124.417 44.7418 124.166C44.3082 123.938 43.0674 123.369 42.1335 123.769C41.5917 124.001 41.2142 124.545 41.0134 125.387C40.1596 128.969 44.4548 130.607 45.7922 131.023C45.969 131.078 46.0803 131.252 46.0574 131.435L45.787 133.576C45.7652 133.745 45.6331 133.88 45.4636 133.905C45.447 133.907 45.1402 133.948 44.6274 133.948ZM48.8218 95.6353C45.4459 95.6353 41.6957 97.396 38.3157 100.665C33.7106 105.118 31.2094 111.072 32.37 114.823C33.0637 117.064 34.9378 118.459 37.9413 118.97C38.1191 119 38.2502 119.151 38.2574 119.331C38.2647 119.511 38.1441 119.671 37.9704 119.715C37.9444 119.722 35.3475 120.401 34.4698 122.478C33.8863 123.858 34.1734 125.569 35.3226 127.561C38.6038 133.258 43.783 133.274 45.0674 133.18L45.2608 131.654C42.2864 130.645 39.4971 128.459 40.2719 125.212C40.5319 124.124 41.0571 123.403 41.833 123.072C43.2297 122.472 44.9332 123.394 45.2598 123.585C45.2889 123.602 45.319 123.625 45.3419 123.648C45.4022 123.708 45.4438 123.789 45.4542 123.873C45.4823 124.032 45.551 124.156 45.5853 124.174C45.5842 124.173 45.7309 124.178 46.0606 123.839C47.0059 122.87 46.151 119.854 45.7402 118.404C45.4355 117.333 46.123 116.82 46.6253 116.445C47.1827 116.029 47.397 115.835 47.1006 115.214C47.009 115.023 47.0122 114.822 47.1089 114.648C47.3866 114.148 48.308 114.028 50.5502 113.78C55.5027 113.233 64.7234 112.213 65.6167 104.329C65.9963 100.979 58.2795 98.3507 53.1731 96.6118C52.6677 96.4402 52.1799 96.2738 51.715 96.1126C50.7967 95.7913 49.8254 95.6353 48.8218 95.6353Z" fill="black"/>
<path d="M53.6057 112.067L53.5922 111.306C55.7887 111.268 57.6233 110.774 59.046 109.835C60.7183 108.734 61.7562 106.971 61.7562 105.234C61.7562 103.353 60.3813 101.601 58.6913 101.328L58.813 100.576C60.8566 100.906 62.5185 102.996 62.5185 105.236C62.5185 107.225 61.3485 109.231 59.4651 110.472C57.9197 111.489 55.9489 112.027 53.6057 112.067Z" fill="white"/>
<path d="M52.2746 109.745L52.2486 108.984C53.4654 108.942 54.6708 108.609 55.7357 108.019C56.5989 107.54 57.2021 106.971 57.5287 106.328C57.9062 105.584 57.8771 104.705 57.4559 104.14L58.0664 103.685C58.6664 104.489 58.7216 105.662 58.2078 106.673C57.8105 107.454 57.1033 108.132 56.1049 108.685C54.9349 109.333 53.611 109.699 52.2746 109.745Z" fill="white"/>
<path d="M39.3203 107.95L38.6609 107.568C39.3546 106.372 40.533 105.346 42.2646 104.432C42.8293 104.134 43.4148 103.862 43.9806 103.6C44.7866 103.225 45.6206 102.838 46.3861 102.377C47.8774 101.477 48.8561 100.417 49.2949 99.2264L50.0094 99.4906C49.5081 100.848 48.4213 102.039 46.7792 103.03C45.9784 103.512 45.1256 103.908 44.3009 104.29C43.7434 104.549 43.1673 104.816 42.6202 105.106C41.0186 105.951 39.9391 106.881 39.3203 107.95Z" fill="white"/>
<path d="M135.931 201.814H171.571C173.071 201.814 174.415 202.736 174.957 204.133C175.88 206.514 174.123 209.078 171.571 209.078H135.931V201.814Z" fill="white"/>
<path d="M171.571 209.459H135.931C135.721 209.459 135.55 209.289 135.55 209.078V201.814C135.55 201.604 135.721 201.433 135.931 201.433H171.571C173.214 201.433 174.718 202.463 175.313 203.996C175.791 205.232 175.63 206.621 174.882 207.714C174.133 208.807 172.896 209.459 171.571 209.459ZM136.312 208.698H171.571C172.66 208.698 173.637 208.182 174.253 207.283C174.869 206.385 174.996 205.287 174.601 204.272C174.12 203.03 172.902 202.196 171.57 202.196H136.311V208.698H136.312Z" fill="black"/>
<path d="M151.13 209.078H107.685C105.627 209.078 103.866 207.602 103.508 205.575L98.1084 172.508C97.6497 169.911 99.6476 167.529 102.285 167.529H140.674C142.732 167.529 144.492 169.006 144.85 171.033L151.13 209.078Z" fill="white"/>
<path d="M151.13 209.459H107.685C105.438 209.459 103.524 207.853 103.133 205.641L97.7319 172.569C97.4948 171.226 97.863 169.85 98.7438 168.8C99.6237 167.751 100.915 167.149 102.285 167.149H140.674C142.92 167.149 144.835 168.755 145.226 170.967L151.504 209.017C151.523 209.127 151.491 209.241 151.419 209.326C151.347 209.41 151.241 209.459 151.13 209.459ZM102.285 167.91C101.141 167.91 100.063 168.413 99.3273 169.289C98.592 170.165 98.2842 171.315 98.4828 172.441L103.884 205.513C104.209 207.356 105.808 208.698 107.685 208.698H150.68L144.476 171.095C144.15 169.251 142.552 167.91 140.675 167.91H102.285Z" fill="black"/>
<path d="M151.128 209.077H147.947L141.669 171.032C141.311 169.006 139.551 167.527 137.492 167.527H140.672C142.732 167.527 144.491 169.006 144.849 171.032L151.128 209.077Z" fill="black"/>
<path d="M151.128 209.458H147.947C147.761 209.458 147.602 209.323 147.572 209.14L141.294 171.095C140.969 169.251 139.37 167.909 137.493 167.909C137.283 167.909 137.113 167.738 137.113 167.528C137.113 167.318 137.283 167.148 137.493 167.148H140.674C142.921 167.148 144.835 168.754 145.225 170.967L151.503 209.016C151.522 209.126 151.49 209.24 151.418 209.325C151.346 209.409 151.24 209.458 151.128 209.458ZM148.271 208.697H150.678L144.474 171.095C144.148 169.251 142.55 167.909 140.672 167.909H140.038C141.069 168.588 141.816 169.674 142.044 170.967L148.271 208.697Z" fill="black"/>
<path d="M123.027 195.917C121.123 195.917 119.374 194.72 118.571 193.039C119.001 193.17 119.447 193.238 119.906 193.238C122.355 193.238 124.134 191.252 123.883 188.803C123.827 188.256 123.67 187.727 123.437 187.243C125.302 187.8 126.794 189.488 127 191.482C127.256 193.93 125.476 195.917 123.027 195.917Z" fill="black"/>
<path d="M123.027 196.298C121.04 196.298 119.112 195.054 118.228 193.203C118.163 193.067 118.185 192.905 118.283 192.79C118.381 192.676 118.538 192.631 118.683 192.674C119.081 192.795 119.493 192.857 119.906 192.857C120.976 192.857 121.938 192.443 122.616 191.692C123.3 190.935 123.615 189.922 123.504 188.84C123.454 188.351 123.316 187.87 123.094 187.406C123.029 187.27 123.05 187.108 123.148 186.994C123.246 186.88 123.402 186.832 123.547 186.877C125.621 187.496 127.162 189.331 127.38 191.441C127.515 192.738 127.134 193.959 126.305 194.879C125.48 195.795 124.316 196.298 123.027 196.298ZM119.338 193.587C120.198 194.777 121.596 195.537 123.027 195.537C124.098 195.537 125.06 195.123 125.738 194.371C126.42 193.614 126.734 192.601 126.622 191.521C126.466 190.012 125.469 188.627 124.1 187.92C124.178 188.198 124.233 188.48 124.262 188.764C124.395 190.062 124.013 191.284 123.182 192.203C122.358 193.117 121.194 193.619 119.906 193.619C119.715 193.619 119.526 193.608 119.338 193.587Z" fill="black"/>
<path d="M176.537 84.6227V94.875C176.537 98.9841 173.208 102.317 169.099 102.317H143.875C139.766 102.317 136.432 98.9851 136.432 94.875V84.6227C136.432 80.5137 139.765 77.1805 143.875 77.1805H169.099C173.209 77.1815 176.537 80.5137 176.537 84.6227Z" fill="white"/>
<path d="M169.099 102.698H143.875C139.561 102.698 136.052 99.189 136.052 94.875V84.6217C136.052 80.3078 139.561 76.7988 143.875 76.7988H169.099C173.411 76.7988 176.918 80.3078 176.918 84.6217V94.875C176.919 99.189 173.411 102.698 169.099 102.698ZM143.875 77.5622C139.981 77.5622 136.814 80.73 136.814 84.6227V94.8761C136.814 98.7698 139.982 101.937 143.875 101.937H169.099C172.99 101.937 176.156 98.7688 176.156 94.8761V84.6227C176.156 80.729 172.99 77.5622 169.099 77.5622H143.875Z" fill="black"/>
<path d="M161.014 99.6705L170.468 105.385L170.975 97.0954" fill="white"/>
<path d="M170.468 105.766C170.4 105.766 170.332 105.747 170.271 105.711L160.816 99.996C160.636 99.8878 160.578 99.6528 160.687 99.4729C160.795 99.293 161.029 99.2347 161.21 99.3439L170.126 104.733L170.594 97.0715C170.607 96.8614 170.793 96.7034 170.998 96.7148C171.208 96.7273 171.368 96.9082 171.355 97.1183L170.849 105.408C170.841 105.541 170.764 105.66 170.646 105.722C170.59 105.751 170.53 105.766 170.468 105.766ZM169.38 84.9763H158.174C157.964 84.9763 157.793 84.8058 157.793 84.5957C157.793 84.3856 157.964 84.215 158.174 84.215H169.379C169.589 84.215 169.759 84.3856 169.759 84.5957C169.76 84.8058 169.59 84.9763 169.38 84.9763ZM154.698 84.9763H142.586C142.376 84.9763 142.205 84.8058 142.205 84.5957C142.205 84.3856 142.376 84.215 142.586 84.215H154.698C154.908 84.215 155.079 84.3856 155.079 84.5957C155.079 84.8058 154.909 84.9763 154.698 84.9763ZM169.38 89.3339H164.659C164.449 89.3339 164.278 89.1634 164.278 88.9533C164.278 88.7432 164.449 88.5726 164.659 88.5726H169.38C169.59 88.5726 169.76 88.7432 169.76 88.9533C169.76 89.1634 169.59 89.3339 169.38 89.3339ZM160.249 89.3339H142.587C142.377 89.3339 142.206 89.1634 142.206 88.9533C142.206 88.7432 142.377 88.5726 142.587 88.5726H160.249C160.46 88.5726 160.63 88.7432 160.63 88.9533C160.63 89.1634 160.46 89.3339 160.249 89.3339ZM161.286 93.6915H148.91C148.7 93.6915 148.53 93.521 148.53 93.3109C148.53 93.1008 148.7 92.9302 148.91 92.9302H161.286C161.496 92.9302 161.667 93.1008 161.667 93.3109C161.668 93.521 161.497 93.6915 161.286 93.6915ZM146.503 93.6915H142.587C142.377 93.6915 142.206 93.521 142.206 93.3109C142.206 93.1008 142.377 92.9302 142.587 92.9302H146.503C146.713 92.9302 146.883 93.1008 146.883 93.3109C146.883 93.521 146.713 93.6915 146.503 93.6915Z" fill="black"/>
<path d="M68.5984 78.8871V85.6991C68.5984 88.4291 70.8094 90.6433 73.5405 90.6433H85.8832C88.6132 90.6433 90.8274 88.4291 90.8274 85.6991V78.8871C90.8274 76.1571 88.6132 73.9429 85.8832 73.9429H73.5405C70.8094 73.9429 68.5984 76.1571 68.5984 78.8871Z" fill="white"/>
<path d="M85.8822 91.0239H73.5405C70.6056 91.0239 68.2178 88.635 68.2178 85.6991V78.8871C68.2178 75.9512 70.6056 73.5623 73.5405 73.5623H85.8832C88.8191 73.5623 91.208 75.9512 91.208 78.8871V85.6991C91.208 88.635 88.8191 91.0239 85.8822 91.0239ZM73.5405 74.3236C71.0258 74.3236 68.9791 76.3703 68.9791 78.8871V85.6991C68.9791 88.2149 71.0247 90.2626 73.5405 90.2626H85.8832C88.4 90.2626 90.4467 88.2159 90.4467 85.6991V78.8871C90.4467 76.3714 88.4 74.3236 85.8832 74.3236H73.5405Z" fill="black"/>
<path d="M78.9111 88.8846L72.6295 92.6817L72.2935 87.1738" fill="white"/>
<path d="M72.6295 93.0623C72.5691 93.0623 72.5078 93.0478 72.4527 93.0186C72.3351 92.9562 72.2582 92.8377 72.2499 92.7046L71.9139 87.1967C71.9004 86.9866 72.0606 86.8057 72.2707 86.7932C72.4807 86.7818 72.6607 86.9398 72.6742 87.1499L72.9716 92.0286L78.7145 88.557C78.8955 88.4478 79.1284 88.5061 79.2376 88.686C79.3468 88.8659 79.2886 89.0999 79.1087 89.2091L72.8271 93.0062C72.7667 93.0436 72.6981 93.0623 72.6295 93.0623ZM80.8174 79.2501H73.6913C73.4812 79.2501 73.3107 79.0795 73.3107 78.8694C73.3107 78.6594 73.4812 78.4888 73.6913 78.4888H80.8174C81.0275 78.4888 81.198 78.6594 81.198 78.8694C81.198 79.0795 81.0275 79.2501 80.8174 79.2501ZM85.7345 79.2501H83.0284C82.8183 79.2501 82.6478 79.0795 82.6478 78.8694C82.6478 78.6594 82.8183 78.4888 83.0284 78.4888H85.7345C85.9446 78.4888 86.1151 78.6594 86.1151 78.8694C86.1151 79.0795 85.9446 79.2501 85.7345 79.2501ZM76.6927 84.5291H73.6903C73.4802 84.5291 73.3096 84.3586 73.3096 84.1485C73.3096 83.9384 73.4802 83.7678 73.6903 83.7678H76.6927C76.9028 83.7678 77.0734 83.9384 77.0734 84.1485C77.0744 84.3586 76.9039 84.5291 76.6927 84.5291ZM85.7345 84.5291H79.4976C79.2875 84.5291 79.117 84.3586 79.117 84.1485C79.117 83.9384 79.2875 83.7678 79.4976 83.7678H85.7345C85.9446 83.7678 86.1151 83.9384 86.1151 84.1485C86.1151 84.3586 85.9446 84.5291 85.7345 84.5291Z" fill="black"/>
<path d="M80.7352 105.706V117.659C80.7352 122.074 84.3107 125.654 88.7255 125.654H105.7C110.115 125.654 113.695 122.074 113.695 117.659V105.706C113.695 101.291 110.115 97.7111 105.7 97.7111H88.7255C84.3107 97.7111 80.7352 101.291 80.7352 105.706Z" fill="#BF92FB"/>
<path d="M107.45 123.771H90.4759C85.8603 123.771 82.1049 120.014 82.1049 115.396V103.442C82.1049 98.8239 85.8603 95.0664 90.4759 95.0664H107.451C112.069 95.0664 115.826 98.8239 115.826 103.442V115.395C115.826 120.014 112.068 123.771 107.45 123.771ZM90.4759 95.8277C86.2795 95.8277 82.8662 99.243 82.8662 103.442V115.395C82.8662 119.594 86.2795 123.009 90.4759 123.009H107.451C111.649 123.009 115.065 119.594 115.065 115.395V103.442C115.065 99.2441 111.649 95.8277 107.451 95.8277H90.4759Z" fill="black"/>
<path d="M99.1609 120.546L89.0042 126.687L88.4603 117.78" fill="#BF92FB"/>
<path d="M89.0042 127.067C88.9439 127.067 88.8826 127.053 88.8274 127.024C88.7099 126.961 88.633 126.843 88.6246 126.709L88.0818 117.804C88.0682 117.594 88.2284 117.413 88.4385 117.4C88.6496 117.389 88.8295 117.547 88.842 117.757L89.3474 126.034L98.9654 120.221C99.1463 120.111 99.3793 120.17 99.4885 120.35C99.5977 120.53 99.5394 120.764 99.3595 120.873L89.2029 127.013C89.1405 127.048 89.0729 127.067 89.0042 127.067Z" fill="black"/>
<path d="M137.285 61.2882C141.478 61.2882 144.876 57.8896 144.876 53.6973C144.876 49.5049 141.478 46.1063 137.285 46.1063C133.093 46.1063 129.694 49.5049 129.694 53.6973C129.694 57.8896 133.093 61.2882 137.285 61.2882Z" fill="#3BBBAC"/>
<path d="M136.459 60.2971C132.063 60.2971 128.487 56.7206 128.487 52.3245C128.487 47.9284 132.063 44.3529 136.459 44.3529C140.856 44.3529 144.431 47.9294 144.431 52.3245C144.431 56.7195 140.855 60.2971 136.459 60.2971ZM136.459 45.1152C132.484 45.1152 129.249 48.3496 129.249 52.3255C129.249 56.3014 132.484 59.5358 136.459 59.5358C140.435 59.5358 143.67 56.3014 143.67 52.3255C143.669 48.3496 140.434 45.1152 136.459 45.1152Z" fill="black"/>
<path d="M164.768 50.101H160.716C160.506 50.101 160.336 49.9304 160.336 49.7203C160.336 49.5102 160.506 49.3397 160.716 49.3397H164.768C164.978 49.3397 165.149 49.5102 165.149 49.7203C165.149 49.9304 164.979 50.101 164.768 50.101ZM157.977 50.101H153.77C153.56 50.101 153.39 49.9304 153.39 49.7203C153.39 49.5102 153.56 49.3397 153.77 49.3397H157.977C158.187 49.3397 158.358 49.5102 158.358 49.7203C158.358 49.9304 158.187 50.101 157.977 50.101ZM151.359 50.101H147.675C147.465 50.101 147.294 49.9304 147.294 49.7203C147.294 49.5102 147.465 49.3397 147.675 49.3397H151.359C151.569 49.3397 151.739 49.5102 151.739 49.7203C151.739 49.9304 151.569 50.101 151.359 50.101ZM164.768 54.6988H161.102C160.892 54.6988 160.722 54.5282 160.722 54.3182C160.722 54.1081 160.892 53.9375 161.102 53.9375H164.768C164.978 53.9375 165.149 54.1081 165.149 54.3182C165.149 54.5282 164.979 54.6988 164.768 54.6988ZM158.691 54.6988H147.675C147.465 54.6988 147.294 54.5282 147.294 54.3182C147.294 54.1081 147.465 53.9375 147.675 53.9375H158.691C158.901 53.9375 159.071 54.1081 159.071 54.3182C159.071 54.5282 158.901 54.6988 158.691 54.6988Z" fill="black"/>
<path d="M116.587 79.1263C120.78 79.1263 124.178 75.7277 124.178 71.5354C124.178 67.343 120.78 63.9444 116.587 63.9444C112.395 63.9444 108.996 67.343 108.996 71.5354C108.996 75.7277 112.395 79.1263 116.587 79.1263Z" fill="#3BBBAC"/>
<path d="M115.761 78.1352C111.365 78.1352 107.79 74.5586 107.79 70.1626C107.79 65.7665 111.366 62.191 115.761 62.191C120.157 62.191 123.734 65.7675 123.734 70.1626C123.734 74.5576 120.157 78.1352 115.761 78.1352ZM115.761 62.9533C111.785 62.9533 108.551 66.1877 108.551 70.1636C108.551 74.1395 111.785 77.3739 115.761 77.3739C119.737 77.3739 122.972 74.1395 122.972 70.1636C122.972 66.1877 119.737 62.9533 115.761 62.9533Z" fill="black"/>
<path d="M144.071 67.939H140.019C139.809 67.939 139.639 67.7685 139.639 67.5584C139.639 67.3483 139.809 67.1778 140.019 67.1778H144.071C144.281 67.1778 144.452 67.3483 144.452 67.5584C144.452 67.7685 144.281 67.939 144.071 67.939ZM137.279 67.939H133.073C132.863 67.939 132.693 67.7685 132.693 67.5584C132.693 67.3483 132.863 67.1778 133.073 67.1778H137.279C137.489 67.1778 137.66 67.3483 137.66 67.5584C137.66 67.7685 137.49 67.939 137.279 67.939ZM130.661 67.939H126.978C126.768 67.939 126.597 67.7685 126.597 67.5584C126.597 67.3483 126.768 67.1778 126.978 67.1778H130.661C130.872 67.1778 131.042 67.3483 131.042 67.5584C131.042 67.7685 130.872 67.939 130.661 67.939ZM137.993 72.5369H126.978C126.768 72.5369 126.597 72.3663 126.597 72.1562C126.597 71.9462 126.768 71.7756 126.978 71.7756H137.993C138.204 71.7756 138.374 71.9462 138.374 72.1562C138.374 72.3663 138.204 72.5369 137.993 72.5369Z" fill="black"/>
</svg>
