<svg xmlns="http://www.w3.org/2000/svg" width="85" height="80.593" viewBox="0 0 85 80.593">
  <g id="user_not_found" data-name="user not found" transform="translate(-2.5 -3.77)">
    <path id="Path_127" data-name="Path 127" d="M58.368,14.1c-3.5,1.011-6.836,2.531-10.339,3.535-6.859,1.965-14.112,1.9-21.186,2.829S12.416,23.6,7.709,28.959c-6.113,6.972-6.049,18-1.367,26S19.5,68.177,28.38,70.842a46.532,46.532,0,0,0,22.721,1.3A35.013,35.013,0,0,0,70.665,60.878a48.379,48.379,0,0,0,7.74-13.994c2.474-6.372,4.377-13.269,3.145-19.991C79.418,15.248,68.988,11.026,58.368,14.1Z" transform="translate(0.34 6.875)" fill="#e1f3f1"/>
    <circle id="Ellipse_26" data-name="Ellipse 26" cx="1.579" cy="1.579" r="1.579" transform="translate(8.162 23.055)" fill="#58c6b9"/>
    <path id="Path_128" data-name="Path 128" d="M49.68,29.076A1.579,1.579,0,1,1,51.259,30.6a1.579,1.579,0,0,1-1.579-1.525" transform="translate(34.663 17.394)" fill="#58c6b9"/>
    <circle id="Ellipse_27" data-name="Ellipse 27" cx="1.579" cy="1.579" r="1.579" transform="translate(66.087 9.11)" fill="#58c6b9"/>
    <path id="Path_129" data-name="Path 129" d="M69.623,52.24A13.351,13.351,0,0,1,50.742,71.12c-2.666-2.666-6.339-8.556-8.6-14.355A31.96,31.96,0,0,0,55.268,43.639c5.8,2.264,11.687,5.934,14.355,8.6ZM36.5,38.831A2.722,2.722,0,0,0,39.127,35.3a12.979,12.979,0,0,0-24.571,0,2.723,2.723,0,0,0,2.627,3.531H36.5ZM32.47,20.87a5.631,5.631,0,1,1-5.629-5.491A5.634,5.634,0,0,1,32.47,20.87Z" transform="translate(8.755 8.529)" fill="#58c6b9"/>
    <path id="Path_130" data-name="Path 130" d="M47.972,16.233a23.346,23.346,0,1,0-.014,33,23.333,23.333,0,0,0,.014-33ZM46.795,48.072A21.692,21.692,0,1,1,46.808,17.4,21.682,21.682,0,0,1,46.795,48.072Z" transform="translate(4.135 4.129)" fill="#1d1d1d"/>
    <path id="Path_131" data-name="Path 131" d="M78.959,60.188c-2.774-2.776-8.464-6.233-13.793-8.432A33.129,33.129,0,1,0,50.482,66.429c2.2,5.331,5.657,11.022,8.434,13.8A14.172,14.172,0,0,0,78.959,60.188ZM13.347,59.125a31.471,31.471,0,1,1,44.506,0A31.509,31.509,0,0,1,13.347,59.125ZM77.779,79.053a12.531,12.531,0,0,1-17.7.014c-2.3-2.3-5.77-7.593-8.144-13.427A32.424,32.424,0,0,0,64.382,53.213c5.827,2.375,11.116,5.842,13.413,8.139A12.514,12.514,0,0,1,77.779,79.053Z" transform="translate(0 0)" fill="#1d1d1d"/>
    <path id="Path_132" data-name="Path 132" d="M30.822,26.548a6.456,6.456,0,1,0-7.256,0,13.786,13.786,0,0,0-9.439,8.826,3.4,3.4,0,0,0,.468,3.109A3.62,3.62,0,0,0,17.531,40H36.848a3.618,3.618,0,0,0,2.933-1.513,3.4,3.4,0,0,0,.47-3.11,13.768,13.768,0,0,0-9.43-8.826Zm-8.438-5.334a4.808,4.808,0,1,1,4.8,4.814,4.808,4.808,0,0,1-4.8-4.814Zm16.06,16.313a1.969,1.969,0,0,1-1.6.826H17.531a1.974,1.974,0,0,1-1.6-.826,1.78,1.78,0,0,1-.252-1.62,12.157,12.157,0,0,1,23.014,0,1.769,1.769,0,0,1-.252,1.62Z" transform="translate(8.407 8.185)" fill="#1d1d1d"/>
  </g>
</svg>
