<svg width="16" height="16" viewBox="0 0 16 16" fill="none" xmlns="http://www.w3.org/2000/svg">
    <path d="M3.827 10.667c.073-.327-.06-.794-.294-1.027l-1.62-1.62c-.506-.507-.706-1.047-.56-1.513.154-.467.627-.787 1.334-.907l2.08-.347c.3-.053.666-.32.806-.593l1.147-2.3c.333-.66.787-1.027 1.28-1.027s.947.367 1.28 1.027l1.147 2.3c.086.173.266.34.46.453l-7.18 7.18c-.094.094-.254.007-.227-.126l.347-1.5zm8.64-1.026c-.24.24-.374.7-.294 1.027l.46 2.007c.194.833.074 1.46-.34 1.76a1 1 0 0 1-.6.18c-.34 0-.74-.127-1.18-.387l-1.953-1.16c-.307-.18-.813-.18-1.12 0l-1.953 1.16c-.74.433-1.374.507-1.78.207a.982.982 0 0 1-.34-.467l8.106-8.107c.307-.306.74-.446 1.16-.373l.674.113c.706.12 1.18.44 1.333.907.147.467-.053 1.007-.56 1.513l-1.613 1.62z" fill="#D98CEA"/>
</svg>
