<svg width="24" height="24" viewBox="0 0 24 24" fill="none" xmlns="http://www.w3.org/2000/svg">
    <g clip-path="url(#0pasfl2bfa)" fill="#989898">
        <path d="M12 11.034c.773.925 1.863.793 2.375.285.058-.057.016-.153-.064-.154a1.747 1.747 0 0 1-1.014-.339.62.62 0 0 0 .203-.018c.09-.022.093-.15.003-.175a1.696 1.696 0 0 1-.732-.443c-.25-.25-.569-.198-.771-.015-.203-.183-.52-.236-.771.015a1.696 1.696 0 0 1-.733.443c-.09.025-.087.153.004.175a.62.62 0 0 0 .203.018 1.747 1.747 0 0 1-1.014.34c-.08 0-.122.096-.065.153.513.508 1.603.64 2.376-.285z"/>
        <path d="M20.546 15.323c-1.132-.612-5.402-1.618-5.428-1.614l-.414-.935c.627-.721.947-1.493 1.141-2.434 1.23-.35 2.16-2.661 1.764-3.759a1.102 1.102 0 0 0-.507-.609c.63-4.474-1.66-5.73-5.102-5.73-2.646 0-5.454.777-4.971 5.674a1.095 1.095 0 0 0-.639.665c-.353.981.36 2.59.85 3.104.407.428.709.596.914.655.219 1.068.591 1.809 1.156 2.452-.194.425-.12.262-.425.918-.026-.005-4.278.99-5.431 1.613C1.64 16.299.67 19.537.67 21.795c0 1.084.879 1.962 1.963 1.962h18.734a1.963 1.963 0 0 0 1.963-1.962c0-2.293-.974-5.492-2.784-6.472zm-11.922-5.25a.256.256 0 0 0-.253-.22c-.238 0-.598-.348-.762-.52-.403-.423-1.006-1.835-.738-2.579a.728.728 0 0 1 .006-.016c.186-.491.907-.422 1.026.09.064.275.13.668.207 1.231.028.208.335.19.335-.02V5.85c0-.635.52-1.144 1.154-1.122 1.158.04 2.939-.037 4.158-.733.649-.37 1.478-.032 1.623.7.257 1.289.266 2.837.262 3.344-.002.22.369.229.39.02.03-.282.103-.9.205-1.35a.434.434 0 0 1 .608-.297c.11.053.214.149.284.343.268.744-.335 2.156-.738 2.579-.673.705-.72.442-.903.562a.255.255 0 0 0-.112.175c0 .004-.06.383-.227.907-.498 1.553-1.973 2.726-3.15 2.726-1.373 0-3.148-1.588-3.375-3.63zm.7 3.903c.16-.342.216-.462.368-.792 1.459 1.32 3.077 1.403 4.628-.014l.356.804c-.576 2.005-4.773 2.006-5.352.002z"/>
    </g>
    <defs>
        <clipPath id="0pasfl2bfa">
            <path fill="#fff" d="M0 0h24v24H0z"/>
        </clipPath>
    </defs>
</svg>
