<svg width="22" height="22" viewBox="0 0 22 22" fill="none" xmlns="http://www.w3.org/2000/svg">
    <circle cx="11" cy="11" r="11" fill="#fff"/>
    <g clip-path="url(#fl9o90ctxa)">
        <path d="M8.068 4.512a.59.59 0 1 0 0-1.179.59.59 0 0 0 0 1.179zM13.932 18.67a.59.59 0 1 0 0-1.18.59.59 0 0 0 0 1.18zM3.922 8.658a.59.59 0 1 0 0-1.178.59.59 0 0 0 0 1.178zM18.079 14.523a.59.59 0 1 0 0-1.18.59.59 0 0 0 0 1.18zM3.922 14.523a.59.59 0 1 0 0-1.179.59.59 0 0 0 0 1.179zM18.079 8.658a.59.59 0 1 0 0-1.178.59.59 0 0 0 0 1.178zM8.068 18.67a.59.59 0 1 0 0-1.18.59.59 0 0 0 0 1.18zM13.932 4.512a.59.59 0 1 0 0-1.179.59.59 0 0 0 0 1.179zM11 16.893a5.893 5.893 0 1 0 0-11.786 5.893 5.893 0 0 0 0 11.786z" fill="#FED402"/>
        <path d="M7.004 11a5.895 5.895 0 0 1 4.945-5.817 5.893 5.893 0 1 0 0 11.634A5.895 5.895 0 0 1 7.004 11z" fill="#FAC600"/>
        <path d="M10.983 1.571h.034c.316 0 .572.257.572.572v1.214a.572.572 0 0 1-.572.572h-.034a.572.572 0 0 1-.572-.572V2.143c0-.315.256-.572.572-.572zm0 16.5h.034c.316 0 .572.256.572.572v1.214a.572.572 0 0 1-.572.572h-.034a.572.572 0 0 1-.572-.572v-1.214c0-.316.256-.572.572-.572zM4.32 4.345l.025-.024a.572.572 0 0 1 .81 0l.857.858a.572.572 0 0 1 0 .809l-.024.024a.572.572 0 0 1-.81 0l-.857-.858a.572.572 0 0 1 0-.809zm11.668 11.668.024-.025a.572.572 0 0 1 .81 0l.857.858a.572.572 0 0 1 0 .809l-.024.024a.572.572 0 0 1-.81 0l-.857-.858a.572.572 0 0 1 0-.809zM1.572 11.017v-.034c0-.316.256-.572.572-.572h1.213c.316 0 .572.256.572.572v.034a.572.572 0 0 1-.572.572H2.144a.572.572 0 0 1-.572-.572zm16.5 0v-.034c0-.316.256-.572.572-.572h1.213c.316 0 .572.256.572.572v.034a.572.572 0 0 1-.572.572h-1.213a.572.572 0 0 1-.572-.572zM4.345 17.68l-.024-.025a.572.572 0 0 1 0-.81l.858-.857a.572.572 0 0 1 .809 0l.024.024a.572.572 0 0 1 0 .81l-.858.857a.572.572 0 0 1-.809 0zM16.013 6.011l-.025-.024a.572.572 0 0 1 0-.81l.858-.857a.572.572 0 0 1 .809 0l.024.024a.572.572 0 0 1 0 .81l-.857.857a.572.572 0 0 1-.81 0z" fill="#FED402"/>
    </g>
    <defs>
        <clipPath id="fl9o90ctxa">
            <path fill="#fff" transform="translate(1.572 1.571)" d="M0 0h18.857v18.857H0z"/>
        </clipPath>
    </defs>
</svg>
