<svg xmlns="http://www.w3.org/2000/svg" width="30" height="24" viewBox="0 0 30 24">
  <g id="svgexport-7_8_" data-name="svgexport-7 (8)" transform="translate(-1 -4)">
    <g id="Layer_1">
      <path id="Path_2296" data-name="Path 2296" d="M23.4,8H2.6A1.834,1.834,0,0,1,1,6,1.834,1.834,0,0,1,2.6,4H23.4A1.834,1.834,0,0,1,25,6,1.834,1.834,0,0,1,23.4,8Z" fill="#fff"/>
      <path id="Path_2297" data-name="Path 2297" d="M23.4,28H2.6A1.834,1.834,0,0,1,1,26a1.834,1.834,0,0,1,1.6-2H23.4A1.834,1.834,0,0,1,25,26,1.834,1.834,0,0,1,23.4,28Z" fill="#fff"/>
      <path id="Path_2298" data-name="Path 2298" d="M29,18H3a2,2,0,0,1,0-4H29a2,2,0,0,1,0,4Z" fill="#fff"/>
    </g>
  </g>
</svg>
