<svg xmlns="http://www.w3.org/2000/svg" width="56.029" height="64" viewBox="0 0 56.029 64">
  <g id="svgexport-10_2_" data-name="svgexport-10 (2)" transform="translate(-7.497 -4.002)">
    <path id="Path_5908" data-name="Path 5908" d="M50.164,54.1c6.491-7.8.128-19.82-9.911-18.929A11.665,11.665,0,0,0,29.829,49.089C31.429,57.467,42,61.27,48.541,55.7l7.521,7.533a1.148,1.148,0,0,0,1.623-1.623Z" transform="translate(3.165 4.455)" fill="#febe50"/>
    <path id="Path_5909" data-name="Path 5909" d="M41.489,11.627V37.449A13.887,13.887,0,0,1,53.366,51.361l5.292-2.355V4Z" transform="translate(4.867 0)" fill="#3eb8a9"/>
    <path id="Path_5910" data-name="Path 5910" d="M40.8,37.346c.286-.023.56-.034.834-.034V11.627L24.491,4v45l3.555,1.589A13.881,13.881,0,0,1,40.8,37.346Z" transform="translate(2.433 0)" fill="#3eb8a9"/>
    <path id="Path_5911" data-name="Path 5911" d="M7.5,56.631l17.147-7.625V4L7.5,11.627Z" fill="#3eb8a9"/>
  </g>
</svg>
