<svg id="skills" xmlns="http://www.w3.org/2000/svg" width="30" height="30" viewBox="0 0 30 30">
  <path id="Path_368" data-name="Path 368" d="M170.251,120.884l-2-.778a.507.507,0,0,1-.325-.475v-1a2.837,2.837,0,0,0,.958-2.126v-.188a2.558,2.558,0,0,0,.479-1.488,2.607,2.607,0,0,0-2.6-2.6h-1.437a2.607,2.607,0,0,0-2.6,2.6,2.558,2.558,0,0,0,.479,1.488v.188h0a2.837,2.837,0,0,0,.958,2.126v1a.507.507,0,0,1-.325.475l-2,.778a2.35,2.35,0,0,0-1.508,2.2v3.959a.448.448,0,1,0,.9,0v-3.959a1.459,1.459,0,0,1,.936-1.368l1.37-.533a2.844,2.844,0,0,0,5.031,0l1.37.533a1.459,1.459,0,0,1,.936,1.368v3.959a.448.448,0,0,0,.9,0v-3.959A2.35,2.35,0,0,0,170.251,120.884Zm-6.158-4.377v-.958a.448.448,0,0,0-.448-.448h-.008a1.642,1.642,0,0,1-.023-.271,1.71,1.71,0,0,1,1.708-1.708h1.437a1.71,1.71,0,0,1,1.708,1.708,1.64,1.64,0,0,1-.023.271h-.007a7.973,7.973,0,0,1-3.154-.911.448.448,0,1,0-.4.8,9.543,9.543,0,0,0,3.106.973v.542a1.947,1.947,0,0,1-3.894,0Zm1.947,5.3a1.956,1.956,0,0,1-1.681-.966,1.4,1.4,0,0,0,.692-1.211v-.458a2.841,2.841,0,0,0,1.978,0v.458a1.4,1.4,0,0,0,.692,1.211A1.948,1.948,0,0,1,166.04,121.808Z" transform="translate(-151.04 -105.781)" fill="#3bbbac"/>
  <path id="Path_369" data-name="Path 369" d="M11.712,17.848a.439.439,0,0,0-.439.439v4.227a.439.439,0,0,0,.879,0V18.288a.439.439,0,0,0-.439-.439Zm6.576,0a.439.439,0,0,0-.439.439v4.227a.439.439,0,0,0,.879,0V18.288a.439.439,0,0,0-.439-.439ZM15,0a2.318,2.318,0,1,0,2.318,2.318A2.321,2.321,0,0,0,15,0Zm0,3.758a1.439,1.439,0,1,1,1.439-1.439A1.441,1.441,0,0,1,15,3.758Zm0,21.606a2.318,2.318,0,1,0,2.318,2.318A2.321,2.321,0,0,0,15,25.364Zm0,3.758a1.439,1.439,0,1,1,1.439-1.439A1.441,1.441,0,0,1,15,29.121ZM27.682,12.682A2.318,2.318,0,1,0,30,15,2.321,2.321,0,0,0,27.682,12.682Zm0,3.757A1.439,1.439,0,1,1,29.121,15,1.441,1.441,0,0,1,27.682,16.439ZM2.318,12.682A2.318,2.318,0,1,0,4.636,15,2.321,2.321,0,0,0,2.318,12.682Zm0,3.757A1.439,1.439,0,1,1,3.758,15a1.441,1.441,0,0,1-1.439,1.439Zm25.217-5.327a13.111,13.111,0,0,0-8.648-8.648.439.439,0,0,0-.26.84A12.233,12.233,0,0,1,26.7,11.372a.439.439,0,1,0,.84-.26ZM11.662,2.754a.44.44,0,0,0-.55-.29,13.111,13.111,0,0,0-8.648,8.648.439.439,0,1,0,.84.26A12.233,12.233,0,0,1,11.372,3.3a.439.439,0,0,0,.29-.55ZM11.372,26.7A12.233,12.233,0,0,1,3.3,18.628a.439.439,0,1,0-.84.26,13.111,13.111,0,0,0,8.648,8.648.439.439,0,1,0,.26-.84Zm15.873-8.358a.439.439,0,0,0-.55.29A12.233,12.233,0,0,1,18.628,26.7a.439.439,0,1,0,.26.84,13.111,13.111,0,0,0,8.648-8.648.439.439,0,0,0-.29-.55Z" fill="#3bbbac"/>
</svg>
