<svg xmlns="http://www.w3.org/2000/svg" xmlns:xlink="http://www.w3.org/1999/xlink" width="30" height="30" viewBox="0 0 30 30">
  <defs>
    <clipPath id="clip-path">
      <rect id="Rectangle_81" data-name="Rectangle 81" width="30" height="30" fill="#3bbbac"/>
    </clipPath>
  </defs>
  <g id="values" clip-path="url(#clip-path)">
    <path id="Path_370" data-name="Path 370" d="M23.285,6.757a.9.9,0,0,0-.775-.447H7.278a.9.9,0,0,0-.775.447L5.416,8.639a.44.44,0,0,0,.762.44l.837-1.45,3.177,5.5H3.838l1.343-2.327a.44.44,0,1,0-.762-.44L2.793,13.182a.712.712,0,0,0,.086.831L14.35,26.861a.713.713,0,0,0,.531.238h0a.714.714,0,0,0,.531-.238L26.908,14.013a.712.712,0,0,0,.086-.832Zm-7.463,6.376H11.717l3.177-5.5,3.177,5.5h-.038a.44.44,0,1,0,0,.88h.212L14.883,25.422,11.542,14.013h4.28a.44.44,0,0,0,0-.88Zm3.011-.44-3.177-5.5H22.01Zm.329,1.32h6.566L15.938,24.955Zm6.788-.88H19.6l3.177-5.5ZM7.777,7.189h6.354l-3.177,5.5Zm2.848,6.823,3.2,10.944L4.059,14.013ZM25.544,25.459a.437.437,0,0,0-.066-.036,4.294,4.294,0,0,1-.766-.434.44.44,0,0,0-.513.715,4.861,4.861,0,0,0,.424.272,4.112,4.112,0,0,0-1.932,2.28,4.113,4.113,0,0,0-1.932-2.279,4.113,4.113,0,0,0,1.932-2.28l.014.04a.44.44,0,0,0,.831-.289q-.051-.146-.087-.3l-.183-.747a.591.591,0,0,0-1.149,0l-.183.747A3.386,3.386,0,0,1,19.9,25.423a.442.442,0,0,0-.066.036.622.622,0,0,0,0,1.035.441.441,0,0,0,.066.036A3.386,3.386,0,0,1,21.934,28.8l.183.747a.591.591,0,0,0,1.149,0l.183-.747a3.386,3.386,0,0,1,2.029-2.272.442.442,0,0,0,.066-.036.622.622,0,0,0,0-1.035ZM27.631,6.074a.438.438,0,0,0-.066-.036,1.461,1.461,0,0,1-.9-1l-.092-.377a.515.515,0,0,0-.5-.394h0a.515.515,0,0,0-.5.394l-.092.377a1.461,1.461,0,0,1-.9,1,.443.443,0,0,0-.066.036.531.531,0,0,0,0,.885.441.441,0,0,0,.066.036,1.46,1.46,0,0,1,.9,1l.092.377a.515.515,0,0,0,.5.394h0a.515.515,0,0,0,.5-.394l.092-.377a1.461,1.461,0,0,1,.9-1,.436.436,0,0,0,.066-.036.532.532,0,0,0,0-.885ZM26.071,7.149a2.273,2.273,0,0,0-.577-.633,2.273,2.273,0,0,0,.577-.633,2.271,2.271,0,0,0,.577.633A2.271,2.271,0,0,0,26.071,7.149ZM3.849,5.1l.132.54a.549.549,0,0,0,1.067,0l.132-.54a2.328,2.328,0,0,1,1.4-1.558A.436.436,0,0,0,6.643,3.5a.571.571,0,0,0,0-.951.436.436,0,0,0-.066-.036A2.328,2.328,0,0,1,5.181.958L5.049.419a.549.549,0,0,0-1.067,0l-.132.54a2.327,2.327,0,0,1-1.4,1.558.436.436,0,0,0-.066.036.571.571,0,0,0,0,.951.444.444,0,0,0,.066.036A2.327,2.327,0,0,1,3.849,5.1Zm.666-3.383a3.08,3.08,0,0,0,1.16,1.313,3.081,3.081,0,0,0-1.16,1.313,3.081,3.081,0,0,0-1.16-1.313A3.081,3.081,0,0,0,4.515,1.715Z" fill="#3bbbac"/>
  </g>
</svg>
